<?xml version="1.0" encoding="utf-8"?>
<svg id="master-artboard" viewBox="0 0 458.41009521484375 266.2682189941406" version="1.1" xmlns="http://www.w3.org/2000/svg" x="0px" y="0px" enable-background="new 0 0 1400 980" width="458.41009521484375px" height="266.2682189941406px"><rect id="ee-background" x="0" y="0" width="458.41009521484375" height="266.2682189941406" style="fill: white; fill-opacity: 0; pointer-events: none;"/><defs><radialGradient id="gradient-0" gradientUnits="objectBoundingBox" cx="0.5" cy="0.5" r="0.5">
                <stop offset="0" style="stop-color: #fffde9"/>
                <stop offset="1" style="stop-color: #fff583"/>
              </radialGradient></defs>
<path d="M 0 0 H 1400 V 980 H 0 V 0 Z" fill="#FFFDE9" transform="matrix(0.9988033175468445, 0, 0, 0.9988033175468445, -438.9617919921875, -379.735479593277)" style="fill: rgb(255, 255, 255); fill-opacity: 0;"/><g transform="matrix(1, 0, 0, 1, -438.9617919921875, -380.3218688964844)">
				<path fill-rule="evenodd" clip-rule="evenodd" fill="#24160D" d="M572.8,609.1c-0.4,1.4-0.7,2.5-1.1,3.5c-1.3,3.4-4.4,5.2-8,4.3&#10;&#9;&#9;&#9;&#9;&#9;c-1-0.2-2.1-1-2.6-1.8c-0.8-1.2-1.2-2.7-1.8-4.4c-1.2-0.2-2.7-0.5-4.1-0.5c-8.5-0.1-16.7-1.6-24.7-4.1c-5-1.6-10-3-15-4.4&#10;&#9;&#9;&#9;&#9;&#9;c-6.4-1.7-12.2-4.7-17.3-9.3c-0.6,0.5-1.1,1-1.7,1.4c-3.5,2.5-6.9,1.6-8.6-2.3c-0.6-1.5-0.7-3.2-1.1-4.9&#10;&#9;&#9;&#9;&#9;&#9;c-2.2-2.4-4.5-4.9-7.1-7.8c-0.3-2.1-0.7-4.9-1.2-7.6c-0.5-2.6-0.6-5.2,0.8-7.6c1-1.9,1.1-3.9,1-6c-0.5-6.5-1-13-1.6-19.5&#10;&#9;&#9;&#9;&#9;&#9;c-0.4-5-0.9-10-1.4-15c-0.5-5-0.9-10-1.4-15c-0.3-3.5-0.7-7.1-0.9-10.6c-0.4-8.4-0.7-16.8-1.1-25.2c0-0.9-0.1-1.9-0.5-2.7&#10;&#9;&#9;&#9;&#9;&#9;c-1.4-2.8-1.5-5.7-1.4-8.7c0-4.3-0.1-8.6,0-12.9c0.1-2.7,0.2-5.6,3-7.4c1-0.7,1.5-2,2.1-3.2c0.7-1.5,1.2-3.2,1.9-4.6&#10;&#9;&#9;&#9;&#9;&#9;c1.7-3.2,4-5.6,7.6-7c4.7-1.9,9.5-3.3,14.3-4.8c5.2-1.6,10.6-2.2,15.9-2.8c6.3-0.7,12.6-1.9,18.9-2.2c7.6-0.4,15.3,0,22.9,0.1&#10;&#9;&#9;&#9;&#9;&#9;c0.7,0,1.5,0.3,2.2,0.2c10.1-0.2,20,1.6,29.9,3.5c9,1.8,17.9,3.8,26.5,6.7c4.6,1.6,9.1,3.2,13.6,5c6.8,2.7,10.3,8.4,12.2,15.1&#10;&#9;&#9;&#9;&#9;&#9;c0.5,1.8,0.9,3.5,2.2,5c0.7,0.8,1,2,1.1,3.1c0.4,4.5,0.7,8.9,0.9,13.4c0.1,1.7,0,3.4,0.2,5c0.2,1.9,0.4,3.7-0.8,5.4&#10;&#9;&#9;&#9;&#9;&#9;c-0.4,0.5-0.5,1.4-0.5,2.1c0.3,4.2-0.8,8.1-1.5,12.2c-0.2,1.1-0.3,2.2-0.3,3.3c0,6-1.1,11.9-2.2,17.7&#10;&#9;&#9;&#9;&#9;&#9;c-1.4,7.1-3.1,14.2-4.4,21.4c-1.4,7.3-2.4,14.7-3.7,22.1c-0.8,4.8-1.6,9.5-2.4,14.3c-0.1,0.7-0.3,1.7,0.1,2.1&#10;&#9;&#9;&#9;&#9;&#9;c2.2,2.9,1.4,6.1,0.9,9.1c-0.5,3.1-2.2,5.9-4.6,8.1c-0.8,0.7-1.2,1.8-1.6,2.8c-1.7,3.8-3.2,4.5-7.4,3.8c-1-0.2-2.2-0.1-3.2,0.1&#10;&#9;&#9;&#9;&#9;&#9;c-1.1,0.2-2.2,0.5-3.2,1c-8.4,4.5-17.5,6.2-26.7,7.7c-2.6,0.4-5.2,0.8-7.7,1.3C576.2,608,574.5,608.6,572.8,609.1z M491.1,485.4&#10;&#9;&#9;&#9;&#9;&#9;c-0.2,1-0.4,2-0.7,3.3C491.9,487.6,491,486.5,491.1,485.4c1.5-2.9,2.3-3.4,4.4-2.1c6.4,4.1,13.4,6.6,20.6,8.7&#10;&#9;&#9;&#9;&#9;&#9;c5.7,1.6,11.6,2.7,17.4,4.2c5.3,1.3,10.6,2.2,16,2.1c2.8-0.1,5.6,0,8.4,0.2c3,0.2,4.1,1.5,4.3,4.6c0.1,0.7,0.2,1.4,0.3,2.2&#10;&#9;&#9;&#9;&#9;&#9;c4.8-2.9,5.9-2.3,8.5,1.3c0.5-0.1,1.1-0.2,1.6-0.3c0.7-0.2,1.3-0.5,1.9-0.8c0.2-0.8,0.4-1.3,0.5-1.8c0.1-0.5,0-1.1,0.1-1.7&#10;&#9;&#9;&#9;&#9;&#9;c0.4-2.7,1.4-3.6,4-3.7c3.2-0.1,6.4,0,9.5-0.1c10.6-0.5,21.2-1.3,31.5-4.2c2.7-0.8,5.3-1.6,7.5-3.6c0.5-0.5,1.2-0.9,1.9-1.1&#10;&#9;&#9;&#9;&#9;&#9;c1-0.3,1.8,0,2.2,1.1c0.2,0.7,0.3,1.4,0.5,2c2-0.4,3.7-0.8,5.3-1.1c1.7-2.6,1.2-5.2,1.1-7.9c3.3-2.1,5.5-5,5.7-8.7&#10;&#9;&#9;&#9;&#9;&#9;c0.3-5.3,0.5-10.6-0.3-16.6c-1.7,5.2-4.5,8.5-8.6,10.8c-12.3,6.9-25.2,12.3-39.7,12c-1.1,0-2.2,0.2-3.3,0.3&#10;&#9;&#9;&#9;&#9;&#9;c-5.4,0.5-10.8,1.2-16.2,1.4c-13.8,0.5-27.6,0.7-41.3-2.1c-6.8-1.4-13.6-2.2-20.1-4.7c-5.9-2.3-11.9-4.3-17.8-6.8&#10;&#9;&#9;&#9;&#9;&#9;c-6.8-2.9-13-6.8-16.7-13.4c-1.4-2.4-2.3-5.1-3.5-7.6c-0.3-0.6-0.1-2-1.8-1.6c0,4.4,0.1,8.9,0,13.4c-0.2,6.7,2.5,11.9,7.4,16.2&#10;&#9;&#9;&#9;&#9;&#9;c1.1,1,2.1,2,3.1,2.9c-0.5,2-0.9,3.7-1.3,5.3C486.6,484.5,488.9,485,491.1,485.4z M488.7,493.6c0,3-0.2,5.8,0,8.6&#10;&#9;&#9;&#9;&#9;&#9;c0.5,7.4,1.4,14.9,1.6,22.3c0.2,9.2,1.2,18.2,2,27.3c0.3,3.5,0.4,7.1,0.5,10.6c0.1,1.5,0.1,3,0.1,4.5c0.1,2.9,1.1,5.3,3.5,7.3&#10;&#9;&#9;&#9;&#9;&#9;c4.8,4.2,10.2,7.6,15.6,10.8c3.1,1.8,6.3,3.1,9.9,3.6c2.6,0.4,5.1,1.2,7.7,1.7c3.8,0.7,7.7,1.6,11.6,1.8&#10;&#9;&#9;&#9;&#9;&#9;c5.8,0.3,11.6,0.2,17.4,0.2c1,0,2.1-0.4,3.3-0.7c0.1-3.8,0.2-7.3,0.2-10.8c0.1-8.4,0.2-16.8,0.2-25.2c0.1-6.4,0.1-12.7,0.1-19.1&#10;&#9;&#9;&#9;&#9;&#9;c0-4.1,0-8.2,0-12.3c0-3.5,0.1-7.1,0.1-10.6c0-1.1-0.1-2.6-0.8-3.1c-2.6-2.2-2.6-5.2-3-8.5c-5.4-0.4-10.8-0.5-16.2-1.1&#10;&#9;&#9;&#9;&#9;&#9;c-5.5-0.7-11.1-1.7-16.5-2.9c-5.3-1.2-10.5-2.6-15.6-4.3c-5.2-1.8-10.3-4-15.5-6C493,491.1,493,491.1,488.7,493.6z M578.3,463.7&#10;&#9;&#9;&#9;&#9;&#9;c4.9-0.2,9.4-0.5,13.9-0.6c11.2-0.3,21.7-3.5,31.5-8.7c3.8-2,7.3-4.6,10.1-7.9c2.7-3.2,2.4-6.3-0.5-9.4&#10;&#9;&#9;&#9;&#9;&#9;c-1.6-1.7-3.4-2.8-5.6-3.5c-2.5-0.8-4.9-1.8-7.3-2.6c-3.2-1.1-6.3-2.2-9.5-3.2c-9.4-3.1-19.3-4.3-28.9-6.6&#10;&#9;&#9;&#9;&#9;&#9;c-2.5-0.6-5.1-1-7.7-1.1c-8.2-0.5-16.4-1-24.6-1.2c-6.9-0.2-13.8-0.1-20.6,1.2c-5.7,1-11.5,1.4-17.2,2.1&#10;&#9;&#9;&#9;&#9;&#9;c-2.8,0.3-5.6,0.6-8.3,1.3c-4.3,1.1-8.5,2.7-12.8,4c-6.3,2-6.9,5.1-3.4,10.5c2.1,3.3,4.9,6.1,8.1,8.4&#10;&#9;&#9;&#9;&#9;&#9;c9.7,6.9,20.4,11.5,32.2,13.6c2.6,0.5,5.2,0.5,7.8,0.9C549.7,463,564.1,465,578.3,463.7z M570.6,592.1c4.7,1.7,9.2-0.5,13.7-1.1&#10;&#9;&#9;&#9;&#9;&#9;c11.9-1.7,23-6,33.6-12.5c2-13.4,3.8-27,6-40.6c2.2-13.6,4.6-27.2,7-40.8c-1.1-0.9-1.9-1.6-2.7-2.3c-0.1-0.1-0.3,0,0.8,0&#10;&#9;&#9;&#9;&#9;&#9;c-6,1.7-10.8,3.6-15.7,4.3c-9.2,1.4-18.5,2.7-27.8,2.4c-2.2-0.1-4.5-0.4-7.1,0.7c0.9,4.8-2.4,6.4-6.3,7.5&#10;&#9;&#9;&#9;&#9;&#9;c-0.3,0.1-0.5,0.5-1,1.1c-0.5,10.5-1.7,21.3-1.3,32.1c0.5,15.9,0.3,31.7,0.5,47.6C570,590.8,570.3,591.3,570.6,592.1z&#10;&#9;&#9;&#9;&#9;&#9; M482,434.1c-2.6,3.9-3.5,7.6-2.6,11.2c2.3,8.7,7.3,15.8,15.8,19.2c11.9,4.8,23.7,10,36.6,12.1c11.3,1.8,22.6,2.9,34,2.9&#10;&#9;&#9;&#9;&#9;&#9;c4.3,0,8.6-0.3,12.9-0.5c6.3-0.4,12.7-0.8,19-1.3c2.8-0.2,5.7-0.1,8.4-0.8c9.5-2.3,18.6-5.5,27-10.6c2.2-1.3,4.2-3.2,5.9-5&#10;&#9;&#9;&#9;&#9;&#9;c1.4-1.5,2.1-3.5,1.2-5.7c-0.7-1.6-0.7-3,0.2-4.8c0.9-1.8,0.1-3.3-1.7-5.7c-0.3,0.2-0.7,0.4-0.8,0.6c-1.4,3.9-4.4,6.4-7.7,8.5&#10;&#9;&#9;&#9;&#9;&#9;c-11.8,7.5-24.5,11.8-38.6,11.8c-2.8,0-5.6,0.2-8.4,0.4c-11.6,0.9-23.1,1-34.7-0.9c-5.5-0.9-11.1-1.9-16.6-2.4&#10;&#9;&#9;&#9;&#9;&#9;c-13.9-1.4-26.3-6.5-37.8-14.3c-4.4-3-8-6.8-10.3-11.6C483.4,436.5,482.9,435.7,482,434.1z M562.1,596.1&#10;&#9;&#9;&#9;&#9;&#9;c-2.4-0.1-4.6-0.2-6.8-0.2c-1.9,0-3.7,0.3-5.6,0.1c-8.9-0.8-17.9-0.9-26.5-3.8c-0.7-0.2-1.4-0.5-2.2-0.5&#10;&#9;&#9;&#9;&#9;&#9;c-3.1-0.2-5.8-1.4-8.4-2.9c-4.5-2.7-8.9-5.5-13.3-8.2c-1.2-0.8-2.4-1.6-3.9-2.6c-0.1,0.9-0.4,1.6-0.1,1.9&#10;&#9;&#9;&#9;&#9;&#9;c1.7,1.9,2.1,4.2,2.6,6.7c0.2,1,0.9,2,1.7,2.8c3.5,3.4,7.5,6.1,12.1,7.9c8.7,3.4,17.6,5.9,26.8,7.9c6.8,1.5,13.6,2.2,20.6,1.8&#10;&#9;&#9;&#9;&#9;&#9;c1-0.1,2.1-0.2,3.2-0.3C562.8,603,562.9,599.8,562.1,596.1z M617.2,583.2c-5.5,2.4-10.3,4.9-15.3,6.7&#10;&#9;&#9;&#9;&#9;&#9;c-5.1,1.8-10.4,3.1-15.7,4.2c-5.2,1.1-10.6,1.6-16,2.3c-0.2,3.2-0.3,6.1-0.5,9.1c0.8,0,1.4,0.2,1.9,0.1c5.9-1,11.8-2,17.6-3&#10;&#9;&#9;&#9;&#9;&#9;c9.2-1.6,18.1-4.3,26.4-9.2C615.5,590.2,618.1,587.3,617.2,583.2z M566.8,605.6c0.3-5.5,1-9.8,0.7-14c-0.4-5,0.1-10,0.2-15&#10;&#9;&#9;&#9;&#9;&#9;c0.2-6.5,0-13-0.1-19.6c-0.1-5.6-0.4-11.2-0.3-16.7c0.2-7.3,0.9-14.5,1.3-21.7c0.1-2.6,0.1-5.2,0-7.8c0-1.8,0.3-3.9-1.8-4.8&#10;&#9;&#9;&#9;&#9;&#9;c-1.2-0.6-2.3,1.7-2.3,4.9c0,0.2,0,0.4,0,0.6c0,11,0.1,22,0.1,33c0,12.1-0.3,24.2-0.3,36.3c0,6.3,0.2,12.7,0.4,19&#10;&#9;&#9;&#9;&#9;&#9;C565,601.4,564.9,603,566.8,605.6z M619.8,583.8c1.2-1.1,2-1.5,2.2-2c0.5-1.8,1-3.6,1.2-5.4c1.2-9.2,2.2-18.5,3.4-27.7&#10;&#9;&#9;&#9;&#9;&#9;c0.4-2.9,1.3-5.8,1.9-8.7c1.4-6.5,3-13,4.3-19.6c0.8-4,1.4-8.1,2-12.1c0.6-3.7,1.2-7.3,1.7-11c0.1-1.1-0.3-2.2-2.3-2&#10;&#9;&#9;&#9;&#9;&#9;c-0.3,0.8-0.9,1.8-1.2,2.8c-0.8,4-1.6,8-2.2,12.1c-0.7,4.4-1.3,8.8-2,13.2c-1.4,8.3-3,16.5-4.4,24.8c-1,6.2-1.9,12.5-2.7,18.8&#10;&#9;&#9;&#9;&#9;&#9;C621.1,572.2,620.6,577.5,619.8,583.8z M486,563.1c-0.3-4.3-0.5-8.5-0.9-12.8c-0.4-4.3-1-8.5-1.3-12.8&#10;&#9;&#9;&#9;&#9;&#9;c-0.7-11.5-1.3-23.1-1.8-34.6c-0.2-4.4-1.4-8.9,0.2-13.3c0.2-0.5,0.1-1.2-0.2-1.6c-2.1-2.6-1.5-5.6-0.7-8.4&#10;&#9;&#9;&#9;&#9;&#9;c-1-0.8-1.8-1.4-3.1-2.5c-0.2,1.3-0.3,2-0.3,2.7c0.2,7.6,0.4,15.3,0.8,22.9c0.6,10.2,1.9,20.4,2.6,30.6&#10;&#9;&#9;&#9;&#9;&#9;c0.3,4.1,0.6,8.2,1.2,12.2C483.4,551.3,482.9,557.4,486,563.1z M641.4,486.2c-0.1,1.4,0.1,2.9-0.3,4.3c-0.4,1.4-1.2,2.6-1.8,4&#10;&#9;&#9;&#9;&#9;&#9;c-0.2,0.5-0.3,1.1-0.4,1.6c-1.3,7.9-2.5,15.9-3.8,23.8c-0.9,5.5-1.6,11.1-3.2,16.4c-3.6,12.1-4.6,24.5-5.9,37&#10;&#9;&#9;&#9;&#9;&#9;c-0.1,0.5-0.2,1.5,1.3,1.5c0.4-1.7,0.9-3.5,1.2-5.2c0.9-5,1.7-9.9,2.6-14.9c0.8-4.6,1.8-9.1,2.7-13.7c0.6-3.3,0.9-6.7,1.7-9.9&#10;&#9;&#9;&#9;&#9;&#9;C638.9,516.2,641.1,501.3,641.4,486.2z M491.1,578.2c0.5-0.4,0.8-0.5,0.8-0.6c-0.3-5.5-0.5-11.1-0.9-16.6c-0.4-5-0.9-10-1.5-15&#10;&#9;&#9;&#9;&#9;&#9;c-0.3-3.3-0.9-6.7-1-10c-0.2-8-0.4-16-1.3-24c-0.3-3.1-0.1-6.4-0.5-9.5c-0.5-3.6-0.3-7.1,0.1-10.6c0.2-1.4,0.2-2.9,0.3-5.2&#10;&#9;&#9;&#9;&#9;&#9;c-1.1,1.2-1.8,1.7-1.9,2.3c-0.5,2.2-1,4.4-1,6.6c-0.1,2.4,0.3,4.8,0.5,7.2c1.3,14.7,0.8,29.4,2.5,44.1&#10;&#9;&#9;&#9;&#9;&#9;C488.4,557.1,488.5,567.6,491.1,578.2z M488,582.2c1.1-4.1-0.8-7.5-0.8-10.9c-1.7-1.5-3.2-2.9-4.7-4.3c-0.1-0.1-0.4,0-0.5-0.1&#10;&#9;&#9;&#9;&#9;&#9;c-0.3,2.9,0,8.3,0.8,10.2C483.8,579.4,485.3,581.2,488,582.2z M625.6,579.3c-0.6,1.8-1.1,3.2-1.6,4.6c0.9,1.3,1.7,2.5,2.7,4&#10;&#9;&#9;&#9;&#9;&#9;c2.3-2.8,3.3-5.5,2.6-9.1C628,578.9,627,579.1,625.6,579.3z M493.7,583.7c-1.7-0.1-2.8,0.4-3.2,1.9c-0.6,1.8-0.5,3.7,0.5,5.3&#10;&#9;&#9;&#9;&#9;&#9;c0.4,0.7,1.4,1.4,2.1,1.3c0.6-0.1,1.5-1.1,1.6-1.8C495.1,588.2,495.1,586,493.7,583.7z M569.1,610.5c-0.3-0.5-0.6-1.7-1.4-2.2&#10;&#9;&#9;&#9;&#9;&#9;c-1.2-0.8-3.6,0.1-4.3,1.4c-0.9,1.7-0.5,3.8,0.8,4.4C566.4,615,569,613.4,569.1,610.5z M624.1,590.8c-0.6-1.2-1.2-2.4-1.8-3.7&#10;&#9;&#9;&#9;&#9;&#9;c-2.4,0.2-1.1,2.3-1.7,3.4c-0.3,0.6-1.1,1.3-1,1.8c0.1,0.8,0.6,1.7,1.2,2.1c0.4,0.3,1.6,0,1.9-0.5&#10;&#9;&#9;&#9;&#9;&#9;C623.2,593.2,623.5,592.1,624.1,590.8z"/>
				<path fill-rule="evenodd" clip-rule="evenodd" fill="#DDB38A" d="M578.3,463.7c-14.2,1.3-28.6-0.7-43-3&#10;&#9;&#9;&#9;&#9;&#9;c-2.6-0.4-5.2-0.4-7.8-0.9c-11.7-2.1-22.5-6.7-32.2-13.6c-3.2-2.3-6-5.1-8.1-8.4c-3.5-5.4-3-8.5,3.4-10.5&#10;&#9;&#9;&#9;&#9;&#9;c4.3-1.3,8.5-2.9,12.8-4c2.7-0.7,5.5-1,8.3-1.3c5.7-0.7,11.5-1,17.2-2.1c6.9-1.3,13.7-1.3,20.6-1.2c8.2,0.2,16.4,0.7,24.6,1.2&#10;&#9;&#9;&#9;&#9;&#9;c2.6,0.2,5.2,0.5,7.7,1.1c9.6,2.3,19.5,3.5,28.9,6.6c3.2,1.1,6.4,2.1,9.5,3.2c2.5,0.9,4.9,1.8,7.3,2.6c2.2,0.7,4,1.8,5.6,3.5&#10;&#9;&#9;&#9;&#9;&#9;c2.9,3.1,3.2,6.2,0.5,9.4c-2.8,3.3-6.2,5.9-10.1,7.9c-9.9,5.2-20.3,8.4-31.5,8.7C587.7,463.2,583.2,463.5,578.3,463.7z"/>
				<path fill-rule="evenodd" clip-rule="evenodd" fill="#754D25" d="M482,434.1c0.9,1.6,1.4,2.4,1.8,3.2c2.3,4.9,5.9,8.7,10.3,11.6&#10;&#9;&#9;&#9;&#9;&#9;c11.4,7.8,23.9,12.9,37.8,14.3c5.6,0.6,11.1,1.5,16.6,2.4c11.5,1.8,23.1,1.7,34.7,0.9c2.8-0.2,5.6-0.4,8.4-0.4&#10;&#9;&#9;&#9;&#9;&#9;c14.1,0,26.8-4.3,38.6-11.8c3.3-2.1,6.3-4.6,7.7-8.5c0.1-0.3,0.5-0.4,0.8-0.6c1.8,2.4,2.6,3.9,1.7,5.7c-0.9,1.7-0.8,3.2-0.2,4.8&#10;&#9;&#9;&#9;&#9;&#9;c0.9,2.2,0.2,4.2-1.2,5.7c-1.8,1.9-3.7,3.7-5.9,5c-8.4,5.1-17.5,8.3-27,10.6c-2.7,0.6-5.6,0.6-8.4,0.8c-6.3,0.5-12.7,0.9-19,1.3&#10;&#9;&#9;&#9;&#9;&#9;c-4.3,0.3-8.6,0.5-12.9,0.5c-11.4,0-22.7-1.1-34-2.9c-12.9-2.1-24.7-7.3-36.6-12.1c-8.5-3.4-13.5-10.5-15.8-19.2&#10;&#9;&#9;&#9;&#9;&#9;C478.5,441.7,479.4,438,482,434.1z"/>
				<g>
					<path fill-rule="evenodd" clip-rule="evenodd" fill="#DDB38A" d="M488.7,493.6c4.3-2.5,4.3-2.5,6.3-6.1c5.1,2,10.2,4.2,15.5,6&#10;&#9;&#9;&#9;&#9;&#9;&#9;c5.1,1.7,10.4,3.2,15.6,4.3c5.4,1.2,11,2.2,16.5,2.9c5.3,0.7,10.7,0.8,16.2,1.1c0.4,3.3,0.4,6.3,3,8.5c0.7,0.6,0.8,2.1,0.8,3.1&#10;&#9;&#9;&#9;&#9;&#9;&#9;c0.1,3.5-0.1,7.1-0.1,10.6c0,4.1,0,8.2,0,12.3c0,6.4-0.1,12.7-0.1,19.1c-0.1,8.4-0.1,16.8-0.2,25.2c0,3.5-0.1,7.1-0.2,10.8&#10;&#9;&#9;&#9;&#9;&#9;&#9;c-1.3,0.3-2.3,0.7-3.3,0.7c-5.8,0-11.6,0.2-17.4-0.2c-3.9-0.2-7.7-1.1-11.6-1.8c-2.6-0.5-5.1-1.3-7.7-1.7&#10;&#9;&#9;&#9;&#9;&#9;&#9;c-3.6-0.5-6.8-1.8-9.9-3.6c-5.5-3.3-10.8-6.6-15.6-10.8c-2.3-2-3.3-4.4-3.5-7.3c-0.1-1.5-0.1-3-0.1-4.5&#10;&#9;&#9;&#9;&#9;&#9;&#9;c-0.2-3.5-0.2-7.1-0.5-10.6c-0.8-9.1-1.8-18.2-2-27.3c-0.1-7.4-1.1-14.9-1.6-22.3C488.6,499.5,488.7,496.7,488.7,493.6z&#10;&#9;&#9;&#9;&#9;&#9;&#9; M503.1,518.4c0.5,0.4,0.9,0.9,1.4,1.1c8.7,3.4,17.2,7.2,26.2,9.5c2.5,0.6,5.1,1.1,7.5,2.1c5.9,2.2,12.1,2,18.2,1.9&#10;&#9;&#9;&#9;&#9;&#9;&#9;c0.7,0,1.5-0.3,2-0.7c0.3-0.3,0.6-1,0.5-1.4c-0.1-0.4-0.6-1.1-1-1.1c-2.6-0.1-5.2,0.1-7.8-0.2c-3.7-0.5-7.3-1.4-11-2.1&#10;&#9;&#9;&#9;&#9;&#9;&#9;c-10.2-1.8-19.9-4.9-28.9-10c-2.2-1.3-4.2-1.1-6.4-0.3C503.6,517.2,503.5,517.9,503.1,518.4z M528.9,535.5&#10;&#9;&#9;&#9;&#9;&#9;&#9;c0.1,0.1,0.2,0.3,0.4,0.4c0.8,0.4,1.7,0.7,2.5,1.2c6.5,3.7,13.6,4.8,20.9,4.8c1.3,0,2.5-0.3,3.8-0.7c0.8-0.2,1.3-1,0.9-1.7&#10;&#9;&#9;&#9;&#9;&#9;&#9;c-0.3-0.6-1-1.3-1.6-1.3c-1.6-0.1-3.4,0.2-5,0c-6.8-1-13.7-1.4-19.9-4.7C529.6,532.8,529.2,533.3,528.9,535.5z M542.7,546.1&#10;&#9;&#9;&#9;&#9;&#9;&#9;c2.8,1.7,6.1,2.3,9.3,2.6c1.6,0.2,3.3-0.1,5-0.2c1-0.1,1.9-0.6,1.6-1.7c-0.1-0.5-0.9-1-1.5-1.2c-0.5-0.2-1.1-0.1-1.7,0&#10;&#9;&#9;&#9;&#9;&#9;&#9;c-2.6,0.1-5.2-0.2-7.7-1.2c-0.9-0.3-1.8-0.6-2.7-0.7C543.4,543.3,542.7,544.2,542.7,546.1z"/>
					<path fill-rule="evenodd" clip-rule="evenodd" fill="#DDB38A" d="M570.6,592.1c-0.2-0.7-0.5-1.3-0.5-1.8&#10;&#9;&#9;&#9;&#9;&#9;&#9;c-0.1-15.9,0.1-31.7-0.5-47.6c-0.4-10.8,0.8-21.6,1.3-32.1c0.5-0.6,0.7-1,1-1.1c3.9-1.1,7.2-2.7,6.3-7.5&#10;&#9;&#9;&#9;&#9;&#9;&#9;c2.7-1.1,4.9-0.8,7.1-0.7c9.4,0.3,18.6-1,27.8-2.4c4.9-0.7,9.7-2.6,15.7-4.3c-1.1,0-0.9-0.1-0.8,0c0.8,0.7,1.7,1.4,2.7,2.3&#10;&#9;&#9;&#9;&#9;&#9;&#9;c-2.3,13.6-4.8,27.2-7,40.8c-2.2,13.6-4,27.2-6,40.6c-10.6,6.5-21.7,10.8-33.6,12.5C579.7,591.6,575.2,593.8,570.6,592.1z&#10;&#9;&#9;&#9;&#9;&#9;&#9; M574,530.6c0.8,0.2,1.7,0.5,2.5,0.5c2.8,0,5.6,0,8.4-0.2c7.9-0.6,15.4-2.8,23-4.5c1.4-0.3,2.9-0.8,4.2-1.5&#10;&#9;&#9;&#9;&#9;&#9;&#9;c1.2-0.7,1.1-1.8-0.2-2.9c-3.6,1-7.4,2.1-11.1,3.2c-4.1,1.1-8.3,2-12.6,2.3c-4.3,0.2-8.5,0.7-12.8,1.1&#10;&#9;&#9;&#9;&#9;&#9;&#9;C574.4,528.6,573.7,529.1,574,530.6z M578.3,539.3c0,0.1,0,0.2,0,0.3c4.8-0.7,9.6-1.3,14.3-2c0.8-0.1,1.6-0.7,2.4-1.2&#10;&#9;&#9;&#9;&#9;&#9;&#9;c0.2-0.2,0.4-0.7,0.3-1c-0.2-0.4-0.6-1.1-1-1.1c-0.9-0.2-1.8-0.1-2.8,0c-5.7,0.7-11.3,2.3-17.1,1.6c-0.5-0.1-1.2,0.8-1.5,1.4&#10;&#9;&#9;&#9;&#9;&#9;&#9;c-0.4,0.7,0.5,2,1.4,2C575.7,539.4,577,539.3,578.3,539.3z M578.6,546.7c0.4-0.1,1.9-0.3,3.3-0.7c0.4-0.1,0.8-0.9,0.7-1.3&#10;&#9;&#9;&#9;&#9;&#9;&#9;c0-0.4-0.6-1.1-1-1.1c-1.4-0.1-2.9-0.1-4.4-0.1c-1.3,0-2.6,0-3,1.7C574,546.3,575.3,546.9,578.6,546.7z"/>
					<path fill-rule="evenodd" clip-rule="evenodd" fill="#DDB38A" d="M486,563.1c-3.1-5.7-2.6-11.8-3.5-17.6c-0.6-4-1-8.1-1.2-12.2&#10;&#9;&#9;&#9;&#9;&#9;&#9;c-0.7-10.2-2-20.4-2.6-30.6c-0.4-7.6-0.6-15.3-0.8-22.9c0-0.7,0.1-1.3,0.3-2.7c1.3,1,2.1,1.7,3.1,2.5c-0.8,2.9-1.4,5.8,0.7,8.4&#10;&#9;&#9;&#9;&#9;&#9;&#9;c0.3,0.4,0.4,1.1,0.2,1.6c-1.6,4.4-0.3,8.9-0.2,13.3c0.4,11.5,1.1,23.1,1.8,34.6c0.3,4.3,0.9,8.5,1.3,12.8&#10;&#9;&#9;&#9;&#9;&#9;&#9;C485.5,554.6,485.8,558.8,486,563.1z"/>
					<path fill-rule="evenodd" clip-rule="evenodd" fill="#DDB38A" d="M641.4,486.2c-0.4,15.2-2.5,30.1-6.1,44.8&#10;&#9;&#9;&#9;&#9;&#9;&#9;c-0.8,3.2-1.1,6.6-1.7,9.9c-0.8,4.6-1.8,9.1-2.7,13.7c-0.9,5-1.7,9.9-2.6,14.9c-0.3,1.8-0.8,3.5-1.2,5.2c-1.5,0-1.4-1-1.3-1.5&#10;&#9;&#9;&#9;&#9;&#9;&#9;c1.3-12.4,2.3-24.9,5.9-37c1.6-5.3,2.2-10.9,3.2-16.4c1.3-7.9,2.6-15.8,3.8-23.8c0.1-0.5,0.2-1.1,0.4-1.6&#10;&#9;&#9;&#9;&#9;&#9;&#9;c0.6-1.3,1.5-2.6,1.8-4C641.5,489.1,641.4,487.6,641.4,486.2z"/>
				</g>
				<g>
					<path fill-rule="evenodd" clip-rule="evenodd" fill="#B4B4B4" d="M566.8,605.6c-1.9-2.5-1.9-4.2-1.9-5.8&#10;&#9;&#9;&#9;&#9;&#9;&#9;c-0.1-6.3-0.4-12.7-0.4-19c0-12.1,0.2-24.2,0.3-36.3c0-11,0-22-0.1-33c0-0.2,0-0.4,0-0.6c0-3.2,1-5.5,2.3-4.9&#10;&#9;&#9;&#9;&#9;&#9;&#9;c2.1,0.9,1.8,3,1.8,4.8c0,2.6,0.1,5.2,0,7.8c-0.4,7.3-1.1,14.5-1.3,21.7c-0.2,5.6,0.2,11.2,0.3,16.7c0.1,6.5,0.2,13,0.1,19.6&#10;&#9;&#9;&#9;&#9;&#9;&#9;c-0.1,5-0.5,10-0.2,15C567.8,595.8,567.2,600.1,566.8,605.6z"/>
					<path fill-rule="evenodd" clip-rule="evenodd" fill="#B4B4B4" d="M619.8,583.8c0.7-6.3,1.3-11.6,2-16.9&#10;&#9;&#9;&#9;&#9;&#9;&#9;c0.8-6.3,1.7-12.6,2.7-18.8c1.4-8.3,3-16.5,4.4-24.8c0.8-4.4,1.3-8.8,2-13.2c0.7-4,1.4-8.1,2.2-12.1c0.2-1,0.8-2,1.2-2.8&#10;&#9;&#9;&#9;&#9;&#9;&#9;c2-0.2,2.4,0.8,2.3,2c-0.5,3.7-1.1,7.4-1.7,11c-0.7,4-1.2,8.1-2,12.1c-1.3,6.6-2.8,13.1-4.3,19.6c-0.6,2.9-1.5,5.8-1.9,8.7&#10;&#9;&#9;&#9;&#9;&#9;&#9;c-1.2,9.2-2.2,18.5-3.4,27.7c-0.2,1.8-0.7,3.7-1.2,5.4C621.8,582.4,621.1,582.7,619.8,583.8z"/>
					<path fill-rule="evenodd" clip-rule="evenodd" fill="#B4B4B4" d="M491.1,578.2c-2.7-10.6-2.7-21.1-3.9-31.4&#10;&#9;&#9;&#9;&#9;&#9;&#9;c-1.7-14.7-1.3-29.4-2.5-44.1c-0.2-2.4-0.5-4.8-0.5-7.2c0.1-2.2,0.6-4.4,1-6.6c0.1-0.6,0.8-1,1.9-2.3c-0.1,2.4-0.1,3.8-0.3,5.2&#10;&#9;&#9;&#9;&#9;&#9;&#9;c-0.4,3.5-0.6,7-0.1,10.6c0.4,3.1,0.2,6.3,0.5,9.5c0.9,8,1.1,16,1.3,24c0.1,3.3,0.7,6.7,1,10c0.5,5,1.1,10,1.5,15&#10;&#9;&#9;&#9;&#9;&#9;&#9;c0.4,5.5,0.6,11.1,0.9,16.6C491.9,577.6,491.6,577.7,491.1,578.2z"/>
				</g>
				<g>
					<path fill-rule="evenodd" clip-rule="evenodd" fill="#B4B4B4" d="M491.1,485.4c-2.3-0.4-4.5-0.8-7.2-1.3&#10;&#9;&#9;&#9;&#9;&#9;&#9;c0.4-1.5,0.8-3.3,1.3-5.3c-1-0.9-2-1.9-3.1-2.9c-4.9-4.3-7.6-9.5-7.4-16.2c0.1-4.5,0-8.9,0-13.4c1.7-0.3,1.5,1,1.8,1.6&#10;&#9;&#9;&#9;&#9;&#9;&#9;c1.2,2.5,2.2,5.2,3.5,7.6c3.8,6.7,9.9,10.6,16.7,13.4c5.8,2.5,11.9,4.5,17.8,6.8c6.5,2.5,13.4,3.4,20.1,4.7&#10;&#9;&#9;&#9;&#9;&#9;&#9;c13.7,2.8,27.5,2.6,41.3,2.1c5.4-0.2,10.8-0.9,16.2-1.4c1.1-0.1,2.2-0.3,3.3-0.3c14.5,0.3,27.3-5.1,39.7-12&#10;&#9;&#9;&#9;&#9;&#9;&#9;c4.1-2.3,6.9-5.7,8.6-10.8c0.8,6,0.6,11.3,0.3,16.6c-0.2,3.6-2.4,6.6-5.7,8.7c0.1,2.7,0.6,5.4-1.1,7.9&#10;&#9;&#9;&#9;&#9;&#9;&#9;c-1.5,0.3-3.3,0.7-5.3,1.1c-0.1-0.6-0.3-1.3-0.5-2c-0.3-1.1-1.2-1.4-2.2-1.1c-0.7,0.2-1.4,0.6-1.9,1.1c-2.1,2-4.7,2.8-7.5,3.6&#10;&#9;&#9;&#9;&#9;&#9;&#9;c-10.3,2.9-20.9,3.7-31.5,4.2c-3.2,0.1-6.4,0-9.5,0.1c-2.6,0.1-3.5,1.1-4,3.7c-0.1,0.5,0,1.1-0.1,1.7c-0.1,0.5-0.3,1.1-0.5,1.8&#10;&#9;&#9;&#9;&#9;&#9;&#9;c-0.6,0.2-1.2,0.5-1.9,0.8c-0.5,0.2-1.1,0.2-1.6,0.3c-2.5-3.7-3.7-4.2-8.5-1.3c-0.1-0.8-0.2-1.5-0.3-2.2&#10;&#9;&#9;&#9;&#9;&#9;&#9;c-0.3-3.1-1.4-4.4-4.3-4.6c-2.8-0.2-5.6-0.2-8.4-0.2c-5.5,0.1-10.8-0.8-16-2.1c-5.8-1.5-11.7-2.5-17.4-4.2&#10;&#9;&#9;&#9;&#9;&#9;&#9;c-7.2-2-14.2-4.5-20.6-8.7c-2.1-1.4-2.9-0.9-4.4,2.1L491.1,485.4z"/>
					<path fill-rule="evenodd" clip-rule="evenodd" fill="#B4B4B4" d="M562.1,596.1c0.8,3.6,0.7,6.9,0.1,10.5&#10;&#9;&#9;&#9;&#9;&#9;&#9;c-1.1,0.1-2.2,0.2-3.2,0.3c-6.9,0.4-13.7-0.4-20.6-1.8c-9.1-2-18.1-4.5-26.8-7.9c-4.6-1.8-8.6-4.5-12.1-7.9&#10;&#9;&#9;&#9;&#9;&#9;&#9;c-0.8-0.7-1.5-1.8-1.7-2.8c-0.4-2.4-0.8-4.7-2.6-6.7c-0.2-0.3,0.1-1,0.1-1.9c1.4,1,2.6,1.8,3.9,2.6c4.4,2.8,8.8,5.6,13.3,8.2&#10;&#9;&#9;&#9;&#9;&#9;&#9;c2.6,1.5,5.3,2.7,8.4,2.9c0.7,0,1.5,0.3,2.2,0.5c8.6,2.8,17.6,2.9,26.5,3.8c1.8,0.2,3.7-0.1,5.6-0.1&#10;&#9;&#9;&#9;&#9;&#9;&#9;C557.5,595.9,559.7,596,562.1,596.1z"/>
					<path fill-rule="evenodd" clip-rule="evenodd" fill="#B4B4B4" d="M617.2,583.2c0.9,4.2-1.7,7-1.5,10.1&#10;&#9;&#9;&#9;&#9;&#9;&#9;c-8.4,5-17.2,7.7-26.4,9.2c-5.9,1-11.7,2-17.6,3c-0.5,0.1-1,0-1.9-0.1c0.2-3.1,0.3-6,0.5-9.1c5.4-0.8,10.7-1.3,16-2.3&#10;&#9;&#9;&#9;&#9;&#9;&#9;c5.3-1.1,10.6-2.4,15.7-4.2C606.9,588.1,611.7,585.6,617.2,583.2z"/>
					<path fill-rule="evenodd" clip-rule="evenodd" fill="#B4B4B4" d="M488,582.2c-2.7-1.1-4.2-2.8-5.2-5c-0.8-1.8-1.2-7.2-0.8-10.2&#10;&#9;&#9;&#9;&#9;&#9;&#9;c0.2,0,0.4,0,0.5,0.1c1.5,1.4,3,2.7,4.7,4.3C487.2,574.8,489.2,578.2,488,582.2z"/>
					<path fill-rule="evenodd" clip-rule="evenodd" fill="#B4B4B4" d="M625.6,579.3c1.4-0.2,2.4-0.3,3.8-0.5&#10;&#9;&#9;&#9;&#9;&#9;&#9;c0.7,3.6-0.3,6.3-2.6,9.1c-1-1.5-1.8-2.7-2.7-4C624.5,582.4,625,581,625.6,579.3z"/>
				</g>
				<g>
					<path fill-rule="evenodd" clip-rule="evenodd" fill="#010101" d="M493.7,583.7c1.3,2.3,1.3,4.5,1,6.7c-0.1,0.7-1,1.8-1.6,1.8&#10;&#9;&#9;&#9;&#9;&#9;&#9;c-0.7,0.1-1.7-0.7-2.1-1.3c-1-1.6-1.1-3.4-0.5-5.3C490.9,584.1,492,583.6,493.7,583.7z"/>
					<path fill-rule="evenodd" clip-rule="evenodd" fill="#010101" d="M569.1,610.5c-0.2,2.9-2.8,4.5-4.9,3.6&#10;&#9;&#9;&#9;&#9;&#9;&#9;c-1.4-0.6-1.8-2.7-0.8-4.4c0.7-1.3,3.1-2.2,4.3-1.4C568.5,608.8,568.8,610,569.1,610.5z"/>
					<path fill-rule="evenodd" clip-rule="evenodd" fill="#010101" d="M624.1,590.8c-0.6,1.3-0.8,2.4-1.5,3.2&#10;&#9;&#9;&#9;&#9;&#9;&#9;c-0.3,0.4-1.5,0.7-1.9,0.5c-0.6-0.5-1.1-1.4-1.2-2.1c-0.1-0.6,0.7-1.2,1-1.8c0.6-1.1-0.7-3.2,1.7-3.4&#10;&#9;&#9;&#9;&#9;&#9;&#9;C622.8,588.3,623.5,589.6,624.1,590.8z"/>
				</g>
				<path fill-rule="evenodd" clip-rule="evenodd" fill="#FFFFFF" d="M491,485.5c0,1,0.9,2.1-0.7,3.2&#10;&#9;&#9;&#9;&#9;&#9;C490.6,487.4,490.9,486.4,491,485.5C491.1,485.4,491,485.5,491,485.5z"/>
				<g>
					<path fill-rule="evenodd" clip-rule="evenodd" fill="#603A17" d="M503.1,518.4c0.3-0.5,0.5-1.2,0.9-1.3&#10;&#9;&#9;&#9;&#9;&#9;&#9;c2.1-0.8,4.1-0.9,6.4,0.3c9,5.1,18.7,8.2,28.9,10c3.7,0.6,7.3,1.6,11,2.1c2.6,0.3,5.2,0.1,7.8,0.2c0.4,0,0.9,0.7,1,1.1&#10;&#9;&#9;&#9;&#9;&#9;&#9;c0.1,0.5-0.1,1.2-0.5,1.4c-0.6,0.4-1.3,0.7-2,0.7c-6.2,0.1-12.3,0.3-18.2-1.9c-2.4-0.9-5-1.4-7.5-2.1&#10;&#9;&#9;&#9;&#9;&#9;&#9;c-9.1-2.3-17.6-6.1-26.2-9.5C504,519.3,503.6,518.9,503.1,518.4z"/>
					<path fill-rule="evenodd" clip-rule="evenodd" fill="#603A17" d="M528.9,535.5c0.3-2.3,0.7-2.8,2-2.1&#10;&#9;&#9;&#9;&#9;&#9;&#9;c6.2,3.3,13.2,3.7,19.9,4.7c1.6,0.3,3.3-0.1,5,0c0.6,0.1,1.3,0.8,1.6,1.3c0.4,0.8-0.2,1.5-0.9,1.7c-1.2,0.3-2.5,0.6-3.8,0.7&#10;&#9;&#9;&#9;&#9;&#9;&#9;c-7.3,0-14.4-1-20.9-4.8c-0.8-0.5-1.7-0.8-2.5-1.2C529.1,535.9,529,535.7,528.9,535.5z"/>
					<path fill-rule="evenodd" clip-rule="evenodd" fill="#603A17" d="M542.7,546.1c0-1.9,0.8-2.7,2.4-2.5c0.9,0.1,1.8,0.4,2.7,0.7&#10;&#9;&#9;&#9;&#9;&#9;&#9;c2.5,1,5,1.3,7.7,1.2c0.6,0,1.2-0.2,1.7,0c0.6,0.3,1.4,0.7,1.5,1.2c0.3,1.1-0.7,1.6-1.6,1.7c-1.7,0.2-3.4,0.4-5,0.2&#10;&#9;&#9;&#9;&#9;&#9;&#9;C548.7,548.4,545.5,547.8,542.7,546.1z"/>
					<path fill-rule="evenodd" clip-rule="evenodd" fill="#603A17" d="M574,530.6c-0.3-1.4,0.4-2,1.4-2.1c4.3-0.4,8.5-0.9,12.8-1.1&#10;&#9;&#9;&#9;&#9;&#9;&#9;c4.3-0.2,8.5-1.1,12.6-2.3c3.8-1,7.5-2.1,11.1-3.2c1.2,1.1,1.3,2.2,0.2,2.9c-1.3,0.7-2.7,1.2-4.2,1.5c-7.6,1.7-15.2,4-23,4.5&#10;&#9;&#9;&#9;&#9;&#9;&#9;c-2.8,0.2-5.6,0.2-8.4,0.2C575.7,531.1,574.8,530.7,574,530.6z"/>
					<path fill-rule="evenodd" clip-rule="evenodd" fill="#603A17" d="M578.3,539.3c-1.3,0-2.6,0.1-3.9,0c-0.9-0.1-1.8-1.3-1.4-2&#10;&#9;&#9;&#9;&#9;&#9;&#9;c0.3-0.6,1-1.4,1.5-1.4c5.8,0.7,11.5-0.9,17.1-1.6c0.9-0.1,1.9-0.2,2.8,0c0.4,0.1,0.8,0.7,1,1.1c0.1,0.2-0.1,0.8-0.3,1&#10;&#9;&#9;&#9;&#9;&#9;&#9;c-0.7,0.5-1.5,1.1-2.4,1.2c-4.8,0.7-9.6,1.4-14.3,2C578.3,539.5,578.3,539.4,578.3,539.3z"/>
					<path fill-rule="evenodd" clip-rule="evenodd" fill="#603A17" d="M578.6,546.7c-3.4,0.2-4.6-0.4-4.4-1.5c0.4-1.6,1.7-1.7,3-1.7&#10;&#9;&#9;&#9;&#9;&#9;&#9;c1.5,0,2.9-0.1,4.4,0.1c0.4,0,0.9,0.7,1,1.1c0,0.4-0.4,1.2-0.7,1.3C580.5,546.4,579.1,546.6,578.6,546.7z"/>
				</g>
			</g><path fill-rule="evenodd" clip-rule="evenodd" fill="#24160D" d="M737.1,609.5c-2.8-0.6-5.6-1-8.4-1.5c-10-1.7-20-3.7-29-8.3&#10;&#9;&#9;&#9;&#9;&#9;c-1-0.5-2.3-0.9-3.4-1.1c-1.1-0.2-2.4-0.4-3.5-0.2c-4.6,0.6-6.2-0.2-8-4c-0.5-1-0.9-2.1-1.7-2.8c-2.7-2.3-4.4-5.1-4.9-8.2&#10;&#9;&#9;&#9;&#9;&#9;c-0.5-3-1.3-6.3,1.1-9.1c0.4-0.5,0.2-1.4,0.1-2.1c-0.8-4.8-1.6-9.6-2.3-14.4c-1.2-7.4-2.2-14.8-3.5-22.1&#10;&#9;&#9;&#9;&#9;&#9;c-1.3-7.2-3.1-14.3-4.4-21.5c-1.1-5.9-2.2-11.8-2-17.8c0-1.1-0.1-2.2-0.3-3.3c-0.7-4-1.7-8.1-1.3-12.2c0.1-0.7-0.1-1.6-0.5-2.1&#10;&#9;&#9;&#9;&#9;&#9;c-1.3-1.7-1-3.5-0.8-5.4c0.2-1.7,0.2-3.4,0.3-5c0.4-4.5,0.8-8.9,1.3-13.4c0.1-1.1,0.6-2.2,1.3-3c1.4-1.5,1.9-3.2,2.5-5&#10;&#9;&#9;&#9;&#9;&#9;c2.2-6.6,6.1-12.2,13.6-14.8c4.9-1.7,10-3.2,15-4.6c9.5-2.8,19.3-4.6,29.1-6.1c10.8-1.7,21.7-3.3,32.7-2.8&#10;&#9;&#9;&#9;&#9;&#9;c0.8,0,1.6-0.2,2.4-0.2c8.3,0.1,16.7-0.1,25,0.4c6.9,0.4,13.7,1.8,20.5,2.6c5.9,0.7,11.7,1.5,17.3,3.2&#10;&#9;&#9;&#9;&#9;&#9;c5.2,1.6,10.4,3.2,15.5,5.2c3.8,1.5,6.3,4,8.1,7.2c0.8,1.5,1.2,3.2,2,4.7c0.6,1.2,1.1,2.6,2.2,3.2c3,1.9,3.1,4.8,3.1,7.5&#10;&#9;&#9;&#9;&#9;&#9;c0.1,4.3-0.2,8.6-0.2,12.9c0,3-0.2,5.9-1.8,8.7c-0.4,0.8-0.5,1.8-0.6,2.7c-0.6,8.4-1.1,16.8-1.8,25.1c-0.3,3.5-0.8,7-1.2,10.6&#10;&#9;&#9;&#9;&#9;&#9;c-0.6,5-1.2,10-1.8,15c-0.6,5-1.3,10-1.8,15c-0.8,6.5-1.5,13-2.2,19.5c-0.2,2.1-0.1,4.1,0.9,6c1.4,2.5,1.2,5,0.7,7.7&#10;&#9;&#9;&#9;&#9;&#9;c-0.6,2.7-1,5.5-1.4,7.6c-2.9,2.8-5.4,5.2-7.9,7.6c-0.4,1.6-0.6,3.4-1.3,4.9c-1.9,3.9-5.6,4.6-9.4,2.1c-0.6-0.4-1.1-0.9-1.8-1.5&#10;&#9;&#9;&#9;&#9;&#9;c-5.7,4.5-12,7.3-19.1,8.9c-5.5,1.3-11,2.6-16.5,4c-8.8,2.3-17.8,3.6-27.1,3.5c-1.6,0-3.2,0.3-4.5,0.4c-0.8,1.7-1.2,3.2-2.1,4.3&#10;&#9;&#9;&#9;&#9;&#9;c-0.6,0.8-1.8,1.6-2.9,1.8c-3.9,0.8-7.3-1.1-8.6-4.5c-0.4-1-0.7-2.1-1.1-3.6C740.9,610.5,739.1,609.9,737.1,609.5z M842.4,488.1&#10;&#9;&#9;&#9;&#9;&#9;c-0.4-1.6-0.8-3.3-1.3-5.3c1.1-0.9,2.2-1.9,3.4-2.8c5.4-4.2,8.5-9.4,8.4-16c-0.1-4.5,0.2-8.9,0.3-13.4c-1.8-0.4-1.6,0.9-2,1.6&#10;&#9;&#9;&#9;&#9;&#9;c-1.4,2.5-2.5,5.1-4,7.5c-4.3,6.6-11.1,10.3-18.5,13c-6.4,2.3-13,4.2-19.5,6.4c-7.1,2.4-14.7,3-22.1,4.3&#10;&#9;&#9;&#9;&#9;&#9;c-15,2.4-30,1.9-45.1,1.1c-5.9-0.3-11.7-1.2-17.6-1.8c-1.2-0.1-2.4-0.4-3.6-0.4c-15.9,0-29.7-5.7-43-12.9&#10;&#9;&#9;&#9;&#9;&#9;c-4.4-2.4-7.4-5.8-9.1-11c-1,6-0.9,11.3-0.7,16.6c0.1,3.6,2.5,6.7,6,8.8c-0.2,2.7-0.8,5.3,1,8c1.6,0.4,3.5,0.8,5.7,1.3&#10;&#9;&#9;&#9;&#9;&#9;c0.2-0.6,0.3-1.3,0.6-2c0.4-1.1,1.3-1.4,2.4-1.1c0.7,0.2,1.5,0.6,2.1,1.1c2.3,2.1,5.1,3,8.1,3.8c11.2,3.2,22.7,4.2,34.3,5&#10;&#9;&#9;&#9;&#9;&#9;c3.5,0.2,6.9,0.2,10.4,0.3c2.8,0.1,3.8,1.1,4.2,3.8c0.1,0.6,0,1.1,0,1.7c0.1,0.5,0.3,1.1,0.5,1.8c0.6,0.2,1.3,0.6,2.1,0.8&#10;&#9;&#9;&#9;&#9;&#9;c0.6,0.2,1.2,0.3,1.8,0.4c2.8-3.6,4.1-4.1,9.3-1.1c0.1-0.8,0.3-1.5,0.4-2.2c0.4-3.1,1.6-4.4,4.8-4.5c3-0.1,6.1-0.1,9.2,0&#10;&#9;&#9;&#9;&#9;&#9;c6,0.2,11.8-0.5,17.5-1.7c6.3-1.3,12.8-2.3,19-3.7c7.9-1.9,15.6-4.2,22.6-8.2c2.3-1.3,3.2-0.8,4.8,2.2c0,1-1,2.1,0.7,3.3&#10;&#9;&#9;&#9;&#9;&#9;c-0.3-1.3-0.5-2.3-0.7-3.3C837,488.9,839.5,488.6,842.4,488.1z M830.2,491.4c-5.6,1.9-11.2,4-17,5.6c-5.6,1.6-11.4,2.9-17.1,4&#10;&#9;&#9;&#9;&#9;&#9;c-6,1.1-12,2-18.1,2.5c-5.8,0.5-11.7,0.5-17.7,0.7c-0.5,3.3-0.5,6.3-3.5,8.4c-0.7,0.5-0.9,2-0.9,3.1c-0.1,3.5-0.1,7.1-0.1,10.6&#10;&#9;&#9;&#9;&#9;&#9;c-0.1,4.1-0.2,8.2-0.2,12.3c-0.1,6.4-0.2,12.7-0.3,19.1c-0.1,8.4-0.2,16.8-0.3,25.2c0,3.5,0,7.1,0,10.8c1.4,0.3,2.5,0.8,3.6,0.8&#10;&#9;&#9;&#9;&#9;&#9;c6.3,0.2,12.6,0.5,19,0.3c4.2-0.1,8.5-0.9,12.7-1.5c2.8-0.4,5.6-1.2,8.4-1.5c3.9-0.4,7.5-1.6,10.9-3.4c6-3.1,11.9-6.4,17.3-10.5&#10;&#9;&#9;&#9;&#9;&#9;c2.6-2,3.7-4.3,3.9-7.2c0.1-1.5,0.1-3,0.2-4.5c0.2-3.5,0.4-7.1,0.8-10.6c1-9.1,2.4-18.1,2.8-27.3c0.3-7.4,1.5-14.8,2.2-22.3&#10;&#9;&#9;&#9;&#9;&#9;c0.3-2.8,0.2-5.6,0.2-8.6C832.3,495,832.3,495,830.2,491.4z M786.9,463.6c2.8-0.4,5.7-0.3,8.5-0.7c12.8-1.9,24.7-6.1,35.4-12.8&#10;&#9;&#9;&#9;&#9;&#9;c3.6-2.2,6.6-5,9-8.3c3.9-5.3,3.4-8.5-3.5-10.6c-4.6-1.4-9.2-3.1-13.9-4.3c-2.9-0.8-6-1.1-9-1.5c-6.2-0.8-12.6-1.3-18.7-2.5&#10;&#9;&#9;&#9;&#9;&#9;c-7.5-1.4-15-1.7-22.5-1.7c-9,0-17.9,0.3-26.9,0.6c-2.8,0.1-5.7,0.4-8.5,1c-10.5,2.1-21.3,3-31.7,5.9c-3.5,1-7,2-10.5,3&#10;&#9;&#9;&#9;&#9;&#9;c-2.7,0.8-5.4,1.7-8.1,2.4c-2.4,0.7-4.4,1.7-6.2,3.4c-3.3,3-3.7,6.1-0.8,9.4c3,3.4,6.7,6,10.8,8.2c10.7,5.4,21.9,8.9,34.2,9.5&#10;&#9;&#9;&#9;&#9;&#9;c4.9,0.2,9.8,0.6,15.1,0.9C755.4,467.2,771.1,465.6,786.9,463.6z M746.2,592.3c0.5-15.8,0.6-31.7,1.5-47.5&#10;&#9;&#9;&#9;&#9;&#9;c0.6-10.8-0.4-21.6-0.7-32.1c-0.6-0.6-0.8-1-1.1-1.1c-4.2-1.2-7.8-2.8-6.7-7.6c-2.9-1.1-5.4-0.9-7.7-0.9&#10;&#9;&#9;&#9;&#9;&#9;c-10.2,0.1-20.3-1.5-30.3-3.1c-5.4-0.9-10.5-2.8-17-4.7c1.2,0,1-0.1,0.9,0c-0.9,0.7-1.8,1.4-3,2.3c2.3,13.7,4.6,27.3,6.7,40.9&#10;&#9;&#9;&#9;&#9;&#9;c2.1,13.6,3.8,27.3,5.6,40.8c11.5,6.8,23.5,11.3,36.4,13.3c4.9,0.7,9.7,3.1,14.9,1.4C745.8,593.3,746.1,592.8,746.2,592.3z&#10;&#9;&#9;&#9;&#9;&#9; M843.6,441.4c-2.6,4.8-6.7,8.5-11.5,11.4c-12.6,7.5-26.3,12.3-41.5,13.4c-6.1,0.4-12.1,1.3-18.2,2c-12.6,1.6-25.2,1.2-37.8,0&#10;&#9;&#9;&#9;&#9;&#9;c-3-0.3-6.1-0.6-9.1-0.6c-15.3-0.4-29.1-5-41.8-12.7c-3.6-2.2-6.8-4.8-8.2-8.7c-0.1-0.3-0.6-0.4-0.9-0.7c-2,2.4-2.9,3.9-2,5.7&#10;&#9;&#9;&#9;&#9;&#9;c0.9,1.8,0.8,3.2,0.1,4.8c-1.1,2.2-0.3,4.2,1.2,5.7c1.9,1.9,4,3.8,6.4,5.2c9,5.3,18.9,8.8,29.2,11.3c2.9,0.7,6.1,0.7,9.1,1&#10;&#9;&#9;&#9;&#9;&#9;c6.9,0.6,13.8,1.2,20.7,1.7c4.7,0.4,9.4,0.7,14,0.8c12.4,0.3,24.8-0.5,37.1-2.1c14.1-1.8,27.1-6.7,40.2-11.2&#10;&#9;&#9;&#9;&#9;&#9;c9.4-3.2,15-10.1,17.7-18.8c1.1-3.6,0.2-7.3-2.6-11.3C844.6,439.9,844.1,440.6,843.6,441.4z M754.4,608.8&#10;&#9;&#9;&#9;&#9;&#9;c1.2,0.1,2.4,0.3,3.5,0.3c7.6,0.5,15,0,22.5-1.3c10-1.7,19.8-4,29.4-7.2c5-1.7,9.5-4.3,13.4-7.6c0.8-0.7,1.6-1.7,1.9-2.7&#10;&#9;&#9;&#9;&#9;&#9;c0.5-2.4,1-4.7,3-6.6c0.3-0.3,0-1-0.1-1.9c-1.6,0.9-2.9,1.7-4.3,2.5c-4.9,2.7-9.7,5.4-14.7,7.9c-2.8,1.5-5.9,2.6-9.2,2.7&#10;&#9;&#9;&#9;&#9;&#9;c-0.8,0-1.6,0.3-2.4,0.5c-9.5,2.6-19.3,2.5-29,3.1c-2,0.1-4.1-0.2-6.1-0.2c-2.4,0-4.8,0.1-7.4,0.1&#10;&#9;&#9;&#9;&#9;&#9;C753.8,601.9,753.8,605.2,754.4,608.8z M696.3,594.2c9,5.2,18.6,8.1,28.6,9.9c6.4,1.1,12.8,2.3,19.2,3.4c0.5,0.1,1.1,0,2,0&#10;&#9;&#9;&#9;&#9;&#9;c-0.1-3.1-0.2-6-0.3-9.1c-5.9-0.9-11.7-1.5-17.4-2.7c-5.7-1.2-11.5-2.6-17-4.5c-5.5-1.9-10.6-4.5-16.6-7&#10;&#9;&#9;&#9;&#9;&#9;C693.8,588.2,696.5,591.1,696.3,594.2z M751.5,601.9c0.3-6.3,0.7-12.7,0.8-19c0.3-12.1,0.3-24.2,0.5-36.3c0.2-11,0.5-22,0.8-33&#10;&#9;&#9;&#9;&#9;&#9;c0-0.2,0-0.4,0-0.6c0.1-3.2-1-5.5-2.4-5c-2.3,0.9-2,3-2.1,4.8c-0.1,2.6-0.2,5.2-0.1,7.8c0.3,7.3,0.9,14.5,1,21.8&#10;&#9;&#9;&#9;&#9;&#9;c0.1,5.6-0.5,11.1-0.6,16.7c-0.2,6.5-0.5,13-0.5,19.6c0,5,0.4,10-0.1,15c-0.4,4.2,0.2,8.5,0.5,14&#10;&#9;&#9;&#9;&#9;&#9;C751.4,605.2,751.5,603.5,751.5,601.9z M690.2,567.7c-0.8-6.3-1.6-12.6-2.6-18.9c-1.3-8.3-2.9-16.6-4.2-24.8&#10;&#9;&#9;&#9;&#9;&#9;c-0.7-4.4-1.2-8.9-1.9-13.3c-0.6-4.1-1.4-8.1-2.2-12.1c-0.2-1-0.8-2-1.2-2.8c-2.2-0.3-2.6,0.8-2.5,1.9c0.4,3.7,1,7.4,1.6,11.1&#10;&#9;&#9;&#9;&#9;&#9;c0.6,4,1.1,8.1,1.9,12.1c1.3,6.6,2.8,13.1,4.2,19.7c0.6,2.9,1.6,5.8,1.9,8.7c1.1,9.3,2,18.5,3.1,27.8c0.2,1.8,0.7,3.7,1.2,5.5&#10;&#9;&#9;&#9;&#9;&#9;c0.2,0.5,1,0.9,2.3,2C691.3,578.4,690.9,573,690.2,567.7z M842.6,549.6c0.7-4,1.2-8.1,1.6-12.2c0.9-10.2,2.6-20.3,3.5-30.6&#10;&#9;&#9;&#9;&#9;&#9;c0.6-7.6,1-15.2,1.4-22.9c0-0.7-0.1-1.3-0.3-2.7c-1.4,1-2.3,1.6-3.4,2.4c0.8,2.9,1.4,5.8-1,8.4c-0.3,0.4-0.4,1.1-0.3,1.6&#10;&#9;&#9;&#9;&#9;&#9;c1.6,4.5,0.2,8.9-0.1,13.3c-0.7,11.5-1.7,23.1-2.7,34.6c-0.4,4.3-1.2,8.5-1.7,12.8c-0.5,4.2-0.8,8.5-1.2,12.8&#10;&#9;&#9;&#9;&#9;&#9;C841.9,561.5,841.5,555.4,842.6,549.6z M676.2,531.5c0.8,3.3,1,6.6,1.6,9.9c0.8,4.6,1.8,9.2,2.6,13.8c0.9,5,1.6,10,2.5,14.9&#10;&#9;&#9;&#9;&#9;&#9;c0.3,1.8,0.8,3.6,1.2,5.3c1.7,0.1,1.5-0.9,1.5-1.5c-1.2-12.5-2-24.9-5.7-37.1c-1.6-5.4-2.2-11-3.1-16.5&#10;&#9;&#9;&#9;&#9;&#9;c-1.3-7.9-2.5-15.9-3.7-23.9c-0.1-0.5-0.2-1.1-0.4-1.6c-0.6-1.3-1.6-2.6-1.9-4c-0.4-1.4-0.2-2.9-0.2-4.3&#10;&#9;&#9;&#9;&#9;&#9;C670.6,501.7,672.6,516.6,676.2,531.5z M837.5,550.8c2.2-14.6,2-29.4,3.7-44c0.3-2.4,0.7-4.8,0.7-7.2c0-2.2-0.5-4.4-1-6.6&#10;&#9;&#9;&#9;&#9;&#9;c-0.1-0.6-0.9-1.1-2-2.3c0.1,2.4,0.1,3.8,0.2,5.2c0.4,3.5,0.5,7-0.1,10.6c-0.5,3.1-0.3,6.3-0.8,9.5c-1.1,8-1.5,16-2,24&#10;&#9;&#9;&#9;&#9;&#9;c-0.2,3.3-0.9,6.7-1.3,10c-0.7,5-1.4,10-1.9,15c-0.6,5.5-0.9,11-1.3,16.6c0,0.1,0.3,0.2,0.9,0.7&#10;&#9;&#9;&#9;&#9;&#9;C835.7,571.5,835.9,561.1,837.5,550.8z M841.6,581.3c0.9-1.8,1.4-7.2,1.1-10.2c-0.2,0-0.5-0.1-0.6,0c-1.7,1.3-3.3,2.7-5.2,4.2&#10;&#9;&#9;&#9;&#9;&#9;c-0.1,3.4-2.3,6.8-1.1,10.9C838.8,585.2,840.5,583.5,841.6,581.3z M681.7,579.4c-0.8,3.6,0.2,6.3,2.7,9.1&#10;&#9;&#9;&#9;&#9;&#9;c1.1-1.5,2.1-2.6,3.1-3.9c-0.5-1.4-1-2.8-1.6-4.6C684.3,579.7,683.1,579.6,681.7,579.4z M828.3,594.2c0.1,0.7,1,1.8,1.7,1.8&#10;&#9;&#9;&#9;&#9;&#9;c0.7,0.1,1.9-0.6,2.3-1.3c1.2-1.6,1.3-3.4,0.7-5.3c-0.5-1.5-1.6-2-3.5-2C828,589.8,828,592,828.3,594.2z M752,616.2&#10;&#9;&#9;&#9;&#9;&#9;c1.5-0.6,2-2.7,1-4.4c-0.7-1.3-3.4-2.3-4.7-1.5c-0.9,0.5-1.3,1.7-1.6,2.2C746.8,615.4,749.6,617.1,752,616.2z M688.7,594.7&#10;&#9;&#9;&#9;&#9;&#9;c0.4,0.4,1.7,0.8,2.1,0.5c0.7-0.4,1.3-1.3,1.4-2.1c0.1-0.6-0.7-1.2-1.1-1.8c-0.6-1.1,0.8-3.1-1.8-3.4c-0.7,1.2-1.4,2.5-2.1,3.6&#10;&#9;&#9;&#9;&#9;&#9;C687.8,592.8,688.1,593.9,688.7,594.7z" transform="matrix(1, 0, 0, 1, -438.9617919921875, -380.3218688964844)"/><path fill-rule="evenodd" clip-rule="evenodd" fill="#DDB38A" d="M739.9,465.6c15.5,1.6,31.2,0,47-2c2.8-0.4,5.7-0.3,8.5-0.7&#10;&#9;&#9;&#9;&#9;&#9;c12.8-1.9,24.7-6.1,35.4-12.8c3.6-2.2,6.6-5,9-8.3c3.9-5.3,3.4-8.5-3.5-10.6c-4.6-1.4-9.2-3.1-13.9-4.3c-2.9-0.8-6-1.1-9-1.5&#10;&#9;&#9;&#9;&#9;&#9;c-6.2-0.8-12.6-1.3-18.7-2.5c-7.5-1.4-15-1.7-22.5-1.7c-9,0-17.9,0.3-26.9,0.6c-2.8,0.1-5.7,0.4-8.5,1&#10;&#9;&#9;&#9;&#9;&#9;c-10.5,2.1-21.3,3-31.7,5.9c-3.5,1-7,2-10.5,3c-2.7,0.8-5.4,1.7-8.1,2.4c-2.4,0.7-4.4,1.7-6.2,3.4c-3.3,3-3.7,6.1-0.8,9.4&#10;&#9;&#9;&#9;&#9;&#9;c3,3.4,6.7,6,10.8,8.2c10.7,5.4,21.9,8.9,34.2,9.5C729.7,464.9,734.6,465.3,739.9,465.6z" transform="matrix(1, 0, 0, 1, -438.9617919921875, -380.3218688964844)"/><path fill-rule="evenodd" clip-rule="evenodd" fill="#754D25" d="M845.6,438.3c-1,1.6-1.5,2.3-2,3.2c-2.6,4.8-6.7,8.5-11.5,11.4&#10;&#9;&#9;&#9;&#9;&#9;c-12.6,7.5-26.3,12.3-41.5,13.4c-6.1,0.4-12.1,1.3-18.2,2c-12.6,1.6-25.2,1.2-37.8,0c-3-0.3-6.1-0.6-9.1-0.6&#10;&#9;&#9;&#9;&#9;&#9;c-15.3-0.4-29.1-5-41.8-12.7c-3.6-2.2-6.8-4.8-8.2-8.7c-0.1-0.3-0.6-0.4-0.9-0.7c-2,2.4-2.9,3.9-2,5.7c0.9,1.8,0.8,3.2,0.1,4.8&#10;&#9;&#9;&#9;&#9;&#9;c-1.1,2.2-0.3,4.2,1.2,5.7c1.9,1.9,4,3.8,6.4,5.2c9,5.3,18.9,8.8,29.2,11.3c2.9,0.7,6.1,0.7,9.1,1c6.9,0.6,13.8,1.2,20.7,1.7&#10;&#9;&#9;&#9;&#9;&#9;c4.7,0.4,9.4,0.7,14,0.8c12.4,0.3,24.8-0.5,37.1-2.1c14.1-1.8,27.1-6.7,40.2-11.2c9.4-3.2,15-10.1,17.7-18.8&#10;&#9;&#9;&#9;&#9;&#9;C849.3,446,848.4,442.2,845.6,438.3z" transform="matrix(1, 0, 0, 1, -438.9617919921875, -380.3218688964844)"/><path fill-rule="evenodd" clip-rule="evenodd" fill="#DDB38A" d="M836.7,506.2c-0.7,7.4-1.9,14.8-2.2,22.3&#10;&#9;&#9;&#9;&#9;&#9;&#9;c-0.4,9.2-1.8,18.2-2.8,27.3c-0.4,3.5-0.6,7.1-0.8,10.6c-0.1,1.5-0.1,3-0.2,4.5c-0.2,2.9-1.4,5.2-3.9,7.2&#10;&#9;&#9;&#9;&#9;&#9;&#9;c-5.4,4.1-11.3,7.3-17.3,10.5c-3.4,1.8-7,2.9-10.9,3.4c-2.8,0.3-5.6,1.1-8.4,1.5c-4.2,0.6-8.4,1.4-12.7,1.5&#10;&#9;&#9;&#9;&#9;&#9;&#9;c-6.3,0.2-12.6-0.1-19-0.3c-1.1,0-2.2-0.5-3.6-0.8c0-3.8,0-7.3,0-10.8c0.1-8.4,0.2-16.8,0.3-25.2c0.1-6.4,0.2-12.7,0.3-19.1&#10;&#9;&#9;&#9;&#9;&#9;&#9;c0.1-4.1,0.2-8.2,0.2-12.3c0.1-3.5,0-7.1,0.1-10.6c0-1.1,0.2-2.6,0.9-3.1c2.9-2.1,3-5.1,3.5-8.4c5.9-0.2,11.8-0.2,17.7-0.7&#10;&#9;&#9;&#9;&#9;&#9;&#9;c6.1-0.5,12.1-1.4,18.1-2.5c5.8-1.1,11.5-2.4,17.1-4c5.8-1.6,11.4-3.7,17-5.6c2.1,3.6,2.1,3.6,6.8,6.2&#10;&#9;&#9;&#9;&#9;&#9;&#9;C836.9,500.6,837,503.4,836.7,506.2z M819.8,520.7c-2.3-0.8-4.5-1-6.9,0.2c-9.9,4.8-20.6,7.8-31.7,9.3c-4,0.6-8,1.4-12,1.8&#10;&#9;&#9;&#9;&#9;&#9;&#9;c-2.8,0.3-5.7,0-8.5,0.1c-0.4,0-1,0.7-1.1,1.1c-0.1,0.4,0.1,1.2,0.5,1.4c0.6,0.4,1.4,0.7,2.2,0.8c6.7,0.2,13.4,0.6,19.9-1.5&#10;&#9;&#9;&#9;&#9;&#9;&#9;c2.7-0.8,5.5-1.3,8.3-1.9c9.9-2.1,19.3-5.7,28.8-8.9c0.5-0.2,0.9-0.6,1.5-1C820.4,521.5,820.2,520.8,819.8,520.7z M790.1,536.4&#10;&#9;&#9;&#9;&#9;&#9;&#9;c-6.9,3.2-14.4,3.4-21.8,4.2c-1.8,0.2-3.6-0.2-5.4-0.1c-0.6,0-1.4,0.7-1.7,1.3c-0.4,0.7,0.2,1.5,1,1.7c1.3,0.4,2.7,0.7,4.1,0.7&#10;&#9;&#9;&#9;&#9;&#9;&#9;c8,0.2,15.8-0.7,23-4.3c0.9-0.4,1.8-0.7,2.7-1.1c0.2-0.1,0.3-0.3,0.4-0.4C792,536.3,791.5,535.8,790.1,536.4z M774.4,546.2&#10;&#9;&#9;&#9;&#9;&#9;&#9;c-1,0.1-2,0.3-2.9,0.7c-2.7,0.9-5.5,1.2-8.4,1c-0.6,0-1.3-0.2-1.8,0c-0.7,0.2-1.6,0.7-1.7,1.2c-0.3,1.1,0.7,1.6,1.7,1.8&#10;&#9;&#9;&#9;&#9;&#9;&#9;c1.8,0.2,3.7,0.5,5.4,0.3c3.6-0.2,7.1-0.7,10.2-2.4C777,546.9,776.2,546,774.4,546.2z" transform="matrix(1, 0, 0, 1, -438.9617919921875, -380.3218688964844)"/><path fill-rule="evenodd" clip-rule="evenodd" fill="#DDB38A" d="M730.7,592.6c-13-2-25-6.5-36.4-13.3&#10;&#9;&#9;&#9;&#9;&#9;&#9;c-1.9-13.4-3.6-27.1-5.6-40.8c-2.1-13.7-4.5-27.3-6.7-40.9c1.2-0.9,2.1-1.6,3-2.3c0.1-0.1,0.4,0-0.9,0c6.5,1.8,11.7,3.8,17,4.7&#10;&#9;&#9;&#9;&#9;&#9;&#9;c10,1.6,20.1,3.1,30.3,3.1c2.4,0,4.9-0.3,7.7,0.9c-1.1,4.8,2.5,6.5,6.7,7.6c0.3,0.1,0.5,0.5,1.1,1.1&#10;&#9;&#9;&#9;&#9;&#9;&#9;c0.3,10.5,1.3,21.3,0.7,32.1c-0.9,15.8-1,31.7-1.5,47.5c0,0.5-0.3,1-0.6,1.8C740.4,595.7,735.6,593.4,730.7,592.6z&#10;&#9;&#9;&#9;&#9;&#9;&#9; M741.6,530.4c-4.6-0.5-9.3-1.1-13.9-1.4c-4.7-0.3-9.2-1.3-13.7-2.6c-4.1-1.1-8.1-2.3-12.1-3.4c-1.4,1-1.5,2.1-0.2,2.9&#10;&#9;&#9;&#9;&#9;&#9;&#9;c1.4,0.8,3,1.3,4.5,1.6c8.3,1.9,16.5,4.3,25,5.1c3,0.3,6.1,0.4,9.1,0.4c1,0,1.9-0.3,2.8-0.5&#10;&#9;&#9;&#9;&#9;&#9;&#9;C743.5,531.1,742.7,530.5,741.6,530.4z M742.5,541.3c0.9,0,2-1.3,1.6-2c-0.3-0.6-1.1-1.5-1.6-1.4c-6.4,0.5-12.5-1.2-18.7-2&#10;&#9;&#9;&#9;&#9;&#9;&#9;c-1-0.1-2-0.2-3-0.1c-0.4,0.1-0.9,0.7-1.1,1.1c-0.1,0.2,0.1,0.8,0.3,1c0.8,0.5,1.7,1.1,2.6,1.3c5.2,0.9,10.4,1.6,15.6,2.4&#10;&#9;&#9;&#9;&#9;&#9;&#9;c0-0.1,0-0.2,0-0.3C739.6,541.2,741.1,541.3,742.5,541.3z M742.5,547.1c-0.4-1.6-1.8-1.7-3.3-1.7c-1.6,0-3.2-0.1-4.8,0&#10;&#9;&#9;&#9;&#9;&#9;&#9;c-0.4,0-1,0.7-1.1,1.1c-0.1,0.4,0.4,1.2,0.7,1.3c1.5,0.4,3.1,0.7,3.5,0.8C741.4,548.8,742.8,548.3,742.5,547.1z" transform="matrix(1, 0, 0, 1, -438.9617919921875, -380.3218688964844)"/><path fill-rule="evenodd" clip-rule="evenodd" fill="#DDB38A" d="M838.4,567.1c3.6-5.7,3.1-11.7,4.2-17.5&#10;&#9;&#9;&#9;&#9;&#9;&#9;c0.7-4,1.2-8.1,1.6-12.2c0.9-10.2,2.6-20.3,3.5-30.6c0.6-7.6,1-15.2,1.4-22.9c0-0.7-0.1-1.3-0.3-2.7c-1.4,1-2.3,1.6-3.4,2.4&#10;&#9;&#9;&#9;&#9;&#9;&#9;c0.8,2.9,1.4,5.8-1,8.4c-0.3,0.4-0.4,1.1-0.3,1.6c1.6,4.5,0.2,8.9-0.1,13.3c-0.7,11.5-1.7,23.1-2.7,34.6&#10;&#9;&#9;&#9;&#9;&#9;&#9;c-0.4,4.3-1.2,8.5-1.7,12.8C839.1,558.6,838.8,562.9,838.4,567.1z" transform="matrix(1, 0, 0, 1, -438.9617919921875, -380.3218688964844)"/><path fill-rule="evenodd" clip-rule="evenodd" fill="#DDB38A" d="M670.6,486.5c0.1,15.2,2.1,30.1,5.6,45c0.8,3.3,1,6.6,1.6,9.9&#10;&#9;&#9;&#9;&#9;&#9;&#9;c0.8,4.6,1.8,9.2,2.6,13.8c0.9,5,1.6,10,2.5,14.9c0.3,1.8,0.8,3.6,1.2,5.3c1.7,0.1,1.5-0.9,1.5-1.5c-1.2-12.5-2-24.9-5.7-37.1&#10;&#9;&#9;&#9;&#9;&#9;&#9;c-1.6-5.4-2.2-11-3.1-16.5c-1.3-7.9-2.5-15.9-3.7-23.9c-0.1-0.5-0.2-1.1-0.4-1.6c-0.6-1.3-1.6-2.6-1.9-4&#10;&#9;&#9;&#9;&#9;&#9;&#9;C670.4,489.4,670.6,487.9,670.6,486.5z" transform="matrix(1, 0, 0, 1, -438.9617919921875, -380.3218688964844)"/><path fill-rule="evenodd" clip-rule="evenodd" fill="#B4B4B4" d="M749.3,607.7c2.1-2.5,2.1-4.2,2.2-5.8&#10;&#9;&#9;&#9;&#9;&#9;&#9;c0.3-6.3,0.7-12.7,0.8-19c0.3-12.1,0.3-24.2,0.5-36.3c0.2-11,0.5-22,0.8-33c0-0.2,0-0.4,0-0.6c0.1-3.2-1-5.5-2.4-5&#10;&#9;&#9;&#9;&#9;&#9;&#9;c-2.3,0.9-2,3-2.1,4.8c-0.1,2.6-0.2,5.2-0.1,7.8c0.3,7.3,0.9,14.5,1,21.8c0.1,5.6-0.5,11.1-0.6,16.7c-0.2,6.5-0.5,13-0.5,19.6&#10;&#9;&#9;&#9;&#9;&#9;&#9;c0,5,0.4,10-0.1,15C748.4,597.9,749.1,602.2,749.3,607.7z" transform="matrix(1, 0, 0, 1, -438.9617919921875, -380.3218688964844)"/><path fill-rule="evenodd" clip-rule="evenodd" fill="#B4B4B4" d="M692,584.7c-0.6-6.3-1.1-11.6-1.8-17&#10;&#9;&#9;&#9;&#9;&#9;&#9;c-0.8-6.3-1.6-12.6-2.6-18.9c-1.3-8.3-2.9-16.6-4.2-24.8c-0.7-4.4-1.2-8.9-1.9-13.3c-0.6-4.1-1.4-8.1-2.2-12.1&#10;&#9;&#9;&#9;&#9;&#9;&#9;c-0.2-1-0.8-2-1.2-2.8c-2.2-0.3-2.6,0.8-2.5,1.9c0.4,3.7,1,7.4,1.6,11.1c0.6,4,1.1,8.1,1.9,12.1c1.3,6.6,2.8,13.1,4.2,19.7&#10;&#9;&#9;&#9;&#9;&#9;&#9;c0.6,2.9,1.6,5.8,1.9,8.7c1.1,9.3,2,18.5,3.1,27.8c0.2,1.8,0.7,3.7,1.2,5.5C689.8,583.2,690.7,583.5,692,584.7z" transform="matrix(1, 0, 0, 1, -438.9617919921875, -380.3218688964844)"/><path fill-rule="evenodd" clip-rule="evenodd" fill="#B4B4B4" d="M832.5,582.1c3.1-10.5,3.4-21,5-31.3c2.2-14.6,2-29.4,3.7-44&#10;&#9;&#9;&#9;&#9;&#9;&#9;c0.3-2.4,0.7-4.8,0.7-7.2c0-2.2-0.5-4.4-1-6.6c-0.1-0.6-0.9-1.1-2-2.3c0.1,2.4,0.1,3.8,0.2,5.2c0.4,3.5,0.5,7-0.1,10.6&#10;&#9;&#9;&#9;&#9;&#9;&#9;c-0.5,3.1-0.3,6.3-0.8,9.5c-1.1,8-1.5,16-2,24c-0.2,3.3-0.9,6.7-1.3,10c-0.7,5-1.4,10-1.9,15c-0.6,5.5-0.9,11-1.3,16.6&#10;&#9;&#9;&#9;&#9;&#9;&#9;C831.7,581.5,831.9,581.6,832.5,582.1z" transform="matrix(1, 0, 0, 1, -438.9617919921875, -380.3218688964844)"/><path fill-rule="evenodd" clip-rule="evenodd" fill="#B4B4B4" d="M834.5,489.3c2.5-0.4,5-0.7,7.9-1.2c-0.4-1.6-0.8-3.3-1.3-5.3&#10;&#9;&#9;&#9;&#9;&#9;&#9;c1.1-0.9,2.2-1.9,3.4-2.8c5.4-4.2,8.5-9.4,8.4-16c-0.1-4.5,0.2-8.9,0.3-13.4c-1.8-0.4-1.6,0.9-2,1.6c-1.4,2.5-2.5,5.1-4,7.5&#10;&#9;&#9;&#9;&#9;&#9;&#9;c-4.3,6.6-11.1,10.3-18.5,13c-6.4,2.3-13,4.2-19.5,6.4c-7.1,2.4-14.7,3-22.1,4.3c-15,2.4-30,1.9-45.1,1.1&#10;&#9;&#9;&#9;&#9;&#9;&#9;c-5.9-0.3-11.7-1.2-17.6-1.8c-1.2-0.1-2.4-0.4-3.6-0.4c-15.9,0-29.7-5.7-43-12.9c-4.4-2.4-7.4-5.8-9.1-11&#10;&#9;&#9;&#9;&#9;&#9;&#9;c-1,6-0.9,11.3-0.7,16.6c0.1,3.6,2.5,6.7,6,8.8c-0.2,2.7-0.8,5.3,1,8c1.6,0.4,3.5,0.8,5.7,1.3c0.2-0.6,0.3-1.3,0.6-2&#10;&#9;&#9;&#9;&#9;&#9;&#9;c0.4-1.1,1.3-1.4,2.4-1.1c0.7,0.2,1.5,0.6,2.1,1.1c2.3,2.1,5.1,3,8.1,3.8c11.2,3.2,22.7,4.2,34.3,5c3.5,0.2,6.9,0.2,10.4,0.3&#10;&#9;&#9;&#9;&#9;&#9;&#9;c2.8,0.1,3.8,1.1,4.2,3.8c0.1,0.6,0,1.1,0,1.7c0.1,0.5,0.3,1.1,0.5,1.8c0.6,0.2,1.3,0.6,2.1,0.8c0.6,0.2,1.2,0.3,1.8,0.4&#10;&#9;&#9;&#9;&#9;&#9;&#9;c2.8-3.6,4.1-4.1,9.3-1.1c0.1-0.8,0.3-1.5,0.4-2.2c0.4-3.1,1.6-4.4,4.8-4.5c3-0.1,6.1-0.1,9.2,0c6,0.2,11.8-0.5,17.5-1.7&#10;&#9;&#9;&#9;&#9;&#9;&#9;c6.3-1.3,12.8-2.3,19-3.7c7.9-1.9,15.6-4.2,22.6-8.2c2.3-1.3,3.2-0.8,4.8,2.2L834.5,489.3z" transform="matrix(1, 0, 0, 1, -438.9617919921875, -380.3218688964844)"/><path fill-rule="evenodd" clip-rule="evenodd" fill="#B4B4B4" d="M754.7,598.3c-0.9,3.6-0.9,6.9-0.3,10.5&#10;&#9;&#9;&#9;&#9;&#9;&#9;c1.2,0.1,2.4,0.3,3.5,0.3c7.6,0.5,15,0,22.5-1.3c10-1.7,19.8-4,29.4-7.2c5-1.7,9.5-4.3,13.4-7.6c0.8-0.7,1.6-1.7,1.9-2.7&#10;&#9;&#9;&#9;&#9;&#9;&#9;c0.5-2.4,1-4.7,3-6.6c0.3-0.3,0-1-0.1-1.9c-1.6,0.9-2.9,1.7-4.3,2.5c-4.9,2.7-9.7,5.4-14.7,7.9c-2.8,1.5-5.9,2.6-9.2,2.7&#10;&#9;&#9;&#9;&#9;&#9;&#9;c-0.8,0-1.6,0.3-2.4,0.5c-9.5,2.6-19.3,2.5-29,3.1c-2,0.1-4.1-0.2-6.1-0.2C759.8,598.2,757.3,598.3,754.7,598.3z" transform="matrix(1, 0, 0, 1, -438.9617919921875, -380.3218688964844)"/><path fill-rule="evenodd" clip-rule="evenodd" fill="#B4B4B4" d="M694.9,584.1c-1.1,4.1,1.7,7,1.4,10.1&#10;&#9;&#9;&#9;&#9;&#9;&#9;c9,5.2,18.6,8.1,28.6,9.9c6.4,1.1,12.8,2.3,19.2,3.4c0.5,0.1,1.1,0,2,0c-0.1-3.1-0.2-6-0.3-9.1c-5.9-0.9-11.7-1.5-17.4-2.7&#10;&#9;&#9;&#9;&#9;&#9;&#9;c-5.7-1.2-11.5-2.6-17-4.5C706,589.2,700.8,586.6,694.9,584.1z" transform="matrix(1, 0, 0, 1, -438.9617919921875, -380.3218688964844)"/><path fill-rule="evenodd" clip-rule="evenodd" fill="#B4B4B4" d="M835.8,586.2c2.9-1,4.6-2.7,5.8-4.9c0.9-1.8,1.4-7.2,1.1-10.2&#10;&#9;&#9;&#9;&#9;&#9;&#9;c-0.2,0-0.5-0.1-0.6,0c-1.7,1.3-3.3,2.7-5.2,4.2C836.8,578.8,834.7,582.1,835.8,586.2z" transform="matrix(1, 0, 0, 1, -438.9617919921875, -380.3218688964844)"/><path fill-rule="evenodd" clip-rule="evenodd" fill="#B4B4B4" d="M685.8,580c-1.5-0.2-2.6-0.4-4.1-0.6&#10;&#9;&#9;&#9;&#9;&#9;&#9;c-0.8,3.6,0.2,6.3,2.7,9.1c1.1-1.5,2.1-2.6,3.1-3.9C686.9,583.1,686.4,581.7,685.8,580z" transform="matrix(1, 0, 0, 1, -438.9617919921875, -380.3218688964844)"/><path fill-rule="evenodd" clip-rule="evenodd" fill="#010101" d="M829.6,587.5c-1.5,2.3-1.6,4.5-1.2,6.6c0.1,0.7,1,1.8,1.7,1.8&#10;&#9;&#9;&#9;&#9;&#9;&#9;c0.7,0.1,1.9-0.6,2.3-1.3c1.2-1.6,1.3-3.4,0.7-5.3C832.6,588,831.5,587.5,829.6,587.5z" transform="matrix(1, 0, 0, 1, -438.9617919921875, -380.3218688964844)"/><path fill-rule="evenodd" clip-rule="evenodd" fill="#010101" d="M746.7,612.5c0.1,2.9,2.9,4.6,5.3,3.7c1.5-0.6,2-2.7,1-4.4&#10;&#9;&#9;&#9;&#9;&#9;&#9;c-0.7-1.3-3.4-2.3-4.7-1.5C747.4,610.8,747,612,746.7,612.5z" transform="matrix(1, 0, 0, 1, -438.9617919921875, -380.3218688964844)"/><path fill-rule="evenodd" clip-rule="evenodd" fill="#010101" d="M687.2,591.5c0.6,1.3,0.9,2.4,1.5,3.2&#10;&#9;&#9;&#9;&#9;&#9;&#9;c0.4,0.4,1.7,0.8,2.1,0.5c0.7-0.4,1.3-1.3,1.4-2.1c0.1-0.6-0.7-1.2-1.1-1.8c-0.6-1.1,0.8-3.1-1.8-3.4&#10;&#9;&#9;&#9;&#9;&#9;&#9;C688.6,589.1,687.9,590.3,687.2,591.5z" transform="matrix(1, 0, 0, 1, -438.9617919921875, -380.3218688964844)"/><path fill-rule="evenodd" clip-rule="evenodd" fill="#FFFFFF" d="M834.6,489.4c0,1-1,2.1,0.7,3.3&#10;&#9;&#9;&#9;&#9;&#9;C835,491.3,834.8,490.3,834.6,489.4C834.5,489.3,834.6,489.4,834.6,489.4z" transform="matrix(1, 0, 0, 1, -438.9617919921875, -380.3218688964844)"/><path fill-rule="evenodd" clip-rule="evenodd" fill="#603A17" d="M820.7,522.1c-0.4-0.5-0.5-1.2-0.9-1.4&#10;&#9;&#9;&#9;&#9;&#9;&#9;c-2.3-0.8-4.5-1-6.9,0.2c-9.9,4.8-20.6,7.8-31.7,9.3c-4,0.6-8,1.4-12,1.8c-2.8,0.3-5.7,0-8.5,0.1c-0.4,0-1,0.7-1.1,1.1&#10;&#9;&#9;&#9;&#9;&#9;&#9;c-0.1,0.4,0.1,1.2,0.5,1.4c0.6,0.4,1.4,0.7,2.2,0.8c6.7,0.2,13.4,0.6,19.9-1.5c2.7-0.8,5.5-1.3,8.3-1.9&#10;&#9;&#9;&#9;&#9;&#9;&#9;c9.9-2.1,19.3-5.7,28.8-8.9C819.7,522.9,820.1,522.5,820.7,522.1z" transform="matrix(1, 0, 0, 1, -438.9617919921875, -380.3218688964844)"/><path fill-rule="evenodd" clip-rule="evenodd" fill="#603A17" d="M792.3,538.6c-0.3-2.3-0.7-2.8-2.2-2.1&#10;&#9;&#9;&#9;&#9;&#9;&#9;c-6.9,3.2-14.4,3.4-21.8,4.2c-1.8,0.2-3.6-0.2-5.4-0.1c-0.6,0-1.4,0.7-1.7,1.3c-0.4,0.7,0.2,1.5,1,1.7c1.3,0.4,2.7,0.7,4.1,0.7&#10;&#9;&#9;&#9;&#9;&#9;&#9;c8,0.2,15.8-0.7,23-4.3c0.9-0.4,1.8-0.7,2.7-1.1C792,538.9,792.1,538.7,792.3,538.6z" transform="matrix(1, 0, 0, 1, -438.9617919921875, -380.3218688964844)"/><path fill-rule="evenodd" clip-rule="evenodd" fill="#603A17" d="M777,548.8c0-1.9-0.8-2.8-2.6-2.6c-1,0.1-2,0.3-2.9,0.7&#10;&#9;&#9;&#9;&#9;&#9;&#9;c-2.7,0.9-5.5,1.2-8.4,1c-0.6,0-1.3-0.2-1.8,0c-0.7,0.2-1.6,0.7-1.7,1.2c-0.3,1.1,0.7,1.6,1.7,1.8c1.8,0.2,3.7,0.5,5.4,0.3&#10;&#9;&#9;&#9;&#9;&#9;&#9;C770.3,550.9,773.9,550.4,777,548.8z" transform="matrix(1, 0, 0, 1, -438.9617919921875, -380.3218688964844)"/><path fill-rule="evenodd" clip-rule="evenodd" fill="#603A17" d="M743.1,532.5c0.4-1.4-0.4-2-1.5-2.1&#10;&#9;&#9;&#9;&#9;&#9;&#9;c-4.6-0.5-9.3-1.1-13.9-1.4c-4.7-0.3-9.2-1.3-13.7-2.6c-4.1-1.1-8.1-2.3-12.1-3.4c-1.4,1-1.5,2.1-0.2,2.9&#10;&#9;&#9;&#9;&#9;&#9;&#9;c1.4,0.8,3,1.3,4.5,1.6c8.3,1.9,16.5,4.3,25,5.1c3,0.3,6.1,0.4,9.1,0.4C741.3,533,742.3,532.7,743.1,532.5z" transform="matrix(1, 0, 0, 1, -438.9617919921875, -380.3218688964844)"/><path fill-rule="evenodd" clip-rule="evenodd" fill="#603A17" d="M738.2,541.2c1.4,0,2.8,0.1,4.3,0.1c0.9,0,2-1.3,1.6-2&#10;&#9;&#9;&#9;&#9;&#9;&#9;c-0.3-0.6-1.1-1.5-1.6-1.4c-6.4,0.5-12.5-1.2-18.7-2c-1-0.1-2-0.2-3-0.1c-0.4,0.1-0.9,0.7-1.1,1.1c-0.1,0.2,0.1,0.8,0.3,1&#10;&#9;&#9;&#9;&#9;&#9;&#9;c0.8,0.5,1.7,1.1,2.6,1.3c5.2,0.9,10.4,1.6,15.6,2.4C738.2,541.4,738.2,541.3,738.2,541.2z" transform="matrix(1, 0, 0, 1, -438.9617919921875, -380.3218688964844)"/><path fill-rule="evenodd" clip-rule="evenodd" fill="#603A17" d="M737.7,548.5c3.7,0.2,5.1-0.3,4.8-1.4&#10;&#9;&#9;&#9;&#9;&#9;&#9;c-0.4-1.6-1.8-1.7-3.3-1.7c-1.6,0-3.2-0.1-4.8,0c-0.4,0-1,0.7-1.1,1.1c-0.1,0.4,0.4,1.2,0.7,1.3&#10;&#9;&#9;&#9;&#9;&#9;&#9;C735.7,548.2,737.2,548.4,737.7,548.5z" transform="matrix(1, 0, 0, 1, -438.9617919921875, -380.3218688964844)"/><path fill-rule="evenodd" clip-rule="evenodd" fill="#24160D" d="M658.5,492.5c3.9-2.5,7.8-3.1,11.9-1.3&#10;&#9;&#9;&#9;&#9;&#9;c1.5,0.7,2.6,1.5,2.9,3.1c0.4,1.8,0.9,3.6,1.1,5.5c0.6,6.3,1.5,12.6,1.6,18.9c0.1,7,0.7,14.1-1,21.1c-0.3,1.3-0.6,2.5-1.1,3.7&#10;&#9;&#9;&#9;&#9;&#9;c-1.1,2.6-3.1,4.1-6,4.2c-3.8,0.2-7.4-0.5-10.5-3.1c-2.1,1.1-4.2,2.3-6.4,3.1c-4.6,1.6-9.7-0.5-11.7-4.9c-2-4.3-3.1-8.7-3-13.5&#10;&#9;&#9;&#9;&#9;&#9;c0.1-6.9,0.2-13.8,0-20.7c-0.2-5.8,2.2-10.8,4.5-15.9c0.7-1.4,2.1-2,3.6-2.5C649.7,488.7,653.4,489.2,658.5,492.5z M639.7,511.2&#10;&#9;&#9;&#9;&#9;&#9;C639.8,511.2,639.8,511.2,639.7,511.2c0,6-0.1,11.9-0.2,17.9c0,4.4,1.1,8.5,2.9,12.4c1.4,3.1,3.9,4.1,7.4,3.5&#10;&#9;&#9;&#9;&#9;&#9;c2.5-0.4,4.6-2.6,5-5.3c0.2-1.6,0.2-3.3,0.2-5c0.1-6.9,0.2-13.8,0.2-20.7c0-4.1-0.1-8.2-0.4-12.3c-0.2-2.5-1.4-3.6-3.9-3.9&#10;&#9;&#9;&#9;&#9;&#9;c-0.9-0.1-1.9-0.2-2.8-0.2c-4.6,0-7.4,2.3-8,6.9C639.9,506.7,639.9,509,639.7,511.2z M673.4,532.3c-0.3-6.9-0.6-14.2-1.1-21.4&#10;&#9;&#9;&#9;&#9;&#9;c-0.2-3.2-0.7-6.3-1.1-9.4c-0.2-1.2-0.8-2.2-2-2.4c-3-0.5-5.9-0.6-8.7,1c-1.9,1.1-3,2.6-2.5,5.1c0.3,1.6,0.4,3.3,0.4,5&#10;&#9;&#9;&#9;&#9;&#9;c-0.1,8-0.3,16-0.4,24c0,1.7,0.1,3.4,0.5,5c0.9,3.7,3.4,5.6,7.2,6c3.5,0.3,5.4-0.9,6.2-4.2C672.4,538.2,672.8,535.4,673.4,532.3&#10;&#9;&#9;&#9;&#9;&#9;z M658.4,497.2c1.9-0.4,2.8-0.6,3.6-0.8c0.9-0.2,1.8-0.4,2.7-0.5c0.9-0.1,1.8,0,2.7-0.2c0.7-0.1,1.8,0.3,2.2-0.8&#10;&#9;&#9;&#9;&#9;&#9;C665.2,492.2,663.3,492.5,658.4,497.2z M654.8,494.9c-0.7-1.9-2.2-2.4-3.5-2.2c-2.5,0.4-5.4-0.7-7.7,2.1&#10;&#9;&#9;&#9;&#9;&#9;C647.4,494.9,650.8,494.9,654.8,494.9z" transform="matrix(1, 0, 0, 1, -438.9617919921875, -380.3218688964844)"/><path fill-rule="evenodd" clip-rule="evenodd" fill="#754D25" d="M639.7,511.2c0.1-2.2,0.2-4.5,0.5-6.7c0.6-4.6,3.4-6.9,8-6.9&#10;&#9;&#9;&#9;&#9;&#9;c0.9,0,1.9,0.1,2.8,0.2c2.5,0.3,3.7,1.4,3.9,3.9c0.3,4.1,0.4,8.2,0.4,12.3c0,6.9-0.1,13.8-0.2,20.7c0,1.7,0.1,3.4-0.2,5&#10;&#9;&#9;&#9;&#9;&#9;c-0.4,2.8-2.6,4.9-5,5.3c-3.6,0.6-6-0.5-7.4-3.5c-1.8-3.9-2.9-8.1-2.9-12.4C639.6,523.1,639.7,517.2,639.7,511.2&#10;&#9;&#9;&#9;&#9;&#9;C639.8,511.2,639.8,511.2,639.7,511.2z M649.3,516.5c0.2-0.7,0.7-1.4,0.6-2.1c-0.2-1.5-2.2-2.5-3.4-1.7c-1.7,1.1-2.6,3.4-2,5.3&#10;&#9;&#9;&#9;&#9;&#9;c0.5,1.6,2.3,2.1,3.5,0.8C648.6,518.1,649,517.2,649.3,516.5L649.3,516.5z M648.6,523.4c-1.4-0.1-1.7-0.2-2.1-0.1&#10;&#9;&#9;&#9;&#9;&#9;c-1.4,0.1-2.5,0.7-2.9,2.1c-0.4,1.5,0.3,3.1,1.6,3.7c1.2,0.5,2.4,0.2,3.4-1c0.4-0.4,0.6-0.9,0.9-1.4&#10;&#9;&#9;&#9;&#9;&#9;C650.6,524.9,649.8,523.5,648.6,523.4z M649.4,536.5c0-1.1-1.2-2.4-2.4-2.6c-1.5-0.2-2.9,1.4-2.9,3.2c0,1.3,1.2,2.6,2.3,2.6&#10;&#9;&#9;&#9;&#9;&#9;C647.8,539.9,649.4,538.1,649.4,536.5z M649.4,505.7c0.1-2.1-0.9-3.3-2.6-3.4c-1.3-0.1-2.3,1-2.1,2.6c0.1,0.9,0.3,1.8,0.6,2.6&#10;&#9;&#9;&#9;&#9;&#9;c0.5,1.3,2.3,1.4,3.1,0.2C648.9,507,649.2,506.1,649.4,505.7z" transform="matrix(1, 0, 0, 1, -438.9617919921875, -380.3218688964844)"/><path fill-rule="evenodd" clip-rule="evenodd" fill="#754D25" d="M673.4,532.3c-0.6,3.1-0.9,5.9-1.6,8.6&#10;&#9;&#9;&#9;&#9;&#9;c-0.8,3.4-2.7,4.5-6.2,4.2c-3.8-0.4-6.3-2.3-7.2-6c-0.4-1.6-0.5-3.3-0.5-5c0.1-8,0.3-16,0.4-24c0-1.7-0.1-3.4-0.4-5&#10;&#9;&#9;&#9;&#9;&#9;c-0.5-2.4,0.6-3.9,2.5-5.1c2.7-1.6,5.7-1.5,8.7-1c1.2,0.2,1.8,1.2,2,2.4c0.4,3.1,0.9,6.3,1.1,9.4&#10;&#9;&#9;&#9;&#9;&#9;C672.8,518.1,673,525.4,673.4,532.3z M666.3,513c-1.3-0.2-2.6,0.6-2.9,1.8c-0.4,1.9,0.5,3.3,2.3,3.7c1.5,0.3,2.8-0.8,3-2.4&#10;&#9;&#9;&#9;&#9;&#9;C668.8,514.5,667.8,513.2,666.3,513z M668.4,526.8c0-0.5-0.1-0.8-0.1-1.2c-0.2-1.4-1.9-2.2-2.8-1.2c-0.7,0.7-1.3,1.7-1.6,2.7&#10;&#9;&#9;&#9;&#9;&#9;c-0.3,1,0.7,2.3,1.8,2.3c0.7,0,1.6-0.6,2.2-1.1C668.2,527.9,668.3,527.2,668.4,526.8z M666.3,534.2c-1.6,0.6-2.3,1.8-1.9,3.4&#10;&#9;&#9;&#9;&#9;&#9;c0.2,0.8,0.9,1.5,1.6,2c0.9,0.7,2.3,0.2,2.7-0.9C669.4,536.8,668.9,535.9,666.3,534.2z M665,504.9c0.1,0.4,0.1,1.1,0.3,1.8&#10;&#9;&#9;&#9;&#9;&#9;c0.3,1,1.9,1.5,2.7,0.7c1.3-1.3,1.6-2.9,0.6-4.4c-0.3-0.5-1.2-0.9-1.8-0.8c-0.5,0.1-1,0.8-1.5,1.3&#10;&#9;&#9;&#9;&#9;&#9;C665.1,503.7,665.2,504.1,665,504.9z" transform="matrix(1, 0, 0, 1, -438.9617919921875, -380.3218688964844)"/><path fill-rule="evenodd" clip-rule="evenodd" fill="#DDB38A" d="M658.4,497.2c4.9-4.7,6.8-5,11.2-2.3c-0.4,1.2-1.4,0.7-2.2,0.8&#10;&#9;&#9;&#9;&#9;&#9;c-0.9,0.1-1.8,0-2.7,0.2c-0.9,0.1-1.8,0.4-2.7,0.5C661.2,496.6,660.4,496.8,658.4,497.2z" transform="matrix(1, 0, 0, 1, -438.9617919921875, -380.3218688964844)"/><path fill-rule="evenodd" clip-rule="evenodd" fill="#DDB38A" d="M654.8,494.9c-4.1,0-7.4-0.1-11.2-0.1c2.3-2.8,5.2-1.7,7.7-2.1&#10;&#9;&#9;&#9;&#9;&#9;C652.7,492.5,654.1,493.1,654.8,494.9z" transform="matrix(1, 0, 0, 1, -438.9617919921875, -380.3218688964844)"/><path fill-rule="evenodd" clip-rule="evenodd" fill="#DDB38A" d="M649.4,516.4c-0.5,0.8-0.8,1.7-1.4,2.3&#10;&#9;&#9;&#9;&#9;&#9;&#9;c-1.2,1.3-3,0.8-3.5-0.8c-0.5-1.9,0.4-4.3,2-5.3c1.2-0.7,3.1,0.2,3.4,1.7c0.1,0.6-0.4,1.4-0.6,2.1c-0.7,0.8-2.4-2.7-2.4,0.7&#10;&#9;&#9;&#9;&#9;&#9;&#9;C647.8,516.9,648.6,516.7,649.4,516.4z" transform="matrix(1, 0, 0, 1, -438.9617919921875, -380.3218688964844)"/><path fill-rule="evenodd" clip-rule="evenodd" fill="#DDB38A" d="M648.6,523.4c1.2,0.1,2,1.5,1,3.3c-0.3,0.5-0.6,0.9-0.9,1.4&#10;&#9;&#9;&#9;&#9;&#9;&#9;c-1,1.2-2.2,1.5-3.4,1c-1.3-0.6-2.1-2.2-1.6-3.7c0.4-1.4,1.5-2,2.9-2.1C646.9,523.3,647.2,523.3,648.6,523.4z M646.9,526.3&#10;&#9;&#9;&#9;&#9;&#9;&#9;c0,0.1,0,0.4,0.1,0.4c0.1,0.1,0.3,0.1,0.5,0.1c0-0.3-0.1-0.5-0.1-0.8C647.2,526.1,647.1,526.2,646.9,526.3z" transform="matrix(1, 0, 0, 1, -438.9617919921875, -380.3218688964844)"/><path fill-rule="evenodd" clip-rule="evenodd" fill="#DDB38A" d="M649.4,536.5c0,1.6-1.6,3.4-3,3.3c-1.1,0-2.2-1.4-2.3-2.6&#10;&#9;&#9;&#9;&#9;&#9;&#9;c-0.1-1.8,1.3-3.4,2.9-3.2C648.2,534.1,649.4,535.4,649.4,536.5z M646.8,536.4c-0.1,0.3-0.3,0.6-0.4,0.9c0,0.1,0.2,0.3,0.3,0.4&#10;&#9;&#9;&#9;&#9;&#9;&#9;c0.2-0.2,0.5-0.4,0.5-0.6C647.2,536.8,646.9,536.6,646.8,536.4z" transform="matrix(1, 0, 0, 1, -438.9617919921875, -380.3218688964844)"/><path fill-rule="evenodd" clip-rule="evenodd" fill="#DDB38A" d="M649.4,505.7c-0.2,0.4-0.5,1.3-1,2c-0.8,1.2-2.6,1.1-3.1-0.2&#10;&#9;&#9;&#9;&#9;&#9;&#9;c-0.3-0.8-0.6-1.7-0.6-2.6c-0.1-1.6,0.9-2.7,2.1-2.6C648.5,502.4,649.5,503.6,649.4,505.7z" transform="matrix(1, 0, 0, 1, -438.9617919921875, -380.3218688964844)"/><path fill-rule="evenodd" clip-rule="evenodd" fill="#DDB38A" d="M666.3,513c1.5,0.2,2.6,1.6,2.4,3.1c-0.2,1.6-1.5,2.7-3,2.4&#10;&#9;&#9;&#9;&#9;&#9;&#9;c-1.8-0.3-2.7-1.8-2.3-3.7C663.6,513.6,664.9,512.7,666.3,513z M666.7,515.6c-0.1-0.1-0.2-0.2-0.4-0.4&#10;&#9;&#9;&#9;&#9;&#9;&#9;c-0.2,0.3-0.4,0.5-0.5,0.8c0,0.1,0.2,0.3,0.3,0.4C666.4,516.2,666.5,515.9,666.7,515.6z" transform="matrix(1, 0, 0, 1, -438.9617919921875, -380.3218688964844)"/><path fill-rule="evenodd" clip-rule="evenodd" fill="#DDB38A" d="M668.4,526.8c-0.2,0.4-0.2,1.1-0.5,1.4&#10;&#9;&#9;&#9;&#9;&#9;&#9;c-0.6,0.5-1.4,1.1-2.2,1.1c-1.1,0-2.1-1.3-1.8-2.3c0.3-1,0.9-2,1.6-2.7c1-1,2.6-0.2,2.8,1.2C668.4,526,668.4,526.4,668.4,526.8&#10;&#9;&#9;&#9;&#9;&#9;&#9;z" transform="matrix(1, 0, 0, 1, -438.9617919921875, -380.3218688964844)"/><path fill-rule="evenodd" clip-rule="evenodd" fill="#DDB38A" d="M666.3,534.2c2.7,1.7,3.1,2.6,2.3,4.6c-0.4,1-1.8,1.6-2.7,0.9&#10;&#9;&#9;&#9;&#9;&#9;&#9;c-0.7-0.5-1.4-1.3-1.6-2C663.9,536,664.7,534.8,666.3,534.2z" transform="matrix(1, 0, 0, 1, -438.9617919921875, -380.3218688964844)"/><path fill-rule="evenodd" clip-rule="evenodd" fill="#DDB38A" d="M665,504.9c0.1-0.7,0.1-1.2,0.3-1.4c0.4-0.5,0.9-1.3,1.5-1.3&#10;&#9;&#9;&#9;&#9;&#9;&#9;c0.6-0.1,1.5,0.4,1.8,0.8c1,1.5,0.7,3.1-0.6,4.4c-0.7,0.7-2.4,0.3-2.7-0.7C665.2,505.9,665.1,505.2,665,504.9z" transform="matrix(1, 0, 0, 1, -438.9617919921875, -380.3218688964844)"/><path fill-rule="evenodd" clip-rule="evenodd" fill="#DDB38A" d="M649.4,516.4c-0.8,0.2-1.7,0.5-2.5,0.7c0-3.3,1.7,0.1,2.4-0.7&#10;&#9;&#9;&#9;&#9;&#9;&#9;C649.3,516.5,649.4,516.4,649.4,516.4z" transform="matrix(1, 0, 0, 1, -438.9617919921875, -380.3218688964844)"/><path fill-rule="evenodd" clip-rule="evenodd" fill="#DDB38A" d="M646.9,526.3c0.2-0.1,0.3-0.2,0.5-0.2c0,0.3,0.1,0.5,0.1,0.8&#10;&#9;&#9;&#9;&#9;&#9;&#9;c-0.2,0-0.4,0-0.5-0.1C646.9,526.6,646.9,526.4,646.9,526.3z" transform="matrix(1, 0, 0, 1, -438.9617919921875, -380.3218688964844)"/><path fill-rule="evenodd" clip-rule="evenodd" fill="#DDB38A" d="M646.8,536.4c0.2,0.2,0.5,0.5,0.4,0.6c0,0.2-0.3,0.4-0.5,0.6&#10;&#9;&#9;&#9;&#9;&#9;&#9;c-0.1-0.1-0.3-0.3-0.3-0.4C646.5,537,646.6,536.7,646.8,536.4z" transform="matrix(1, 0, 0, 1, -438.9617919921875, -380.3218688964844)"/><path fill-rule="evenodd" clip-rule="evenodd" fill="#DDB38A" d="M666.7,515.6c-0.2,0.3-0.3,0.6-0.5,0.8&#10;&#9;&#9;&#9;&#9;&#9;&#9;c-0.1-0.1-0.3-0.3-0.3-0.4c0.1-0.3,0.3-0.5,0.5-0.8C666.5,515.4,666.6,515.5,666.7,515.6z" transform="matrix(1, 0, 0, 1, -438.9617919921875, -380.3218688964844)"/>
</svg>