<?xml version="1.0" encoding="utf-8"?>
<svg id="master-artboard" viewBox="0 0 300.9200134277344 316.531005859375" version="1.1" xmlns="http://www.w3.org/2000/svg" x="0px" y="0px" style="enable-background:new 0 0 1400 980;" width="300.9200134277344px" height="316.531005859375px"><rect id="ee-background" x="0" y="0" width="300.9200134277344" height="316.531005859375" style="fill: white; fill-opacity: 0; pointer-events: none;"/>

<g transform="matrix(1, 0, 0, 1, -83.77133941650396, -574.67138671875)">
			<path class="st0" d="M155.2,619.2L155.2,619.2l145.7,179.6l-0.6,0.5c13.7,12.8,22,13.8,34.7,20.6c0.9,11.7-24.7,33.2-38.2,31.6&#10;&#9;&#9;&#9;&#9;c-3.5-16.4-5.4-21.1-14.2-35.2c-0.5-0.8-1.1-1.6-1.6-2.3l-0.2,0.1L143.9,645.4l-8.9-11l-8-9.8c-4.3-5.4-3.4-13.2,2.2-17.4l0,0&#10;&#9;&#9;&#9;&#9;c5.5-4.2,13.6-3.3,17.9,2.1L155.2,619.2z" style="fill-rule: evenodd; clip-rule: evenodd; fill: rgb(244, 203, 84);"/>
			<path class="st1" d="M307,805.1c10,7.6,17.4,9.2,27.9,14.9c0.9,11.7-24.7,33.2-38.2,31.6c-3.1-14.3-4.9-19.7-11.1-30.1L307,805.1&#10;&#9;&#9;&#9;&#9;z" style="fill-rule: evenodd; clip-rule: evenodd; fill: rgb(222, 184, 68);"/>
		</g><path class="st8" d="M160.2,637.6c2.4-1.8,6.4-0.7,9,2.5c2.6,3.2,2.7,7.2,0.4,9c-2.4,1.8-6.4,0.7-9-2.5&#10;&#9;&#9;&#9;C158,643.4,157.8,639.4,160.2,637.6z" style="fill-rule: evenodd; clip-rule: evenodd; fill: rgb(197, 125, 21);" transform="matrix(1, 0, 0, 1, -83.77133941650396, -574.67138671875)"/><path class="st8" d="M178.9,660.6c2.4-1.8,6.4-0.7,9,2.5c2.6,3.2,2.7,7.2,0.4,9c-2.4,1.8-6.4,0.7-9-2.5&#10;&#9;&#9;&#9;C176.7,666.5,176.5,662.4,178.9,660.6z" style="fill-rule: evenodd; clip-rule: evenodd; fill: rgb(197, 125, 21);" transform="matrix(1, 0, 0, 1, -83.77133941650396, -574.67138671875)"/><path class="st8" d="M197.6,683.7c2.4-1.8,6.4-0.7,9,2.5c2.6,3.2,2.7,7.2,0.4,9c-2.4,1.8-6.4,0.7-9-2.5&#10;&#9;&#9;&#9;C195.4,689.5,195.2,685.5,197.6,683.7z" style="fill-rule: evenodd; clip-rule: evenodd; fill: rgb(197, 125, 21);" transform="matrix(1, 0, 0, 1, -83.77133941650396, -574.67138671875)"/><path class="st8" d="M216.3,706.8c2.4-1.8,6.4-0.7,9,2.5c2.6,3.2,2.7,7.2,0.4,9c-2.4,1.8-6.4,0.7-9-2.5&#10;&#9;&#9;&#9;C214.1,712.6,213.9,708.6,216.3,706.8z" style="fill-rule: evenodd; clip-rule: evenodd; fill: rgb(197, 125, 21);" transform="matrix(1, 0, 0, 1, -83.77133941650396, -574.67138671875)"/><path class="st8" d="M235,729.8c2.4-1.8,6.4-0.7,9,2.5c2.6,3.2,2.7,7.2,0.4,9c-2.4,1.8-6.4,0.7-9-2.5&#10;&#9;&#9;&#9;C232.8,735.7,232.6,731.6,235,729.8z" style="fill-rule: evenodd; clip-rule: evenodd; fill: rgb(197, 125, 21);" transform="matrix(1, 0, 0, 1, -83.77133941650396, -574.67138671875)"/><path class="st8" d="M253.7,752.9c2.4-1.8,6.4-0.7,9,2.5c2.6,3.2,2.7,7.2,0.4,9c-2.4,1.8-6.4,0.7-9-2.5&#10;&#9;&#9;&#9;C251.4,758.7,251.3,754.7,253.7,752.9z" style="fill-rule: evenodd; clip-rule: evenodd; fill: rgb(197, 125, 21);" transform="matrix(1, 0, 0, 1, -83.77133941650396, -574.67138671875)"/>
</svg>