<?xml version="1.0" encoding="utf-8"?>
<svg id="master-artboard" viewBox="0 0 336.1040344238281 202.6019744873047" version="1.1" xmlns="http://www.w3.org/2000/svg" x="0px" y="0px" style="enable-background:new 0 0 1400 980;" width="336.1040344238281px" height="202.6019744873047px"><rect id="ee-background" x="0" y="0" width="336.1040344238281" height="202.6019744873047" style="fill: white; fill-opacity: 0; pointer-events: none;"/>

<path d="M 738.700012 678.700012 H 1017.200012 V 696.000011 H 738.700012 V 678.700012 Z" class="st40" style="fill: rgb(239, 210, 158);" transform="matrix(1, 0, 0, 1, -710.3809204101562, -581.3730583190918)"/><path d="M 744.799988 678.700012 H 758.599988 V 696.000011 H 744.799988 V 678.700012 Z" class="st41" style="fill: rgb(232, 148, 147);" transform="matrix(1, 0, 0, 1, -710.3809204101562, -581.3730583190918)"/><path d="M 761.5 678.700012 H 769.9 V 696.000011 H 761.5 V 678.700012 Z" class="st41" style="fill: rgb(232, 148, 147);" transform="matrix(1, 0, 0, 1, -710.3809204101562, -581.3730583190918)"/><path d="M 791.5 678.700012 H 797.7 V 696.000011 H 791.5 V 678.700012 Z" class="st41" style="fill: rgb(232, 148, 147);" transform="matrix(1, 0, 0, 1, -710.3809204101562, -581.3730583190918)"/><path d="M 998.700012 678.700012 H 1014.400012 V 696.000011 H 998.700012 V 678.700012 Z" class="st41" style="fill: rgb(232, 148, 147);" transform="matrix(1, 0, 0, 1, -710.3809204101562, -581.3730583190918)"/><path d="M 992.099976 678.700012 H 995.599976 V 696.000011 H 992.099976 V 678.700012 Z" class="st41" style="fill: rgb(232, 148, 147);" transform="matrix(1, 0, 0, 1, -710.3809204101562, -581.3730583190918)"/><path class="st42" d="M785.2,681.4c0-1-0.3-2-0.8-2.7h-8.1c-0.5,0.8-0.8,1.7-0.8,2.7c0,2.7,2.2,4.9,4.9,4.9&#10;&#9;&#9;&#9;C783,686.3,785.2,684.1,785.2,681.4z" style="fill: rgb(183, 159, 122);" transform="matrix(1, 0, 0, 1, -710.3809204101562, -581.3730583190918)"/><path d="M 987.199975 687.299988 A 4.1 4.1 0 0 1 983.099976 691.399988 A 4.1 4.1 0 0 1 978.999976 687.299988 A 4.1 4.1 0 0 1 983.099976 683.199988 A 4.1 4.1 0 0 1 987.199975 687.299988 Z" class="st42" style="fill: rgb(183, 159, 122);" transform="matrix(1, 0, 0, 1, -710.3809204101562, -581.3730583190918)"/><path d="M 820.500024 687.299988 A 4.1 4.1 0 0 1 816.400024 691.399988 A 4.1 4.1 0 0 1 812.300025 687.299988 A 4.1 4.1 0 0 1 816.400024 683.199988 A 4.1 4.1 0 0 1 820.500024 687.299988 Z" class="st42" style="fill: rgb(183, 159, 122);" transform="matrix(1, 0, 0, 1, -710.3809204101562, -581.3730583190918)"/><path d="M 850.600012 687.299988 A 4.9 4.9 0 0 1 845.700012 692.199988 A 4.9 4.9 0 0 1 840.800012 687.299988 A 4.9 4.9 0 0 1 845.700012 682.399988 A 4.9 4.9 0 0 1 850.600012 687.299988 Z" class="st42" style="fill: rgb(183, 159, 122);" transform="matrix(1, 0, 0, 1, -710.3809204101562, -581.3730583190918)"/><path d="M 861.500024 687.299988 A 4.1 4.1 0 0 1 857.400024 691.399988 A 4.1 4.1 0 0 1 853.300025 687.299988 A 4.1 4.1 0 0 1 857.400024 683.199988 A 4.1 4.1 0 0 1 861.500024 687.299988 Z" class="st42" style="fill: rgb(183, 159, 122);" transform="matrix(1, 0, 0, 1, -710.3809204101562, -581.3730583190918)"/><path d="M 884.199975 687.299988 A 4.1 4.1 0 0 1 880.099976 691.399988 A 4.1 4.1 0 0 1 875.999976 687.299988 A 4.1 4.1 0 0 1 880.099976 683.199988 A 4.1 4.1 0 0 1 884.199975 687.299988 Z" class="st42" style="fill: rgb(183, 159, 122);" transform="matrix(1, 0, 0, 1, -710.3809204101562, -581.3730583190918)"/><path d="M 898.899988 687.299988 A 4.1 4.1 0 0 1 894.799988 691.399988 A 4.1 4.1 0 0 1 890.699988 687.299988 A 4.1 4.1 0 0 1 894.799988 683.199988 A 4.1 4.1 0 0 1 898.899988 687.299988 Z" class="st42" style="fill: rgb(183, 159, 122);" transform="matrix(1, 0, 0, 1, -710.3809204101562, -581.3730583190918)"/><path d="M 913.6 687.299988 A 4.1 4.1 0 0 1 909.5 691.399988 A 4.1 4.1 0 0 1 905.4 687.299988 A 4.1 4.1 0 0 1 909.5 683.199988 A 4.1 4.1 0 0 1 913.6 687.299988 Z" class="st42" style="fill: rgb(183, 159, 122);" transform="matrix(1, 0, 0, 1, -710.3809204101562, -581.3730583190918)"/><path d="M 738.700012 690.799988 H 1017.200012 V 695.999988 H 738.700012 V 690.799988 Z" class="st43" style="opacity: 0.07;" transform="matrix(1, 0, 0, 1, -710.3809204101562, -581.3730583190918)"/>
</svg>