<?xml version="1.0" encoding="utf-8"?>
<svg id="master-artboard" viewBox="0 0 1651.1973876953125 1175.9464111328125" version="1.1" xmlns="http://www.w3.org/2000/svg" x="0px" y="0px" style="enable-background:new 0 0 792 1224;" width="1651.1973876953125px" height="1175.9464111328125px"><rect id="ee-background" x="0" y="0" width="1651.1973876953125" height="1175.9464111328125" style="fill: white; fill-opacity: 0; pointer-events: none;"/>

<linearGradient id="SVGID_1_" gradientUnits="userSpaceOnUse" x1="90" y1="1008" x2="90.7071" y2="1007.2929">
	<stop offset="0" style="stop-color:#20AC4B"/>
	<stop offset="0.9831" style="stop-color:#19361A"/>
</linearGradient>

<g id="Layer_5" transform="matrix(-0.004840633831918239, 0.9999912977218627, -0.9999912977218627, -0.004840633831918239, 1483.354248046875, 305.18256737542083)">
	<g>
		<path class="st0" d="M425.1,600.5c-2,9.7-10.7,16-19.5,14.2l-7-1.5c-8.8-1.8-14.2-11.1-12.2-20.8l57.1-274.6&#10;&#9;&#9;&#9;c2-9.7,10.7-16,19.5-14.2l7,1.5c8.8,1.8,14.2,11.1,12.2,20.8L425.1,600.5z" style="fill: rgb(107, 56, 40);"/>
		<path class="st0" d="M533.3,760c12.4-19.8,20-55.4-8.2-91.2c-28.2-35.9-68.4-40.4-94.3-45.9c-25.9-5.5-64.1-17.8-106.5,3&#10;&#9;&#9;&#9;c-42.3,20.8-52.4,55.8-50.6,78.7c1.5,18.6,7.3,57.4,0,74.6c-9.2,21.4-30.1,30.4-61.7,69.9c-24.8,31.1-38,56.8-38,113.9&#10;&#9;&#9;&#9;c0,94.1,77.9,170.3,174,170.3c96.1,0,169.1-70.3,169.1-164.3c0-48.5-27.6-87.1-24-135.9C494.6,814.1,523.2,776.1,533.3,760z" style="fill: rgb(107, 56, 40);"/>
		<linearGradient id="SVGID_2_" gradientUnits="userSpaceOnUse" x1="279.8713" y1="703.28" x2="393.7612" y2="1054.5206">
			<stop offset="0" style="stop-color:#EDD591"/>
			<stop offset="0.4455" style="stop-color:#E0BE77"/>
			<stop offset="0.6545" style="stop-color:#DCB36B"/>
		</linearGradient>
		<path class="st1" d="M500.5,757.9c12.4-19.8,20-55.4-8.2-91.2c-28.2-35.9-68.4-40.4-94.3-45.9c-25.9-5.5-64.1-17.8-106.5,3&#10;&#9;&#9;&#9;c-42.3,20.8-52.4,55.8-50.6,78.7c1.5,18.6,7.3,57.4,0,74.6c-9.2,21.4-30.1,30.4-61.7,69.9c-24.8,31.1-38,56.8-38,113.9&#10;&#9;&#9;&#9;c0,94.1,77.9,170.3,174,170.3c96.1,0,169.1-70.3,169.1-164.3c0-48.5-27.6-87.1-24-135.9C461.8,812,490.4,774,500.5,757.9z&#10;&#9;&#9;&#9; M349.5,813.3c-25.7,0-42.6-31.5-42.6-55.3c0-23.8,20.9-43.1,46.6-43.1c25.7,0,46.6,19.3,46.6,43.1&#10;&#9;&#9;&#9;C400.1,781.8,375.2,813.3,349.5,813.3z" style="fill: url('#SVGID_2_');"/>
		<path class="st2" d="M500.5,757.9c12.4-19.8,20-55.4-8.2-91.2c-28.2-35.9-68.4-40.4-94.3-45.9c-25.9-5.5-64.1-17.8-106.5,3&#10;&#9;&#9;&#9;c-42.3,20.8-52.4,55.8-50.6,78.7c1.5,18.6,7.3,57.4,0,74.6c-9.2,21.4-30.1,30.4-61.7,69.9c-24.8,31.1-38,56.8-38,113.9&#10;&#9;&#9;&#9;c0,94.1,77.9,170.3,174,170.3c96.1,0,169.1-70.3,169.1-164.3c0-48.5-27.6-87.1-24-135.9C461.8,812,490.4,774,500.5,757.9z&#10;&#9;&#9;&#9; M349.5,813.3c-25.7,0-42.6-31.5-42.6-55.3c0-23.8,20.9-43.1,46.6-43.1c25.7,0,46.6,19.3,46.6,43.1&#10;&#9;&#9;&#9;C400.1,781.8,375.2,813.3,349.5,813.3z" style="fill: none; stroke: rgb(255, 239, 198); stroke-width: 2;"/>
		
			<path d="M 243.100006 927.599976 H 375.300003 V 958.199976 H 243.100006 V 927.599976 Z" transform="matrix(0.9743 0.2251 -0.2251 0.9743 220.1724 -45.4076)" class="st3" style="opacity: 0.25; fill: rgb(30, 22, 19);"/>
		<path class="st4" d="M421.3,777.4c-8.6,37.1-45.6,60.3-82.8,51.7c-37.1-8.6-60.3-45.6-51.7-82.8c8.6-37.1,45.6-60.3,82.8-51.7&#10;&#9;&#9;&#9;C406.7,703.2,429.9,740.3,421.3,777.4z M364.3,717.6c-24.5-5.7-48.9,9.6-54.5,34.1c-5.7,24.5,9.6,48.9,34.1,54.5&#10;&#9;&#9;&#9;c24.5,5.7,48.9-9.6,54.5-34.1C404,747.6,388.7,723.2,364.3,717.6z" style="fill: rgb(237, 213, 145);"/>
		<path class="st5" d="M419.3,776.9c-8.3,36-44.3,58.5-80.3,50.2c-36-8.3-58.5-44.3-50.2-80.3c8.3-36,44.3-58.5,80.3-50.2&#10;&#9;&#9;&#9;C405.1,705,427.6,740.9,419.3,776.9z M364,718.9c-23.7-5.5-47.4,9.3-52.9,33.1c-5.5,23.7,9.3,47.4,33.1,52.9&#10;&#9;&#9;&#9;c23.7,5.5,47.4-9.3,52.9-33C402.5,748.1,387.7,724.4,364,718.9z" style="fill: rgb(129, 66, 29); stroke: rgb(255, 239, 198); stroke-width: 2;"/>
		
			<path d="M 243.600006 925.599976 H 379.600006 V 956.199976 H 243.600006 V 925.599976 Z" transform="matrix(0.9743 0.2251 -0.2251 0.9743 219.7953 -45.9947)" class="st6" style="fill: rgb(129, 66, 29);"/>
		<path class="st4" d="M371.1,704.4c0,0,1.1-2.3,2.8-1.1c0.7,1.2-0.3,0.4,1.4,1.9c1.7,1.5-1.5-1.1-1.9,1.3c-0.5,2.4,0.5,6.1-4.6,6.3&#10;&#9;&#9;&#9;c-4.1-1.2-5.7,2.6-4.4,4.2c-0.7,1-5.8-4.9-5.9-7.1c3.4,1.6,8.3-0.8,7.9-1.6c-0.4-0.8-2.5-1.2-3.2-1.8c-1.6-1.2-4-5.3-2.2-7.6&#10;&#9;&#9;&#9;c2.4,3.7,9.8,3.1,7.7,5.7C366.5,707.1,371,706.8,371.1,704.4z" style="fill: rgb(237, 213, 145);"/>
		<path class="st4" d="M337.8,819.2c0,0-1.1,2.3-2.8,1.1c-0.7-1.2,0.3-0.4-1.4-1.9c-1.7-1.5,1.5,1.1,1.9-1.4&#10;&#9;&#9;&#9;c0.5-2.4-0.5-6.1,4.6-6.3c4.1,1.3,5.7-2.6,4.4-4.2c0.7-1,5.8,4.9,5.9,7.1c-3.3-1.6-8.3,0.8-7.9,1.7c0.4,0.8,2.5,1.2,3.2,1.8&#10;&#9;&#9;&#9;c1.6,1.2,4,5.3,2.2,7.6c-2.4-3.7-9.8-3.1-7.7-5.7C342.5,816.4,337.9,816.7,337.8,819.2z" style="fill: rgb(237, 213, 145);"/>
		<path class="st4" d="M411.9,778.4c0,0,2.3,1.1,1.1,2.8c-1.2,0.7-0.4-0.3-1.9,1.4c-1.5,1.7,1.1-1.5-1.3-1.9&#10;&#9;&#9;&#9;c-2.4-0.5-6.1,0.5-6.3-4.6c1.3-4.1-2.6-5.7-4.2-4.4c-1-0.7,4.9-5.8,7.1-5.9c-1.6,3.3,0.8,8.3,1.6,7.9c0.8-0.4,1.2-2.5,1.8-3.2&#10;&#9;&#9;&#9;c1.2-1.6,5.3-4,7.6-2.2c-3.7,2.4-3.1,9.8-5.7,7.7C409.1,773.8,409.4,778.3,411.9,778.4z" style="fill: rgb(237, 213, 145);"/>
		<path class="st4" d="M297.1,745.2c0,0-2.3-1.1-1.1-2.8c1.2-0.7,0.4,0.3,1.9-1.4c1.5-1.7-1.1,1.5,1.4,1.9c2.4,0.5,6.1-0.5,6.3,4.6&#10;&#9;&#9;&#9;c-1.3,4.1,2.6,5.7,4.2,4.4c1,0.7-4.9,5.8-7.1,5.9c1.6-3.3-0.8-8.3-1.6-7.9c-0.8,0.5-1.2,2.5-1.8,3.2c-1.2,1.6-5.3,4-7.6,2.2&#10;&#9;&#9;&#9;c3.7-2.4,3.1-9.8,5.7-7.7C299.8,749.8,299.5,745.3,297.1,745.2z" style="fill: rgb(237, 213, 145);"/>
		<path class="st4" d="M383.8,815c0,0,0.8,2.4-1.2,2.8c-1.4-0.3-0.1-0.5-2.4-0.3c-2.2,0.2,1.8-0.3,0.4-2.3c-1.4-2-4.7-4-1.2-7.7&#10;&#9;&#9;&#9;c3.8-2,2.1-5.9,0.1-6.1c-0.2-1.1,7.6-0.6,9.2,0.9c-3.5,1.2-5.3,6.5-4.4,6.7c0.9,0.3,2.6-0.9,3.5-1c2-0.3,6.6,0.9,7,3.8&#10;&#9;&#9;&#9;c-4.4-0.9-9.1,4.7-9.4,1.4C385.2,809.8,382.2,813.2,383.8,815z" style="fill: rgb(237, 213, 145);"/>
		<path class="st4" d="M325.1,708.6c0,0-0.8-2.4,1.2-2.8c1.4,0.3,0.1,0.5,2.4,0.3c2.2-0.2-1.8,0.3-0.4,2.3c1.4,2,4.7,4,1.2,7.7&#10;&#9;&#9;&#9;c-3.8,2-2.1,5.9-0.1,6.1c0.2,1.1-7.6,0.6-9.2-0.9c3.5-1.2,5.3-6.5,4.4-6.7c-0.9-0.3-2.6,0.9-3.5,1c-2,0.3-6.6-0.9-7-3.8&#10;&#9;&#9;&#9;c4.4,0.9,9.1-4.7,9.4-1.4C323.8,713.8,326.8,710.4,325.1,708.6z" style="fill: rgb(237, 213, 145);"/>
		<path class="st4" d="M301.2,791c0,0-2.4,0.8-2.8-1.2c0.3-1.4,0.5-0.1,0.3-2.4c-0.2-2.3,0.3,1.8,2.3,0.4c2.1-1.4,4-4.6,7.7-1.2&#10;&#9;&#9;&#9;c2,3.8,5.9,2.2,6.1,0.2c1.1-0.2,0.6,7.6-0.9,9.2c-1.2-3.5-6.4-5.3-6.7-4.4c-0.3,0.9,0.9,2.6,1,3.5c0.3,2-0.9,6.6-3.8,6.9&#10;&#9;&#9;&#9;c0.9-4.4-4.7-9.1-1.4-9.4C306.4,792.3,303,789.3,301.2,791z" style="fill: rgb(237, 213, 145);"/>
		<path class="st4" d="M407.8,732.6c0,0,2.4-0.8,2.8,1.2c-0.3,1.4-0.5,0.1-0.3,2.4c0.2,2.3-0.3-1.8-2.3-0.4c-2,1.4-4,4.6-7.7,1.2&#10;&#9;&#9;&#9;c-2-3.8-5.9-2.2-6.1-0.2c-1.1,0.2-0.6-7.6,0.9-9.2c1.2,3.5,6.5,5.3,6.7,4.4c0.3-0.9-0.9-2.6-1-3.5c-0.3-2,0.9-6.6,3.8-6.9&#10;&#9;&#9;&#9;c-0.9,4.4,4.7,9.1,1.4,9.4C402.6,731.3,406,734.3,407.8,732.6z" style="fill: rgb(237, 213, 145);"/>
		<path class="st0" d="M414.8,593.6c0,0,19.2,0.1,11.7,32.5c-30.7-7.1-15-5-15-5L414.8,593.6z" style="fill: rgb(107, 56, 40);"/>
		<path d="M 392.1000061035156 730.7000122070312 L 390.20001220703125 732 L 383.20001220703125 730.4000244140625 L 408.20001220703125 621.9000244140625 L 415.70001220703125 623.5999755859375 Z" class="st0" style="fill: rgb(107, 56, 40);"/>
		<path d="M 419.8999938964844 597.5999755859375 L 404.70001220703125 591.5999755859375 L 469 313.20001220703125 L 480.1000061035156 315.70001220703125 Z" class="st0" style="fill: rgb(107, 56, 40);"/>
		<path class="st7" d="M363.4,721.2c6.7,1.5,12.6,4.6,17.5,8.7l9.2,2.1l88.9-416.9l-50-11.6l-99.1,414.5l13.9,3.2&#10;&#9;&#9;&#9;C350.1,719.8,356.8,719.7,363.4,721.2z" style="fill: rgb(79, 61, 54);"/>
		
			<linearGradient id="SVGID_3_" gradientUnits="userSpaceOnUse" x1="389.3896" y1="341.7054" x2="388.7055" y2="328.831" gradientTransform="matrix(1.0072 0.2206 -0.214 0.9768 126.2468 -72.9142)">
			<stop offset="0" style="stop-color:#FFFFFF"/>
			<stop offset="0.5456" style="stop-color:#545454"/>
		</linearGradient>
		<path d="M 470.8999938964844 350.79998779296875 L 420 339.70001220703125 L 421 334.8999938964844 L 471.8999938964844 346.1000061035156 Z" class="st8" style="fill: url('#SVGID_3_');"/>
		
			<linearGradient id="SVGID_4_" gradientUnits="userSpaceOnUse" x1="388.8892" y1="374.5522" x2="388.1935" y2="361.4568" gradientTransform="matrix(0.9743 0.2251 -0.2251 0.9743 143.806 -72.8638)">
			<stop offset="0" style="stop-color:#FFFFFF"/>
			<stop offset="0.5456" style="stop-color:#545454"/>
		</linearGradient>
		<path d="M 464.3999938964844 384 L 412.70001220703125 372.1000061035156 L 413.79998779296875 367.29998779296875 L 465.5 379.29998779296875 Z" class="st9" style="fill: url('#SVGID_4_');"/>
		
			<linearGradient id="SVGID_5_" gradientUnits="userSpaceOnUse" x1="389.0376" y1="406.0573" x2="388.3381" y2="392.8919" gradientTransform="matrix(0.9743 0.2251 -0.2251 0.9743 143.806 -72.8638)">
			<stop offset="0" style="stop-color:#FFFFFF"/>
			<stop offset="0.5456" style="stop-color:#545454"/>
		</linearGradient>
		<path d="M 457.79998779296875 414.79998779296875 L 405.3999938964844 402.70001220703125 L 406.5 398 L 458.8999938964844 410.1000061035156 Z" class="st10" style="fill: url('#SVGID_5_');"/>
		
			<linearGradient id="SVGID_6_" gradientUnits="userSpaceOnUse" x1="386.2119" y1="437.579" x2="385.5189" y2="424.535" gradientTransform="matrix(1.022 0.2402 -0.2288 0.9735 129.6848 -77.798)">
			<stop offset="0" style="stop-color:#FFFFFF"/>
			<stop offset="0.5456" style="stop-color:#545454"/>
		</linearGradient>
		<path d="M 451.20001220703125 445.70001220703125 L 397.6000061035156 433.1000061035156 L 398.70001220703125 428.3999938964844 L 452.29998779296875 441 Z" class="st11" style="fill: url('#SVGID_6_');"/>
		
			<linearGradient id="SVGID_7_" gradientUnits="userSpaceOnUse" x1="389.3068" y1="465.4279" x2="388.6003" y2="452.1311" gradientTransform="matrix(0.9743 0.2251 -0.2251 0.9743 143.806 -72.8638)">
			<stop offset="0" style="stop-color:#FFFFFF"/>
			<stop offset="0.5456" style="stop-color:#545454"/>
		</linearGradient>
		<path d="M 445.3999938964844 472.79998779296875 L 391.6000061035156 460.3999938964844 L 392.70001220703125 455.70001220703125 L 446.5 468.1000061035156 Z" class="st12" style="fill: url('#SVGID_7_');"/>
		
			<linearGradient id="SVGID_8_" gradientUnits="userSpaceOnUse" x1="388.0997" y1="492.6579" x2="387.42" y2="479.8663" gradientTransform="matrix(1.101 0.2372 -0.2106 0.9776 88.8582 -78.8172)">
			<stop offset="0" style="stop-color:#FFFFFF"/>
			<stop offset="0.5456" style="stop-color:#545454"/>
		</linearGradient>
		<path d="M 439.79998779296875 499.29998779296875 L 385.20001220703125 487.5 L 386.20001220703125 482.70001220703125 L 440.79998779296875 494.5 Z" class="st13" style="fill: url('#SVGID_8_');"/>
		
			<linearGradient id="SVGID_9_" gradientUnits="userSpaceOnUse" x1="389.5575" y1="517.9323" x2="388.8449" y2="504.5214" gradientTransform="matrix(0.9743 0.2251 -0.2251 0.9743 143.806 -72.8638)">
			<stop offset="0" style="stop-color:#FFFFFF"/>
			<stop offset="0.5456" style="stop-color:#545454"/>
		</linearGradient>
		<path d="M 434.5 524.0999755859375 L 379.3999938964844 511.3999938964844 L 380.5 506.70001220703125 L 435.6000061035156 519.4000244140625 Z" class="st14" style="fill: url('#SVGID_9_');"/>
		
			<linearGradient id="SVGID_10_" gradientUnits="userSpaceOnUse" x1="389.6717" y1="542.1665" x2="388.9561" y2="528.6979" gradientTransform="matrix(0.9743 0.2251 -0.2251 0.9743 143.806 -72.8638)">
			<stop offset="0" style="stop-color:#FFFFFF"/>
			<stop offset="0.5456" style="stop-color:#545454"/>
		</linearGradient>
		<path d="M 429.3999938964844 547.7999877929688 L 373.79998779296875 535 L 374.79998779296875 530.2000122070312 L 430.5 543.0999755859375 Z" class="st15" style="fill: url('#SVGID_10_');"/>
		
			<linearGradient id="SVGID_11_" gradientUnits="userSpaceOnUse" x1="386.6511" y1="563.3099" x2="385.9714" y2="550.5157" gradientTransform="matrix(1.1271 0.2797 -0.2409 0.9706 96.5217 -90.7484)">
			<stop offset="0" style="stop-color:#FFFFFF"/>
			<stop offset="0.5456" style="stop-color:#545454"/>
		</linearGradient>
		<path d="M 424.70001220703125 569.5999755859375 L 368.79998779296875 555.7000122070312 L 369.8999938964844 551 L 425.8999938964844 564.9000244140625 Z" class="st16" style="fill: url('#SVGID_11_');"/>
		
			<linearGradient id="SVGID_12_" gradientUnits="userSpaceOnUse" x1="389.7242" y1="586.5826" x2="389.0052" y2="573.0513" gradientTransform="matrix(0.9743 0.2251 -0.2251 0.9743 143.806 -72.8638)">
			<stop offset="0" style="stop-color:#FFFFFF"/>
			<stop offset="0.5456" style="stop-color:#545454"/>
		</linearGradient>
		<path d="M 419.79998779296875 591.2000122070312 L 363.5 578.0999755859375 L 364.6000061035156 573.4000244140625 L 420.8999938964844 586.4000244140625 Z" class="st17" style="fill: url('#SVGID_12_');"/>
		
			<linearGradient id="SVGID_13_" gradientUnits="userSpaceOnUse" x1="390.0523" y1="605.1674" x2="389.3303" y2="591.5779" gradientTransform="matrix(0.9743 0.2251 -0.2251 0.9743 143.806 -72.8638)">
			<stop offset="0" style="stop-color:#FFFFFF"/>
			<stop offset="0.5456" style="stop-color:#545454"/>
		</linearGradient>
		<path d="M 416.29998779296875 609.4000244140625 L 359.29998779296875 596.2000122070312 L 360.3999938964844 591.5 L 417.3999938964844 604.7000122070312 Z" class="st18" style="fill: url('#SVGID_13_');"/>
		
			<linearGradient id="SVGID_14_" gradientUnits="userSpaceOnUse" x1="390.2116" y1="623.9494" x2="389.4879" y2="610.3282" gradientTransform="matrix(0.9743 0.2251 -0.2251 0.9743 143.806 -72.8638)">
			<stop offset="0" style="stop-color:#FFFFFF"/>
			<stop offset="0.5456" style="stop-color:#545454"/>
		</linearGradient>
		<path d="M 412.3999938964844 627.7999877929688 L 355.1000061035156 614.5 L 356.20001220703125 609.7999877929688 L 413.5 623 Z" class="st19" style="fill: url('#SVGID_14_');"/>
		
			<linearGradient id="SVGID_15_" gradientUnits="userSpaceOnUse" x1="390.3618" y1="641.7147" x2="389.6368" y2="628.0699" gradientTransform="matrix(0.9743 0.2251 -0.2251 0.9743 143.806 -72.8638)">
			<stop offset="0" style="stop-color:#FFFFFF"/>
			<stop offset="0.5456" style="stop-color:#545454"/>
		</linearGradient>
		<path d="M 408.70001220703125 645.0999755859375 L 351.1000061035156 631.7999877929688 L 352.20001220703125 627.0999755859375 L 409.70001220703125 640.4000244140625 Z" class="st20" style="fill: url('#SVGID_15_');"/>
		
			<linearGradient id="SVGID_16_" gradientUnits="userSpaceOnUse" x1="390.5086" y1="659.0784" x2="389.7823" y2="645.4077" gradientTransform="matrix(0.9743 0.2251 -0.2251 0.9743 143.806 -72.8638)">
			<stop offset="0" style="stop-color:#FFFFFF"/>
			<stop offset="0.5456" style="stop-color:#545454"/>
		</linearGradient>
		<path d="M 405 662.0999755859375 L 347.20001220703125 648.7000122070312 L 348.29998779296875 644 L 406.1000061035156 657.4000244140625 Z" class="st21" style="fill: url('#SVGID_16_');"/>
		
			<linearGradient id="SVGID_17_" gradientUnits="userSpaceOnUse" x1="390.6381" y1="674.22" x2="389.9103" y2="660.522" gradientTransform="matrix(0.9743 0.2251 -0.2251 0.9743 143.806 -72.8638)">
			<stop offset="0" style="stop-color:#FFFFFF"/>
			<stop offset="0.5456" style="stop-color:#545454"/>
		</linearGradient>
		<path d="M 401.8999938964844 676.9000244140625 L 343.79998779296875 663.5 L 344.79998779296875 658.7999877929688 L 403 672.2000122070312 Z" class="st22" style="fill: url('#SVGID_17_');"/>
		
			<linearGradient id="SVGID_18_" gradientUnits="userSpaceOnUse" x1="390.9709" y1="689.9785" x2="390.2399" y2="676.2207" gradientTransform="matrix(0.9743 0.2251 -0.2251 0.9743 143.806 -72.8638)">
			<stop offset="0" style="stop-color:#FFFFFF"/>
			<stop offset="0.5456" style="stop-color:#545454"/>
		</linearGradient>
		<path d="M 399 692.4000244140625 L 340.20001220703125 678.7999877929688 L 341.29998779296875 674.0999755859375 L 400.1000061035156 687.7000122070312 Z" class="st23" style="fill: url('#SVGID_18_');"/>
		
			<linearGradient id="SVGID_19_" gradientUnits="userSpaceOnUse" x1="390.9715" y1="703.2631" x2="390.2407" y2="689.5075" gradientTransform="matrix(0.9743 0.2251 -0.2251 0.9743 143.806 -72.8638)">
			<stop offset="0" style="stop-color:#FFFFFF"/>
			<stop offset="0.5456" style="stop-color:#545454"/>
		</linearGradient>
		<path d="M 396 705.2999877929688 L 337.20001220703125 691.7999877929688 L 338.29998779296875 687 L 397.1000061035156 700.5999755859375 Z" class="st24" style="fill: url('#SVGID_19_');"/>
		
			<linearGradient id="SVGID_20_" gradientUnits="userSpaceOnUse" x1="390.9707" y1="715.8271" x2="390.24" y2="702.0748" gradientTransform="matrix(0.9743 0.2251 -0.2251 0.9743 143.806 -72.8638)">
			<stop offset="0" style="stop-color:#FFFFFF"/>
			<stop offset="0.5456" style="stop-color:#545454"/>
		</linearGradient>
		<path d="M 393.20001220703125 717.5999755859375 L 334.3999938964844 704 L 335.5 699.2999877929688 L 394.29998779296875 712.9000244140625 Z" class="st25" style="fill: url('#SVGID_20_');"/>
		<path class="st4" d="M439.9,393c0,0,2.4-0.8,2.8,1.2c-0.3,1.4-0.5,0.1-0.4,2.4c0.2,2.3-0.3-1.8-2.4-0.4c-2.1,1.4-4,4.7-7.8,1.2&#10;&#9;&#9;&#9;c-2-3.9-5.9-2.2-6.2-0.2c-1.2,0.2-0.6-7.7,0.9-9.4c1.2,3.6,6.5,5.4,6.8,4.5c0.3-0.9-0.9-2.7-1-3.6c-0.3-2,0.9-6.7,3.9-7.1&#10;&#9;&#9;&#9;c-0.9,4.4,4.8,9.3,1.4,9.6C434.7,391.7,438.1,394.7,439.9,393z" style="fill: rgb(237, 213, 145);"/>
		<path class="st4" d="M426.1,452c0,0,2.4-0.8,2.7,1.2c-0.3,1.4-0.5,0.1-0.4,2.4c0.2,2.2-0.3-1.8-2.3-0.4c-2,1.4-3.9,4.7-7.6,1.2&#10;&#9;&#9;&#9;c-2-3.8-5.7-2.1-6-0.1c-1.1,0.2-0.5-7.5,0.9-9.2c1.2,3.5,6.3,5.3,6.5,4.4c0.3-0.9-0.8-2.6-1-3.5c-0.3-2,0.9-6.6,3.8-7&#10;&#9;&#9;&#9;c-0.9,4.4,4.6,9.1,1.3,9.4C421,450.7,424.3,453.6,426.1,452z" style="fill: rgb(237, 213, 145);"/>
		<path class="st4" d="M413.2,506c0,0,2.2-0.7,2.5,1.1c-0.3,1.2-0.5,0.1-0.3,2.1c0.2,2-0.2-1.6-2.1-0.4c-1.9,1.2-3.6,4.2-7,1&#10;&#9;&#9;&#9;c-1.8-3.4-5.3-2-5.5-0.1c-1,0.2-0.5-6.8,0.8-8.3c1.1,3.2,5.8,4.8,6.1,4c0.3-0.8-0.8-2.4-0.9-3.2c-0.3-1.8,0.8-6,3.5-6.3&#10;&#9;&#9;&#9;c-0.8,3.9,4.3,8.2,1.3,8.5C408.5,504.8,411.6,507.5,413.2,506z" style="fill: rgb(237, 213, 145);"/>
		<path class="st4" d="M402.4,550.6c0,0,1.9-0.6,2.2,0.9c-0.3,1.1-0.4,0.1-0.3,1.9c0.1,1.8-0.2-1.4-1.9-0.3&#10;&#9;&#9;&#9;c-1.6,1.1-3.2,3.7-6.2,0.9c-1.6-3-4.7-1.7-4.9-0.1c-0.9,0.2-0.4-6,0.7-7.3c1,2.8,5.1,4.3,5.4,3.5c0.2-0.7-0.7-2.1-0.8-2.8&#10;&#9;&#9;&#9;c-0.3-1.6,0.7-5.3,3.1-5.5c-0.7,3.5,3.8,7.3,1.1,7.5C398.2,549.5,400.9,551.9,402.4,550.6z" style="fill: rgb(237, 213, 145);"/>
		<path class="st4" d="M379.4,644.3c0,0,1.3-0.4,1.5,0.7c-0.2,0.8-0.3,0.1-0.2,1.3c0.1,1.3-0.2-1-1.3-0.2c-1.1,0.8-2.2,2.6-4.3,0.6&#10;&#9;&#9;&#9;c-1.1-2.1-3.3-1.2-3.4-0.1c-0.6,0.1-0.3-4.2,0.5-5.1c0.7,2,3.6,3,3.7,2.5c0.2-0.5-0.5-1.5-0.6-2c-0.2-1.1,0.5-3.7,2.1-3.9&#10;&#9;&#9;&#9;c-0.5,2.4,2.6,5.1,0.8,5.3C376.5,643.6,378.4,645.2,379.4,644.3z" style="fill: rgb(237, 213, 145);"/>
		<path class="st4" d="M405.9,595.9c0,0,1.5-0.5,1.8,0.8c-0.2,0.9-0.3,0.1-0.2,1.5c0.1,1.4-0.2-1.1-1.5-0.3&#10;&#9;&#9;&#9;c-1.3,0.9-2.5,2.9-4.9,0.7c-1.3-2.4-3.7-1.4-3.9-0.1c-0.7,0.1-0.4-4.8,0.6-5.9c0.8,2.2,4.1,3.4,4.3,2.8c0.2-0.6-0.6-1.7-0.6-2.3&#10;&#9;&#9;&#9;c-0.2-1.2,0.6-4.2,2.4-4.4c-0.6,2.8,3,5.8,0.9,6C402.6,595,404.8,596.9,405.9,595.9z" style="fill: rgb(237, 213, 145);"/>
		<path class="st4" d="M377.6,589.3c0,0,1.5-0.5,1.8,0.8c-0.2,0.9-0.3,0.1-0.2,1.5c0.1,1.4-0.2-1.1-1.5-0.3&#10;&#9;&#9;&#9;c-1.3,0.9-2.5,2.9-4.9,0.7c-1.3-2.4-3.7-1.4-3.9-0.1c-0.7,0.1-0.4-4.8,0.6-5.9c0.8,2.2,4.1,3.4,4.3,2.8c0.2-0.6-0.6-1.7-0.6-2.3&#10;&#9;&#9;&#9;c-0.2-1.2,0.6-4.2,2.4-4.4c-0.6,2.8,3,5.8,0.9,6C374.3,588.5,376.4,590.4,377.6,589.3z" style="fill: rgb(237, 213, 145);"/>
		<path class="st0" d="M436.3,305.9c0,0,5.8-20.5,3.6-27.5c-2.2-7,31.9-125.8,31.9-125.8l13.3,3.1c0,0,17.3-13.4,28.6-8.6&#10;&#9;&#9;&#9;c11.3,4.8,11.5,12.2,12.4,18.1c16.8,5.2,17.1,3.9,17.1,3.9l-40.8,123.8c0,0-20.5,11.6-21.2,23.5&#10;&#9;&#9;&#9;C457.1,310.7,436.3,305.9,436.3,305.9z M489.6,191.7c1.2-3.7-0.3-7.4-3.2-8.3l0,0c-2.9-0.9-3.9,1.8-5,5.5l-27.8,88.3&#10;&#9;&#9;&#9;c-1.2,3.7-2.1,6.8,0.9,7.7l0,0c2.9,0.9,6.2-1.3,7.4-5L489.6,191.7z M520.6,198.9c1.2-3.6-0.2-7.4-3.2-8.3l0,0&#10;&#9;&#9;&#9;c-2.9-0.9-3.9,1.8-5.1,5.4L484,284.2c-1.2,3.6-2.1,6.8,0.8,7.8l0,0c2.9,0.9,6.2-1.3,7.4-4.9L520.6,198.9z" style="fill: rgb(107, 56, 40);"/>
		<g>
			<path class="st26" d="M490.3,209.7c-0.6,2.7-3.8,4.3-7,3.5l-12.2-2.8c-3.3-0.8-3-3-2.4-5.7l0,0c0.6-2.7,1.4-4.8,4.7-4.1l12.2,2.8&#10;&#9;&#9;&#9;&#9;C488.8,204.2,491,207,490.3,209.7L490.3,209.7z" style="fill: rgb(234, 218, 178);"/>
			<path class="st26" d="M481.3,238c-0.6,2.7-3.8,4.3-7,3.5l-12.2-2.8c-3.2-0.8-3-3-2.4-5.7l0,0c0.6-2.7,1.4-4.8,4.7-4.1l12.2,2.8&#10;&#9;&#9;&#9;&#9;C479.8,232.4,482,235.3,481.3,238L481.3,238z" style="fill: rgb(234, 218, 178);"/>
			<path class="st26" d="M471.6,269.2c-0.6,2.7-3.8,4.3-7,3.5l-12.2-2.8c-3.3-0.8-3-3-2.4-5.7l0,0c0.6-2.7,1.4-4.8,4.7-4.1l12.2,2.8&#10;&#9;&#9;&#9;&#9;C470.1,263.6,472.3,266.4,471.6,269.2L471.6,269.2z" style="fill: rgb(234, 218, 178);"/>
		</g>
		<g>
			<path class="st26" d="M521,216.8c-0.6,2.7-3.8,4.3-7,3.5l-9.8-2.3c-3.3-0.8-5.4-3.6-4.8-6.3l0,0c0.6-2.7,3.8-4.3,7-3.5l9.8,2.3&#10;&#9;&#9;&#9;&#9;C519.5,211.3,521.6,214.1,521,216.8L521,216.8z" style="fill: rgb(234, 218, 178);"/>
			<path class="st26" d="M512,245.1c-0.6,2.7-3.8,4.3-7,3.5l-9.8-2.3c-3.3-0.8-5.4-3.6-4.8-6.3l0,0c0.6-2.7,3.8-4.3,7-3.5l9.8,2.3&#10;&#9;&#9;&#9;&#9;C510.5,239.5,512.6,242.3,512,245.1L512,245.1z" style="fill: rgb(234, 218, 178);"/>
			<path class="st26" d="M502.3,276.2c-0.6,2.7-3.8,4.3-7,3.5l-9.8-2.3c-3.3-0.8-5.4-3.6-4.8-6.3l0,0c0.6-2.7,3.8-4.3,7-3.5l9.8,2.3&#10;&#9;&#9;&#9;&#9;C500.8,270.7,502.9,273.5,502.3,276.2L502.3,276.2z" style="fill: rgb(234, 218, 178);"/>
		</g>
		<linearGradient id="SVGID_21_" gradientUnits="userSpaceOnUse" x1="476.08" y1="213.1563" x2="533.8407" y2="362.1139">
			<stop offset="0" style="stop-color:#EDD591"/>
			<stop offset="0.4455" style="stop-color:#E0BE77"/>
			<stop offset="0.6545" style="stop-color:#DCB36B"/>
		</linearGradient>
		<path class="st27" d="M431.6,304.8c0,0,5.8-20.5,3.6-27.5c-2.2-7,31.9-125.8,31.9-125.8l13.3,3.1c0,0,17.3-13.4,28.6-8.6&#10;&#9;&#9;&#9;c11.3,4.8,11.5,12.2,12.4,18.1c16.8,5.2,17.1,3.9,17.1,3.9l-40.8,123.8c0,0-17,12.4-17.7,24.3&#10;&#9;&#9;&#9;C455.9,310.4,431.6,304.8,431.6,304.8z M484.9,190.6c1.1-3.7-0.3-7.4-3.2-8.3l0,0c-2.9-0.9-6.2,1.3-7.4,5l-27.8,88.3&#10;&#9;&#9;&#9;c-1.2,3.7,0.3,7.4,3.2,8.3l0,0c2.9,0.9,6.2-1.3,7.4-5L484.9,190.6z M515.9,197.8c1.2-3.6-0.2-7.4-3.2-8.3l0,0&#10;&#9;&#9;&#9;c-2.9-0.9-6.2,1.3-7.4,4.9l-28.4,88.1c-1.2,3.6,0.2,7.4,3.2,8.3l0,0c2.9,0.9,6.2-1.3,7.4-4.9L515.9,197.8z" style="fill: url('#SVGID_21_');"/>
		
			<path d="M 429 305.200012 H 480.299999 V 309.500012 H 429 V 305.200012 Z" transform="matrix(0.9743 0.2251 -0.2251 0.9743 80.8358 -94.4322)" class="st26" style="fill: rgb(234, 218, 178);"/>
		<g>
			<linearGradient id="SVGID_22_" gradientUnits="userSpaceOnUse" x1="317.0797" y1="917.7552" x2="309.9086" y2="949.5815">
				<stop offset="0" style="stop-color:#FFFFFF"/>
				<stop offset="0.1156" style="stop-color:#E6E6E6"/>
				<stop offset="0.3617" style="stop-color:#A6A6A6"/>
				<stop offset="0.6465" style="stop-color:#545454"/>
			</linearGradient>
			<path d="M 350 942.9000244140625 L 276.6000061035156 925.9000244140625 L 278 920.2000122070312 L 351.29998779296875 937.0999755859375 Z" class="st28" style="fill: url('#SVGID_22_');"/>
		</g>
		<g>
			<path class="st29" d="M520.3,273.6c1.2,1.1,1.1,6.1,0.3,8.3c-0.7,2-3.3,5.6-4.8,5.8c-1.3,0.2-3.8-0.5-4.9-1.2&#10;&#9;&#9;&#9;&#9;c-1.6-1.1-2.3-2.9-2-4l2.7-8.4c0.4-1.1,2-2.2,4-2.2C517,271.9,519.4,272.8,520.3,273.6z" style="fill: rgb(224, 180, 69);"/>
			<path class="st26" d="M509.4,275.1c-0.4-0.1-0.6-0.5-0.7-1.1l-0.3-0.1c-0.3,0.5-0.7,0.8-1.1,0.7c-0.4-0.1-0.6-0.5-0.6-1.1&#10;&#9;&#9;&#9;&#9;l-1.2-0.3c-0.9-0.2-2.9,8.1-1.9,8.3l1.1,0.3c0.3-0.6,0.8-0.9,1.1-0.8c0.4,0.1,0.6,0.6,0.7,1.3l0.2,0c0.3-0.6,0.8-0.9,1.1-0.8&#10;&#9;&#9;&#9;&#9;c0.4,0.1,0.6,0.6,0.7,1.3l1.4,0.3c0.9,0.2,1.3-1.7,1.8-4c0.5-2.3,1.1-4.1,0.1-4.4l-1.4-0.3C510.2,274.9,509.8,275.2,509.4,275.1z&#10;&#9;&#9;&#9;&#9;" style="fill: rgb(234, 218, 178);"/>
			<path class="st30" d="M519.5,274.1c1.2,1.1,1.1,6.1,0.3,8.3c-0.7,2-3.3,5.6-4.8,5.8c-1.3,0.2-3.8-0.5-4.9-1.2&#10;&#9;&#9;&#9;&#9;c-1.6-1.1-2.3-2.9-2-4l2.7-8.4c0.4-1.1,2-2.2,4-2.2C516.1,272.4,518.6,273.2,519.5,274.1z" style="fill: rgb(213, 198, 145);"/>
		</g>
		<g>
			<path class="st29" d="M530.9,241.7c1.2,1.1,1.1,6.1,0.3,8.3c-0.7,2-3.3,5.6-4.8,5.8c-1.3,0.2-3.8-0.5-4.9-1.2&#10;&#9;&#9;&#9;&#9;c-1.6-1.1-2.3-2.9-2-4l2.7-8.4c0.4-1.1,2-2.2,4-2.2C527.5,240,530,240.9,530.9,241.7z" style="fill: rgb(224, 180, 69);"/>
			<path class="st26" d="M520,243.2c-0.4-0.1-0.6-0.5-0.7-1.1L519,242c-0.3,0.5-0.7,0.8-1.1,0.7c-0.4-0.1-0.6-0.5-0.7-1.1l-1.2-0.3&#10;&#9;&#9;&#9;&#9;c-0.9-0.2-2.9,8.1-1.9,8.3l1.1,0.3c0.3-0.6,0.8-0.9,1.1-0.8c0.4,0.1,0.6,0.6,0.7,1.3l0.2,0c0.3-0.6,0.8-0.9,1.1-0.8&#10;&#9;&#9;&#9;&#9;c0.4,0.1,0.6,0.6,0.7,1.3l1.4,0.3c0.9,0.2,1.3-1.7,1.8-4c0.5-2.3,1.1-4.1,0.1-4.4l-1.4-0.3C520.7,243,520.3,243.3,520,243.2z" style="fill: rgb(234, 218, 178);"/>
			<path class="st30" d="M530,242.2c1.2,1.1,1.1,6.1,0.3,8.3c-0.7,2-3.3,5.6-4.8,5.8c-1.3,0.2-3.8-0.5-4.9-1.2c-1.6-1.1-2.3-2.9-2-4&#10;&#9;&#9;&#9;&#9;l2.7-8.4c0.4-1.1,2-2.2,4-2.2C526.6,240.5,529.1,241.3,530,242.2z" style="fill: rgb(213, 198, 145);"/>
		</g>
		<g>
			<path class="st29" d="M539.8,213.4c1.2,1.1,1.1,6.1,0.3,8.3c-0.7,2-3.3,5.6-4.8,5.8c-1.3,0.2-3.8-0.5-4.9-1.2&#10;&#9;&#9;&#9;&#9;c-1.6-1.1-2.3-2.9-2-4l2.7-8.4c0.4-1.1,2-2.2,4-2.2C536.4,211.8,538.9,212.6,539.8,213.4z" style="fill: rgb(224, 180, 69);"/>
			<path class="st26" d="M528.9,214.9c-0.4-0.1-0.6-0.5-0.7-1.1l-0.3-0.1c-0.3,0.5-0.7,0.8-1.1,0.7c-0.4-0.1-0.6-0.5-0.7-1.1&#10;&#9;&#9;&#9;&#9;l-1.2-0.3c-1-0.2-2.9,8.1-1.9,8.3l1.1,0.3c0.3-0.6,0.8-0.9,1.1-0.8c0.4,0.1,0.6,0.6,0.7,1.3l0.2,0c0.3-0.6,0.8-0.9,1.1-0.8&#10;&#9;&#9;&#9;&#9;c0.4,0.1,0.6,0.6,0.7,1.3l1.4,0.3c1,0.2,1.3-1.7,1.8-4c0.5-2.3,1.1-4.1,0.1-4.4l-1.4-0.3C529.6,214.7,529.2,215,528.9,214.9z" style="fill: rgb(234, 218, 178);"/>
			<path class="st30" d="M538.9,213.9c1.2,1.1,1.1,6.1,0.3,8.3c-0.7,2-3.3,5.6-4.8,5.8c-1.3,0.2-3.8-0.5-4.9-1.2&#10;&#9;&#9;&#9;&#9;c-1.6-1.1-2.3-2.9-2-4l2.7-8.4c0.4-1.1,2-2.2,4-2.2C535.5,212.2,538,213,538.9,213.9z" style="fill: rgb(213, 198, 145);"/>
		</g>
		<g>
			<path class="st29" d="M433.4,231.3c-1.2-1.1-1.1-6.1-0.3-8.3c0.7-2,3.3-5.6,4.8-5.8c1.3-0.2,3.8,0.5,4.9,1.2c1.6,1.1,2.3,2.9,2,4&#10;&#9;&#9;&#9;&#9;l-2.7,8.4c-0.4,1.1-2,2.2-4,2.2C436.7,233,434.3,232.2,433.4,231.3z" style="fill: rgb(224, 180, 69);"/>
			<path class="st30" d="M431.9,231c-1.2-1.1-1.1-6.1-0.3-8.3c0.7-2,3.3-5.6,4.8-5.8c1.3-0.2,3.8,0.5,4.9,1.2c1.6,1.1,2.3,2.9,2,4&#10;&#9;&#9;&#9;&#9;l-2.7,8.4c-0.4,1.1-2,2.2-4,2.2C435.2,232.7,432.8,231.8,431.9,231z" style="fill: rgb(213, 198, 145);"/>
			<path class="st26" d="M447,223.4c-0.2,0.1-0.4,0.2-0.6,0.1c-0.4-0.1-0.6-0.6-0.6-1.3l-1.4-0.4c-0.9-0.3-1.4,1.6-2.1,3.8&#10;&#9;&#9;&#9;&#9;c-0.7,2.3-1.3,4.1-0.4,4.3l1.4,0.4c0.4-0.5,0.8-0.8,1.1-0.7c0.3,0.1,0.5,0.6,0.6,1.2l0.2,0L447,223.4z" style="fill: rgb(234, 218, 178);"/>
		</g>
		<g>
			<path class="st29" d="M440.5,204.2c-1.2-1.1-1.1-6.1-0.3-8.3c0.7-2,3.3-5.6,4.8-5.8c1.3-0.2,3.8,0.5,4.9,1.2c1.6,1.1,2.3,2.9,2,4&#10;&#9;&#9;&#9;&#9;l-2.7,8.4c-0.4,1.1-2,2.2-4,2.2C443.9,205.9,441.4,205.1,440.5,204.2z" style="fill: rgb(224, 180, 69);"/>
			<path class="st30" d="M439.2,203.9c-1.2-1.1-1.1-6.1-0.3-8.3c0.7-2,3.3-5.6,4.8-5.8c1.3-0.2,3.8,0.5,4.9,1.2c1.6,1.1,2.3,2.9,2,4&#10;&#9;&#9;&#9;&#9;l-2.7,8.4c-0.4,1.1-2,2.2-4,2.2C442.5,205.6,440.1,204.8,439.2,203.9z" style="fill: rgb(213, 198, 145);"/>
			<path class="st26" d="M454.4,197.1c-0.2,0.1-0.6-0.6-0.8-0.6c-0.4-0.1-0.6-0.6-0.6-1.3l-1.4-0.4c-0.9-0.3-1.4,1.6-2.1,3.8&#10;&#9;&#9;&#9;&#9;c-0.7,2.3-1.3,4.1-0.4,4.3l1.4,0.4c0.4-0.5,0.8-0.8,1.1-0.6c0.4,0.1,0.5,0.6,0.6,1.2l0.2,0.1L454.4,197.1z" style="fill: rgb(234, 218, 178);"/>
		</g>
		<g>
			<path class="st29" d="M425,265.3c-1.2-1.1-1.1-6.1-0.3-8.3c0.7-2,3.3-5.6,4.8-5.8c1.3-0.2,3.8,0.5,4.9,1.2c1.6,1.1,2.3,2.9,2,4&#10;&#9;&#9;&#9;&#9;l-2.7,8.4c-0.4,1.1-2,2.2-4,2.2C428.4,267,425.9,266.1,425,265.3z" style="fill: rgb(224, 180, 69);"/>
			<path class="st30" d="M423.5,264.9c-1.2-1.1-1.1-6.1-0.3-8.3c0.7-2,3.3-5.6,4.8-5.8c1.3-0.2,3.8,0.5,4.9,1.2c1.6,1.1,2.3,2.9,2,4&#10;&#9;&#9;&#9;&#9;l-2.7,8.4c-0.4,1.1-2,2.2-4,2.2C426.9,266.6,424.4,265.8,423.5,264.9z" style="fill: rgb(213, 198, 145);"/>
			<path class="st26" d="M438.7,257.4c-0.2,0.1-0.4,0.2-0.6,0.1c-0.4-0.1-0.6-0.6-0.6-1.3l-1.4-0.4c-0.9-0.3-1.4,1.6-2.1,3.8&#10;&#9;&#9;&#9;&#9;c-0.7,2.3-1.3,4.1-0.4,4.3l1.4,0.4c0.4-0.5,0.8-0.8,1.1-0.6c0.3,0.1,0.5,0.6,0.6,1.2l0.2,0L438.7,257.4z" style="fill: rgb(234, 218, 178);"/>
		</g>
		<path d="M 281.100006 947.299988 L 434.600006 304.299988 L 451.5 260.700012" class="st31" style="fill: none; stroke: rgb(255, 255, 255);"/>
		<path d="M 290.799988 949.5 L 441.899994 306 L 463.200012 228.600006" class="st31" style="fill: none; stroke: rgb(255, 255, 255);"/>
		<path d="M 302.600006 952.200012 L 449 307.700012 L 472.200012 200.800003" class="st31" style="fill: none; stroke: rgb(255, 255, 255);"/>
		<path d="M 314.399994 955 L 456.700012 309.399994 L 510.799988 209.800003" class="st32" style="fill: none; stroke: rgb(255, 255, 255); stroke-width: 0.75;"/>
		<path d="M 323.799988 957.099976 L 465.5 311.5 L 501.299988 237.899994" class="st32" style="fill: none; stroke: rgb(255, 255, 255); stroke-width: 0.75;"/>
		<path d="M 333.200012 959.299988 L 474.899994 313.700012 L 491.299988 269.899994" class="st33" style="fill: none; stroke: rgb(255, 255, 255); stroke-width: 0.5;"/>
		
			<linearGradient id="SVGID_23_" gradientUnits="userSpaceOnUse" x1="291.5838" y1="949.9847" x2="294.5349" y2="949.9847" gradientTransform="matrix(0.9761 0.2173 -0.2026 0.9103 181.5529 11.2105)">
			<stop offset="0" style="stop-color:#FFFFFF"/>
			<stop offset="0.1156" style="stop-color:#E6E6E6"/>
			<stop offset="0.3617" style="stop-color:#A6A6A6"/>
			<stop offset="0.6465" style="stop-color:#545454"/>
		</linearGradient>
		<path d="M 272.29998779296875 945.4000244140625 L 275.20001220703125 946.0999755859375 L 277.8999938964844 933.9000244140625 L 275.1000061035156 933.2000122070312 Z" class="st34" style="fill: url('#SVGID_23_');"/>
		
			<linearGradient id="SVGID_24_" gradientUnits="userSpaceOnUse" x1="363.6773" y1="950.6559" x2="366.6275" y2="950.6559" gradientTransform="matrix(0.9761 0.2173 -0.2026 0.9103 181.5529 11.2105)">
			<stop offset="0" style="stop-color:#FFFFFF"/>
			<stop offset="0.1156" style="stop-color:#E6E6E6"/>
			<stop offset="0.3617" style="stop-color:#A6A6A6"/>
			<stop offset="0.6465" style="stop-color:#545454"/>
		</linearGradient>
		<path d="M 342.6000061035156 961.7000122070312 L 345.5 962.4000244140625 L 348.20001220703125 950.2000122070312 L 345.29998779296875 949.5 Z" class="st35" style="fill: url('#SVGID_24_');"/>
		<g>
			<linearGradient id="SVGID_25_" gradientUnits="userSpaceOnUse" x1="312.3202" y1="938.4872" x2="305.1475" y2="970.3205">
				<stop offset="0" style="stop-color:#FFFFFF"/>
				<stop offset="0.1156" style="stop-color:#E6E6E6"/>
				<stop offset="0.3617" style="stop-color:#A6A6A6"/>
				<stop offset="0.6465" style="stop-color:#545454"/>
			</linearGradient>
			<path d="M 345.20001220703125 963.5999755859375 L 271.8999938964844 946.5999755859375 L 273.20001220703125 940.9000244140625 L 346.6000061035156 957.7999877929688 Z" class="st36" style="fill: url('#SVGID_25_');"/>
		</g>
		<g>
			<linearGradient id="SVGID_26_" gradientUnits="userSpaceOnUse" x1="313.939" y1="930.8347" x2="306.7668" y2="962.6656">
				<stop offset="0" style="stop-color:#FFFFFF"/>
				<stop offset="0.1156" style="stop-color:#E6E6E6"/>
				<stop offset="0.3617" style="stop-color:#A6A6A6"/>
				<stop offset="0.6465" style="stop-color:#545454"/>
			</linearGradient>
			<path d="M 346.79998779296875 955.9000244140625 L 273.5 939 L 274.79998779296875 933.2000122070312 L 348.20001220703125 950.2000122070312 Z" class="st37" style="fill: url('#SVGID_26_');"/>
		</g>
		<path class="st38" d="M510.7,165.8c0,0,2.3-2.7,5.3-0.4c1.3,1.9-0.5,0.5,2.6,3.3c3.1,2.7-2.7-2.1-3.7,1.1&#10;&#9;&#9;&#9;c-1.1,3.2,0.4,8.7-9.1,6.9c-7.6-3.4-10.8,1.3-8.5,4c-1.3,1.1-10.4-9.2-10.5-12.4c6.1,3.6,15.6,2.3,14.8,1&#10;&#9;&#9;&#9;c-0.8-1.3-4.6-2.7-5.9-3.8c-2.9-2.3-7.2-9-3.6-11.5c4.3,6.2,18.1,8.3,14,11.1C501.9,167.7,510.4,169.2,510.7,165.8z" style="fill: rgb(237, 213, 145); stroke: rgb(241, 242, 242);"/>
	</g>
</g>

</svg>