<?xml version="1.0" encoding="utf-8"?>
<svg id="master-artboard" viewBox="0 0 946.0541381835938 428.2652893066406" version="1.1" xmlns="http://www.w3.org/2000/svg" x="0px" y="0px" style="enable-background:new 0 0 612 606.1;" width="946.0541381835938px" height="428.2652893066406px"><rect id="ee-background" x="0" y="0" width="946.0541381835938" height="428.2652893066406" style="fill: white; fill-opacity: 0; pointer-events: none;"/>

<g transform="matrix(-0.0041007153030677285, 0.964665174454445, -0.964665174454445, -0.0041007153030677285, 724.047671382355, -196.3601205238799)">
	<path d="M 429.1000061035156 99.80000305175781 L 408.29998779296875 99.80000305175781 L 411.5 63.099998474121094 L 426 63.099998474121094 Z" class="st0" style="fill: rgb(18, 16, 17);"/>
	<path class="st1" d="M503.6,428.8L503.6,428.8c0,0-3-7.1,3.2-21.7c1.3-3.1-0.9-4.1-2-4.1c-1.1,0.1-2.2,0.4-3.4,0.7&#10;&#9;&#9;c-1.2,0.5-2.5,0.8-3.8,0.9c-0.8,0.1-1.7,0.1-2.7,0c-7.1-0.7-9.4-3.7-13.7-13.1c-10.6-24.9-7.4-44.3-3.4-55.9&#10;&#9;&#9;c0.1-0.3,0.3-0.7,0.4-1.1c3.6-10.4,18-7.2,18-7.2s1.3,0,0.3-3.5c-4.8-5.6-3.6-15.9-2.5-21.3c1.6-3.7,3.1-7.6,4.3-11.8&#10;&#9;&#9;c13.9-48.6-24.6-79.5-68.9-82.3c-1.4-0.1-5.4-0.2-8.8-0.2v0c-0.2,0-0.3,0-0.5,0c-0.2,0-0.3,0-0.5,0v0c-0.3,0-0.7,0-1.1,0&#10;&#9;&#9;c-0.4,0-0.7,0-1.1,0v0c-0.2,0-0.3,0-0.5,0c-0.2,0-0.3,0-0.5,0v0c-3.3,0-7.4,0.1-8.8,0.2c-44.3,2.7-82.8,33.7-68.9,82.3&#10;&#9;&#9;c1.2,4.1,2.7,8,4.3,11.8c1.1,5.4,2.4,15.7-2.5,21.3c-1,3.5,0.3,3.5,0.3,3.5s14.4-3.1,18,7.2c0.1,0.4,0.3,0.7,0.4,1.1&#10;&#9;&#9;c3.9,11.6,7.1,31-3.4,55.9c-4.3,9.4-6.7,12.4-13.7,13.1c-0.9,0.1-1.8,0.1-2.7,0c-1.3-0.1-2.6-0.4-3.8-0.9c-1.2-0.3-2.3-0.7-3.4-0.7&#10;&#9;&#9;c-1.1-0.1-3.4,0.9-2,4.1c6.2,14.6,3.2,21.7,3.2,21.7l0,0c-15.7,30.3-13,56-9.5,69.6c5.8,36.7,44.4,52,92.4,52.6c0,0,1.6,0,2,0&#10;&#9;&#9;c0.4,0,2,0,2,0c48-0.6,86.6-15.9,92.4-52.6C516.6,484.8,519.3,459.1,503.6,428.8z" style="fill: rgb(181, 75, 38); stroke: rgb(127, 44, 25); stroke-width: 3; stroke-miterlimit: 10;"/>
	<path class="st2" d="M343.4,302.5c1.1,5.4,2.4,15.7-2.5,21.3c-1,3.5,0.3,3.5,0.3,3.5s4.5-1,9.1,0c-0.4-2.6-0.8-5.1-1.2-7.6&#10;&#9;&#9;c-1.5-10.4-2.9-20.9-3.4-31.4c-0.7-14.1-1.9-35.5,9.9-45.8c7.9-6.9,20-9.1,29.1-2.7c8.6,6.1,12.2,16.1,14.5,26&#10;&#9;&#9;c2.3,10,3.7,20.3,5,30.5c0.9,7.1,2,14.2,1.6,21.4c-0.2,2.6-0.4,5.2-0.4,7.8c1.2,0.3,2.3,0.7,3.5,1.1c4,1.5,7.7,3.7,10.9,6.6&#10;&#9;&#9;c4.3-7.7,8.1-15.6,11.8-23.6c0.5-1,0.9-2,1.4-3c0.1-0.3,0.3-0.7,0.5-1.2c0.9-2.3,1.7-4.6,2.4-6.9c0.2-0.8,1.2-5.8,1.1-3.8&#10;&#9;&#9;c0.1-1,0.1-2,0.2-3c0.4-9.7,2.4-18.5,9.6-25.5c5.1-4.9,14.4-7.1,20.6-2.7c12.9,9.2,19.5,21.3,17,37.3c-1.5,9.8-7.2,18.6-11.9,27.2&#10;&#9;&#9;c-0.9,1.7-1.9,3.4-2.7,5.1c0.4-0.6-0.5,1.8-1,3.4c0,0.7-0.1,2-0.1,2.3c0,0.2,0,0.4,0,0.6c0,0,0,0.1,0,0.1c0.5,2.1,1.1,4.1,1.8,6.1&#10;&#9;&#9;c0.3,0.7,2,4.7,0.2,0.7c0.5,1.2,1,2.4,1.5,3.5c0.6,1.4,1.2,2.8,1.8,4.2c0.4-7.4,2-13.5,3.6-18.4c0.1-0.3,0.3-0.7,0.4-1.1&#10;&#9;&#9;c3.6-10.4,18-7.2,18-7.2s1.3,0,0.3-3.5c-4.8-5.6-3.6-15.9-2.5-21.3c1.6-3.7,3.1-7.6,4.3-11.8c13.9-48.6-24.6-79.5-68.9-82.3&#10;&#9;&#9;c-1.4-0.1-5.4-0.2-8.8-0.2v0c-0.2,0-0.3,0-0.5,0c-0.2,0-0.3,0-0.5,0v0c-0.3,0-0.7,0-1.1,0c-0.4,0-0.7,0-1.1,0v0c-0.2,0-0.3,0-0.5,0&#10;&#9;&#9;c-0.2,0-0.3,0-0.5,0v0c-3.3,0-7.4,0.1-8.8,0.2c-44.3,2.7-82.8,33.7-68.9,82.3C340.2,294.9,341.7,298.8,343.4,302.5z" style="opacity: 0.34; fill: rgb(203, 154, 157);"/>
	<path class="st3" d="M419.2,309.3c-0.6,1.5-1,3.2-1.1,5c0.2-0.6,0.5-1.3,0.7-1.9C419,311.3,419.1,310.2,419.2,309.3z" style="opacity: 0.34; fill: rgb(140, 37, 28);"/>
	<path class="st2" d="M506.5,434.9C506.5,434.9,506.5,434.9,506.5,434.9c0.3,1.7,0.5,3.5,0.8,5.2c0.6,3.5,1.3,7,1.9,10.4&#10;&#9;&#9;c2,11.6,3.8,23.6,0.8,35.2c-3,11.8-11.5,22.3-22.9,26.7c-0.6,0.8-1.2,1.6-1.8,2.4c-2.8,6.2-7.4,11.6-13.6,15.6&#10;&#9;&#9;c-7.3,4.7-16.3,6.6-24.9,7c-3,0.5-6,0.9-9,1.2c-8,0.8-15.9,0.4-23.9,0.3c-5.7-0.1-11.2,0.8-16.8,1.3c-16.9,1.4-37.1-1.3-47.2-16.5&#10;&#9;&#9;c-16.4-10.3-19.1-31-18.7-49.8c-2.7-6.2-5.1-12.5-7.1-18.9c-4.2,18.6-2.2,33.8,0.2,43.3c5.8,36.7,44.4,52,92.4,52.6c0,0,1.6,0,2,0&#10;&#9;&#9;c0.4,0,2,0,2,0c48-0.6,86.6-15.9,92.4-52.6C516.3,485.7,518.9,462.6,506.5,434.9z" style="opacity: 0.34; fill: rgb(203, 154, 157);"/>
	<path class="st4" d="M418.5,357.8c0.1,1,0.3,1.9,0.4,2.8c0-1.6,0-3.1,0-4.5C418.8,356.6,418.6,357.2,418.5,357.8z" style="opacity: 0.27; fill: rgb(234, 62, 52);"/>
	<path class="st4" d="M419.6,355.8c-0.4-1.1-0.7-2.2-1-3.4c-0.2,0.6-0.5,1.2-0.8,1.9C418.2,354.8,418.9,355.3,419.6,355.8z" style="opacity: 0.27; fill: rgb(234, 62, 52);"/>
	<path d="M384.9,357.1c-5.5,1.6-8.2,10.4-8.6,14.6c-0.7,8.7-0.4,21.2-1.9,34.9c-1.7,8.1-5.2,8-7.7,6.7c1.2-0.8,2-2.2,2-3.7&#10;&#9;&#9;c0-2.5-3.1-4.6-4.7-4.5c-3.4,0.2-4.5,2.9-5,4.5c-0.3,1-0.2,2.6,0.9,4.1c0.6,0.9,4.2,4.9,11.7,1.2c9.1-4.4,7.8-17.5,8.1-19&#10;&#9;&#9;c0.3-1.4-1.2-20.7,1.4-31.7c2.6-7.9,6.5-6,8.9-3.7c-1.4,0.3-2.5,1.4-2.5,2.7c0,1.5,1.4,2.8,3.2,2.8c1.8,0,3.2-1.2,3.2-2.8&#10;&#9;&#9;C394.1,362.1,392.3,355.5,384.9,357.1z"/>
	<path d="M448.2,356.6c5.5,1.6,8.2,10.4,8.6,14.6c0.7,8.7,0.4,21.2,1.9,34.9c1.7,8.1,5.2,8,7.7,6.7c-1.2-0.8-2-2.2-2-3.7&#10;&#9;&#9;c0-2.5,3.1-4.6,4.7-4.5c3.4,0.2,4.5,2.9,5,4.5c0.3,1,0.2,2.6-0.9,4.1c-0.6,0.9-4.2,4.9-11.7,1.2c-9.1-4.4-7.8-17.5-8.1-19&#10;&#9;&#9;c-0.3-1.4,1.2-20.7-1.4-31.7c-2.6-7.9-6.5-6-8.9-3.7c1.4,0.3,2.5,1.4,2.5,2.7c0,1.5-1.4,2.8-3.2,2.8c-1.8,0-3.2-1.2-3.2-2.8&#10;&#9;&#9;C439.1,361.7,440.8,355,448.2,356.6z"/>
	<path d="M 416.399994 544.099976 H 419.799994 V 584.399975 H 416.399994 V 544.099976 Z" class="st5" style="fill: rgb(114, 102, 88);"/>
	<path class="st6" d="M417.6,69H407v-1.2h-2.4v-5.4c-0.8-0.3-1.7-0.4-2.7-0.4c-4.8,0-8.6,3.9-8.6,8.6c0,4.8,3.9,8.6,8.6,8.6&#10;&#9;&#9;c0.9,0,1.8-0.2,2.7-0.4v-5.4h2.4v-1.2h10.6V69z" style="fill: rgb(71, 70, 71);"/>
	<path class="st7" d="M399.8,78.7c-1.1-0.4-2.9-1.9-2.3-3.3c0.4-0.9,0.9-1.2,1.6-1.4c0-0.1-0.1-0.2-0.1-0.2&#10;&#9;&#9;c-0.1-0.3-0.5-1.4-0.9-1.5c-3.9-0.7-2.3-5.6-0.2-7.5c1.8-1.5,4.6-2.5,6.7-1.5c0,0,0,0,0.1,0v-0.8c-0.8-0.3-1.7-0.4-2.7-0.4&#10;&#9;&#9;c-4.8,0-8.6,3.9-8.6,8.6c0,4.8,3.9,8.6,8.6,8.6c0.7,0,1.4-0.1,2.1-0.3c0,0,0,0,0-0.1C402.6,79.1,401.2,79.2,399.8,78.7z" style="fill: rgb(209, 211, 212);"/>
	<path class="st6" d="M434.9,58.5c-0.9,0-1.8,0.1-2.7,0.3v4.4h-2.4v0.6h-10.4v0.4h-0.2v2.6h0.2v0.4h10.4v0.6h2.4v4.4&#10;&#9;&#9;c0.8,0.2,1.7,0.3,2.7,0.3c4.8,0,8.6-3.1,8.6-7C443.5,61.6,439.6,58.5,434.9,58.5z" style="fill: rgb(71, 70, 71);"/>
	<path class="st7" d="M434.9,58.5c-0.9,0-1.8,0.1-2.7,0.3v4.4h-2.4v0.6H424c0.5,0.2,1.1,0.4,1.8,0.3c0.5,0,5.8,0.2,5.8,0.1&#10;&#9;&#9;c0.5-1,1.1-1.7,1.8-2.4c0.9-1.2,2.5-2,4.2-1.7c4.4,0.7,5.4,6.4,3.6,9.9c1.4-1.2,2.2-2.9,2.2-4.7C443.5,61.6,439.6,58.5,434.9,58.5z&#10;&#9;&#9;" style="fill: rgb(209, 211, 212);"/>
	<path class="st6" d="M437.8,76.8c-0.9,0-1.8,0.1-2.7,0.2v1.3h-2.2v1.1h-11.1V83h11.1v0.5h2.2v1c0.8,0.1,1.7,0.2,2.7,0.2&#10;&#9;&#9;c4.8,0,8.6-1.8,8.6-4C446.4,78.6,442.5,76.8,437.8,76.8z" style="fill: rgb(71, 70, 71);"/>
	<path class="st7" d="M427.7,79.3c1,0.1,3,0,4.4,0H427.7z" style="fill: rgb(209, 211, 212);"/>
	<path class="st7" d="M437.8,76.8c-0.9,0-1.8,0.1-2.7,0.2v1.3h-2.2v1.1h-2.2c1,0.1,2,0.6,2.9,0.1c0.6-0.4,1.3-0.8,2.1-1.1&#10;&#9;&#9;c1.6-0.6,3.1-0.7,4.8-0.5c3.1,0.4,4.3,3.5,3.6,5.7c1.5-0.7,2.4-1.7,2.4-2.8C446.4,78.6,442.5,76.8,437.8,76.8z" style="fill: rgb(209, 211, 212);"/>
	<path class="st6" d="M399.5,81.2c0.9,0,1.8,0.1,2.7,0.3v2.6h2v0.8h0.3V85h10.6v3.4h-10.6v0h-0.3v0.5h-2v2.9&#10;&#9;&#9;c-0.8,0.2-1.7,0.3-2.7,0.3c-4.8,0-8.6-2.4-8.6-5.4C390.9,83.6,394.8,81.2,399.5,81.2z" style="fill: rgb(71, 70, 71);"/>
	<path class="st7" d="M397.1,91.1c-1.7-0.3-2.7-0.7-3.5-2.3c-0.2-0.5-0.4-1.2,0-1.7c0.5-0.6,1-1.1,1.6-1.3c-0.6-0.8-0.4-1.8,0.5-2.4&#10;&#9;&#9;c1.4-1,2.9-1.6,4.6-1.4c0.5-0.3,1.1-0.4,1.8,0v-0.5c-0.8-0.2-1.7-0.3-2.7-0.3c-4.8,0-8.6,2.4-8.6,5.4c0,3,3.9,5.4,8.6,5.4&#10;&#9;&#9;c0.3,0,0.6,0,1,0C399.4,91.3,398.4,91.4,397.1,91.1z" style="fill: rgb(209, 211, 212);"/>
	<path d="M 433.3999938964844 350.5 L 403.8999938964844 350.5 L 411.3999938964844 92.0999984741211 L 426.29998779296875 92.0999984741211 Z" class="st0" style="fill: rgb(18, 16, 17);"/>
	<path d="M 412 89.5 L 410 89.5 L 412.5 63.099998474121094 L 413.6000061035156 63.099998474121094 Z" class="st8" style="fill: rgb(181, 75, 38);"/>
	<path d="M 425.29998779296875 89.5 L 427.29998779296875 89.5 L 424.79998779296875 63.099998474121094 L 423.70001220703125 63.099998474121094 Z" class="st8" style="fill: rgb(181, 75, 38);"/>
	<path d="M 413 102.4000015258789 L 409.70001220703125 350.5 L 433.3999938964844 350.5 L 426.29998779296875 92.0999984741211 L 411.3999938964844 92.0999984741211 L 411.1000061035156 102.4000015258789 Z" class="st6" style="fill: rgb(71, 70, 71);"/>
	<path class="st8" d="M428.1,39.3L428.1,39.3l0-1.3c0-1.5-1.5-2.7-3.4-2.7c-0.1,0-0.1,0-0.2,0l-1.3-8.1h-9.3l-1.3,7.8&#10;&#9;&#9;c-0.1,0-0.1,0-0.2,0c-1.9,0-3.4,1.2-3.4,2.7v1.6c-2.1,0.1-4.9,1.5-4.9,3.2V46c0,1.7,2.8,3.1,4.9,3.2v1.1c0,1.4,2.4,2.5,4,2.7&#10;&#9;&#9;l-1.5,10.1H426l-1.9-9.9c1.6-0.2,4-1.3,4-2.7v-1.3h0c2.2,0,5.2-1.5,5.2-3.3v-3.5C433.3,40.7,430.4,39.3,428.1,39.3z" style="fill: rgb(181, 75, 38);"/>
	<path class="st9" d="M431.3,450.1c-1.5,1.4-6.6,2.5-12.6,2.5c-6.1,0-11.2-1.1-12.6-2.5h-0.4v4.1h1.2c1.8,7.4,5.8,23.8,6.5,30.5&#10;&#9;&#9;c1,9.7,1.5,31.6,0.5,47.1c-0.4,6.7-3,26.8-3,26.8h15.3c0,0-2-19.9-2.4-26.6c-0.9-15.5-0.6-37.5,0.5-47.3c0.7-6.7,4.7-23.1,6.5-30.5&#10;&#9;&#9;h1v-4.1H431.3z" style="fill: rgb(47, 33, 50);"/>
	<path class="st6" d="M431.6,450.1c-1.3,1.4-5.7,2.5-11,2.5c-0.6,0-1.2,0-1.8,0v106h8.4c0,0-1.8-19.9-2.1-26.6&#10;&#9;&#9;c-0.8-15.5-0.5-37.5,0.4-47.3c0.6-6.7,4.1-23.1,5.7-30.5h0.9v-4.1H431.6z" style="fill: rgb(71, 70, 71);"/>
	<g>
		<path d="M 411.299988 454.200012 A 1.5 1.5 0 0 1 409.799988 455.700012 A 1.5 1.5 0 0 1 408.299988 454.200012 A 1.5 1.5 0 0 1 409.799988 452.700012 A 1.5 1.5 0 0 1 411.299988 454.200012 Z" class="st8" style="fill: rgb(181, 75, 38);"/>
		<path d="M 417.100006 455.100006 A 1.5 1.5 0 0 1 415.600006 456.600006 A 1.5 1.5 0 0 1 414.100006 455.100006 A 1.5 1.5 0 0 1 415.600006 453.600006 A 1.5 1.5 0 0 1 417.100006 455.100006 Z" class="st8" style="fill: rgb(181, 75, 38);"/>
		<path d="M 423.600006 455.100006 A 1.5 1.5 0 0 1 422.100006 456.600006 A 1.5 1.5 0 0 1 420.600006 455.100006 A 1.5 1.5 0 0 1 422.100006 453.600006 A 1.5 1.5 0 0 1 423.600006 455.100006 Z" class="st8" style="fill: rgb(181, 75, 38);"/>
		<path d="M 429.299988 454.100006 A 1.5 1.5 0 0 1 427.799988 455.600006 A 1.5 1.5 0 0 1 426.299988 454.100006 A 1.5 1.5 0 0 1 427.799988 452.600006 A 1.5 1.5 0 0 1 429.299988 454.100006 Z" class="st8" style="fill: rgb(181, 75, 38);"/>
	</g>
	<path class="st10" d="M433.3,43.3v-0.7c0-1.5-1.9-2.7-3.8-3.1v3.9H433.3z" style="fill: rgb(174, 143, 138);"/>
	<path class="st10" d="M428.3,43.3v-4c-0.1,0-0.1,0-0.2,0h0V38c0-1.3-1.2-2.4-2.8-2.7v8H428.3z" style="fill: rgb(174, 143, 138);"/>
	<path class="st10" d="M424.7,43.3v-8c0,0-0.1,0-0.1,0l-1.3-8.1h-4.6v16.1H424.7z" style="fill: rgb(174, 143, 138);"/>
	<path class="st10" d="M407.9,43.3v-3.8c-1.9,0.4-3.8,1.6-3.8,3.1v0.7H407.9z" style="fill: rgb(174, 143, 138);"/>
	<path d="M 417.8999938964844 43.29999923706055 L 417.8999938964844 27.200000762939453 L 413.8999938964844 27.200000762939453 L 412.6000061035156 35 L 412.6000061035156 43.29999923706055 Z" class="st10" style="fill: rgb(174, 143, 138);"/>
	<path class="st10" d="M409.1,43.3h2.9V35c-1.7,0.2-2.9,1.3-2.9,2.7v1.6c-0.2,0-0.3,0-0.5,0.1h0.6V43.3z" style="fill: rgb(174, 143, 138);"/>
	<path class="st11" d="M436.4,379.5h-3.7v3.9h-29.7v-3.9h-2c-2,0-3.7,1.6-3.7,3.7c0,2,1.6,3.7,3.7,3.7h35.4c2,0,3.7-1.6,3.7-3.7&#10;&#9;&#9;C440.1,381.2,438.5,379.5,436.4,379.5z" style="fill: rgb(232, 225, 219);"/>
	<g>
		<g>
			<path d="M 412.4 460.600006 A 1.4 1.4 0 0 1 411 462.000006 A 1.4 1.4 0 0 1 409.6 460.600006 A 1.4 1.4 0 0 1 411 459.200006 A 1.4 1.4 0 0 1 412.4 460.600006 Z"/>
			<path d="M 417.699988 460.600006 A 1.4 1.4 0 0 1 416.299988 462.000006 A 1.4 1.4 0 0 1 414.899988 460.600006 A 1.4 1.4 0 0 1 416.299988 459.200006 A 1.4 1.4 0 0 1 417.699988 460.600006 Z"/>
			<path d="M 423.000006 460.700012 A 1.4 1.4 0 0 1 421.600006 462.100012 A 1.4 1.4 0 0 1 420.200006 460.700012 A 1.4 1.4 0 0 1 421.600006 459.300012 A 1.4 1.4 0 0 1 423.000006 460.700012 Z"/>
			<path d="M 428.199988 460.600006 A 1.4 1.4 0 0 1 426.799988 462.000006 A 1.4 1.4 0 0 1 425.399988 460.600006 A 1.4 1.4 0 0 1 426.799988 459.200006 A 1.4 1.4 0 0 1 428.199988 460.600006 Z"/>
		</g>
		<g class="st12" style="opacity: 0.25;">
			<g>
				<path d="M 411.9 460.700012 A 0.9 0.9 0 0 1 411 461.600012 A 0.9 0.9 0 0 1 410.1 460.700012 A 0.9 0.9 0 0 1 411 459.800012 A 0.9 0.9 0 0 1 411.9 460.700012 Z" class="st13" style="fill: rgb(188, 190, 192);"/>
				<path d="M 427.799994 460.700012 A 0.9 0.9 0 0 1 426.899994 461.600012 A 0.9 0.9 0 0 1 425.999994 460.700012 A 0.9 0.9 0 0 1 426.899994 459.800012 A 0.9 0.9 0 0 1 427.799994 460.700012 Z" class="st13" style="fill: rgb(188, 190, 192);"/>
			</g>
			<path d="M 422.4 460.700012 A 0.9 0.9 0 0 1 421.5 461.600012 A 0.9 0.9 0 0 1 420.6 460.700012 A 0.9 0.9 0 0 1 421.5 459.800012 A 0.9 0.9 0 0 1 422.4 460.700012 Z" class="st13" style="fill: rgb(188, 190, 192);"/>
			<path d="M 417.100012 460.700012 A 0.9 0.9 0 0 1 416.200012 461.600012 A 0.9 0.9 0 0 1 415.300012 460.700012 A 0.9 0.9 0 0 1 416.200012 459.800012 A 0.9 0.9 0 0 1 417.100012 460.700012 Z" class="st13" style="fill: rgb(188, 190, 192);"/>
		</g>
	</g>
	<g>
		<path class="st13" d="M409.8,455.7c0.3,0,0.6-0.1,0.8-0.3l4-370.4h-2l-4,370.2C408.9,455.5,409.3,455.7,409.8,455.7z" style="fill: rgb(188, 190, 192);"/>
		<path class="st13" d="M408.6,455.7L408.6,455.7L408.6,455.7C408.6,455.7,408.6,455.7,408.6,455.7z" style="fill: rgb(188, 190, 192);"/>
	</g>
	<path class="st13" d="M415.6,456.6c0.3,0,0.7-0.1,0.9-0.3L417.8,69l-2,0l-1.3,387.2C414.8,456.4,415.2,456.6,415.6,456.6z" style="fill: rgb(188, 190, 192);"/>
	<path class="st13" d="M422.2,456.6c0.2,0,0.3,0,0.5-0.1l-1.8-392.9l-1,0l1.8,392.8C421.8,456.6,422,456.6,422.2,456.6z" style="fill: rgb(188, 190, 192);"/>
	<path class="st13" d="M427.8,455.6c0.2,0,0.4,0,0.5-0.1l-4.6-376.2l-1,0l4.6,376.2C427.5,455.6,427.6,455.6,427.8,455.6z" style="fill: rgb(188, 190, 192);"/>
</g>

</svg>